<svg width="111" height="75" viewBox="0 0 111 75" fill="none" xmlns="http://www.w3.org/2000/svg">
<path d="M11.0704 33.8611H10.737V74.3082H11.0704V33.8611Z" fill="#C6C7C8"/>
<path d="M57.3217 33.8611H57.655V74.3082H57.3217V33.8611Z" fill="#C6C7C8"/>
<path d="M11.2926 33.8611H10.9592V74.3082H11.2926V33.8611Z" fill="black"/>
<path d="M57.0995 33.8611H57.4328V74.3082H57.0995V33.8611Z" fill="black"/>
<path d="M4.08829 33.942H3.75497V74.389H4.08829V33.942Z" fill="#C6C7C8"/>
<path d="M64.3038 33.942H64.6371V74.389H64.3038V33.942Z" fill="#C6C7C8"/>
<path d="M4.31044 33.942H3.97711V74.389H4.31044V33.942Z" fill="black"/>
<path d="M64.0816 33.942H64.4149V74.389H64.0816V33.942Z" fill="black"/>
<path d="M17.8883 33.8611H17.555V74.3082H17.8883V33.8611Z" fill="#C6C7C8"/>
<path d="M68.6361 33.8611H68.3027V74.3082H68.6361V33.8611Z" fill="#C6C7C8"/>
<path d="M50.5038 33.8611H50.8371V74.3082H50.5038V33.8611Z" fill="#C6C7C8"/>
<path d="M101.252 33.8611H101.585V74.3082H101.252V33.8611Z" fill="#C6C7C8"/>
<path d="M18.108 33.8611H17.7747V74.3082H18.108V33.8611Z" fill="black"/>
<path d="M68.8558 33.8611H68.5225V74.3082H68.8558V33.8611Z" fill="black"/>
<path d="M50.284 33.8611H50.6173V74.3082H50.284V33.8611Z" fill="black"/>
<path d="M101.032 33.8611H101.365V74.3082H101.032V33.8611Z" fill="black"/>
<path d="M17.9969 38.5236H11.0703V39.2354H17.9969V38.5236Z" fill="black"/>
<path d="M68.7447 38.5236H61.8181V39.2354H68.7447V38.5236Z" fill="black"/>
<path d="M50.3952 38.5236H57.3217V39.2354H50.3952V38.5236Z" fill="black"/>
<path d="M101.143 38.5236H108.07V39.2354H101.143V38.5236Z" fill="black"/>
<path d="M10.9037 38.5236H3.97711V39.2354H10.9037V38.5236Z" fill="#C6C7C8"/>
<path d="M57.4884 38.5236H64.4149V39.2354H57.4884V38.5236Z" fill="#C6C7C8"/>
<path d="M17.9969 44.3699H11.0703V45.0817H17.9969V44.3699Z" fill="black"/>
<path d="M68.7447 44.3699H61.8181V45.0817H68.7447V44.3699Z" fill="black"/>
<path d="M50.3952 44.3699H57.3217V45.0817H50.3952V44.3699Z" fill="black"/>
<path d="M101.143 44.3699H108.07V45.0817H101.143V44.3699Z" fill="black"/>
<path d="M10.9037 44.3699H3.97711V45.0817H10.9037V44.3699Z" fill="#C6C7C8"/>
<path d="M57.4884 44.3699H64.4149V45.0817H57.4884V44.3699Z" fill="#C6C7C8"/>
<path d="M17.9969 50.2162H11.0703V50.9281H17.9969V50.2162Z" fill="black"/>
<path d="M68.7447 50.2162H61.8181V50.9281H68.7447V50.2162Z" fill="black"/>
<path d="M50.3952 50.2162H57.3217V50.9281H50.3952V50.2162Z" fill="black"/>
<path d="M101.143 50.2162H108.07V50.9281H101.143V50.2162Z" fill="black"/>
<path d="M10.9037 50.2162H3.97711V50.9281H10.9037V50.2162Z" fill="#C6C7C8"/>
<path d="M57.4884 50.2162H64.4149V50.9281H57.4884V50.2162Z" fill="#C6C7C8"/>
<path d="M17.9969 57.3247H11.0703V58.0366H17.9969V57.3247Z" fill="black"/>
<path d="M68.7447 57.3247H61.8181V58.0366H68.7447V57.3247Z" fill="black"/>
<path d="M10.9037 57.3247H3.97711V58.0366H10.9037V57.3247Z" fill="#C6C7C8"/>
<path d="M57.4884 57.3247H64.4149V58.0366H57.4884V57.3247Z" fill="#C6C7C8"/>
<path d="M17.9969 64.4356H11.0703V65.1475H17.9969V64.4356Z" fill="black"/>
<path d="M68.7447 64.4356H61.8181V65.1475H68.7447V64.4356Z" fill="black"/>
<path d="M10.9037 64.4356H3.97711V65.1475H10.9037V64.4356Z" fill="#C6C7C8"/>
<path d="M57.4884 64.4356H64.4149V65.1475H57.4884V64.4356Z" fill="#C6C7C8"/>
<path d="M17.9969 73.4398H11.0703V74.1517H17.9969V73.4398Z" fill="black"/>
<path d="M10.9037 73.4398H3.97711V74.1517H10.9037V73.4398Z" fill="#C6C7C8"/>
<path d="M57.4884 73.4398H64.4149V74.1517H57.4884V73.4398Z" fill="#C6C7C8"/>
<path d="M23.0675 4.78357H15.9389V54.3763H23.0675V4.78357Z" fill="#A4A5A7"/>
<path d="M23.0978 4.78357H16.2192V7.22458H23.0978V4.78357Z" fill="white"/>
<path d="M23.0498 7.25992H16.2192V8.95123H23.0498V7.25992Z" fill="#A4A5A7"/>
<path d="M23.08 14.5678H16.2646V16.2591H23.08V14.5678Z" fill="#A4A5A7"/>
<path d="M23.0801 14.3381H16.2545V14.8H23.0801V14.3381Z" fill="#E6E7E8"/>
<path d="M23.0952 14.7723H16.2545V15.2141H23.0952V14.7723Z" fill="#C6C5C5"/>
<path d="M23.0473 8.95377H16.2697V14.3482H23.0473V8.95377Z" fill="white"/>
<path d="M23.3781 4.78357H22.6938V54.4595H23.3781V4.78357Z" fill="#A4A5A7"/>
<path d="M17.0272 4.78357H16.3126V52.4881H17.0272V4.78357Z" fill="#A4A5A7"/>
<path d="M16.3505 4.81638H15.6358V52.5209H16.3505V4.81638Z" fill="#757474"/>
<path d="M41.9582 63.2139H13.699V74.2628H41.9582V63.2139Z" fill="#C6C7C8"/>
<path d="M92.7061 63.2139H64.4468V74.2628H92.7061V63.2139Z" fill="#C6C7C8"/>
<path d="M52.4958 63.2139H41.9557V74.2654H52.4958V63.2139Z" fill="#A4A5A7"/>
<path d="M103.244 63.2139H92.7036V74.2654H103.244V63.2139Z" fill="#A4A5A7"/>
<path d="M50.4832 5.1218H43.3547V54.717H50.4832V5.1218Z" fill="#A4A5A7"/>
<path d="M43.7739 22.8476H15.6889V56.5699H43.7739V22.8476Z" fill="#757474"/>
<path d="M44.842 54.6893H13.752V57.6301H44.842V54.6893Z" fill="#EE4325"/>
<path d="M95.5898 54.6893H64.4999V57.6301H95.5898V54.6893Z" fill="#EE4325"/>
<path d="M43.688 16.5873H15.6712V22.1711H43.688V16.5873Z" fill="white"/>
<g opacity="0.2">
<path opacity="0.2" d="M15.7267 22.1711L30.0293 16.5873H41.2891L28.739 22.2291L15.7267 22.1711Z" fill="white"/>
</g>
<g opacity="0.2">
<path opacity="0.2" d="M43.6855 16.5873L31.8752 22.2291L34.6428 22.1105L43.6855 17.9681V16.5873Z" fill="white"/>
</g>
<path d="M43.688 24.1425H15.6712V29.7263H43.688V24.1425Z" fill="white"/>
<g opacity="0.2">
<path opacity="0.2" d="M15.7267 29.7263L30.0293 24.1425H41.2891L28.739 29.7869L15.7267 29.7263Z" fill="white"/>
</g>
<g opacity="0.2">
<path opacity="0.2" d="M43.6855 24.1425L31.8752 29.7869L34.6428 29.6657L43.6855 25.5233V24.1425Z" fill="white"/>
</g>
<path d="M43.688 31.7003H15.6712V37.2841H43.688V31.7003Z" fill="white"/>
<path d="M94.4359 31.7003H66.4191V37.2841H94.4359V31.7003Z" fill="white"/>
<g opacity="0.2">
<path opacity="0.2" d="M15.7267 37.2841L30.0293 31.7003H41.2891L28.739 37.3421L15.7267 37.2841Z" fill="white"/>
</g>
<g opacity="0.2">
<path opacity="0.2" d="M66.4745 37.2841L80.7771 31.7003H92.0369L79.4868 37.3421L66.4745 37.2841Z" fill="white"/>
</g>
<g opacity="0.2">
<path opacity="0.2" d="M43.6855 31.7003L31.8752 37.3421L34.6428 37.221L43.6855 33.0811V31.7003Z" fill="white"/>
</g>
<g opacity="0.2">
<path opacity="0.2" d="M94.4333 31.7003L82.623 37.3421L85.3906 37.221L94.4333 33.0811V31.7003Z" fill="white"/>
</g>
<path d="M43.688 38.9931H15.6712V44.5794H43.688V38.9931Z" fill="white"/>
<path d="M94.4359 38.9931H66.4191V44.5794H94.4359V38.9931Z" fill="white"/>
<g opacity="0.2">
<path opacity="0.2" d="M15.7267 44.5794L30.0293 38.9931H41.2891L28.739 44.64L15.7267 44.5794Z" fill="white"/>
</g>
<g opacity="0.2">
<path opacity="0.2" d="M66.4745 44.5794L80.7771 38.9931H92.0369L79.4868 44.64L66.4745 44.5794Z" fill="white"/>
</g>
<g opacity="0.2">
<path opacity="0.2" d="M43.6855 38.9931L31.8752 44.64L34.6428 44.5188L43.6855 40.3739V38.9931Z" fill="white"/>
</g>
<g opacity="0.2">
<path opacity="0.2" d="M94.4333 38.9931L82.623 44.64L85.3906 44.5188L94.4333 40.3739V38.9931Z" fill="white"/>
</g>
<path d="M43.688 46.5509H15.6712V52.1347H43.688V46.5509Z" fill="white"/>
<path d="M94.4359 46.5509H66.4191V52.1347H94.4359V46.5509Z" fill="white"/>
<g opacity="0.2">
<path opacity="0.2" d="M15.7267 52.1346L30.0293 46.5509H41.2891L28.739 52.1927L15.7267 52.1346Z" fill="white"/>
</g>
<g opacity="0.2">
<path opacity="0.2" d="M66.4745 52.1346L80.7771 46.5509H92.0369L79.4868 52.1927L66.4745 52.1346Z" fill="white"/>
</g>
<g opacity="0.2">
<path opacity="0.2" d="M43.6855 46.5509L31.8752 52.1927L34.6428 52.074L43.6855 47.9317V46.5509Z" fill="white"/>
</g>
<g opacity="0.2">
<path opacity="0.2" d="M94.4333 46.5509L82.623 52.1927L85.3906 52.074L94.4333 47.9317V46.5509Z" fill="white"/>
</g>
<path d="M44.5769 21.9716H14.1208V22.8375H44.5769V21.9716Z" fill="#AAA9A9"/>
<path d="M44.6173 21.9716H14.1208V22.4033H44.6173V21.9716Z" fill="#C4C4C4"/>
<path d="M43.7032 29.5269H14.1208V30.3953H43.7032V29.5269Z" fill="#AAA9A9"/>
<path d="M43.7411 29.5269H14.1208V29.9636H43.7411V29.5269Z" fill="#C4C4C4"/>
<path d="M44.4456 37.0847H14.1208V37.9531H44.4456V37.0847Z" fill="#AAA9A9"/>
<path d="M95.1934 37.0847H64.8686V37.9531H95.1934V37.0847Z" fill="#AAA9A9"/>
<path d="M44.4835 37.0847H14.1208V37.5189H44.4835V37.0847Z" fill="#C4C4C4"/>
<path d="M95.2313 37.0847H64.8686V37.5189H95.2313V37.0847Z" fill="#C4C4C4"/>
<path d="M44.4456 44.38H14.1208V45.2484H44.4456V44.38Z" fill="#AAA9A9"/>
<path d="M95.1934 44.38H64.8686V45.2484H95.1934V44.38Z" fill="#AAA9A9"/>
<path d="M44.4835 44.38H14.1208V44.8142H44.4835V44.38Z" fill="#C4C4C4"/>
<path d="M95.2313 44.38H64.8686V44.8142H95.2313V44.38Z" fill="#C4C4C4"/>
<path d="M44.6501 51.9352H14.1208V52.8036H44.6501V51.9352Z" fill="#AAA9A9"/>
<path d="M95.3979 51.9352H64.8686V52.8036H95.3979V51.9352Z" fill="#AAA9A9"/>
<path d="M44.6905 51.9352H14.1208V52.3694H44.6905V51.9352Z" fill="#C4C4C4"/>
<path d="M95.4383 51.9352H64.8686V52.3694H95.4383V51.9352Z" fill="#C4C4C4"/>
<path d="M50.9478 54.6893H44.842V57.5897H50.9478V54.6893Z" fill="#A4A5A7"/>
<path d="M101.696 54.6893H95.5898V57.5897H101.696V54.6893Z" fill="#A4A5A7"/>
<path d="M50.5136 5.1218H43.635V7.56283H50.5136V5.1218Z" fill="white"/>
<path d="M50.4656 7.59567H43.635V9.28695H50.4656V7.59567Z" fill="#A4A5A7"/>
<path d="M50.4959 14.9035H43.6804V16.5948H50.4959V14.9035Z" fill="#A4A5A7"/>
<path d="M50.4959 14.6764H43.6703V15.1383H50.4959V14.6764Z" fill="#E6E7E8"/>
<path d="M50.511 15.1105H43.6703V15.5498H50.511V15.1105Z" fill="#C6C5C5"/>
<path d="M50.463 9.29202H43.6854V14.689H50.463V9.29202Z" fill="white"/>
<path d="M50.463 16.5999H43.6854V22.1484H50.463V16.5999Z" fill="white"/>
<path d="M50.463 23.9886H43.6854V29.5345H50.463V23.9886Z" fill="white"/>
<path d="M50.4959 29.9283H43.6804V31.6676H50.4959V29.9283Z" fill="#A4A5A7"/>
<path d="M50.4959 29.5396H43.6703V30.0167H50.4959V29.5396Z" fill="#E6E7E8"/>
<path d="M50.511 29.9863H43.6703V30.4382H50.511V29.9863Z" fill="#C6C5C5"/>
<path d="M50.463 31.6675H43.6854V37.0847H50.463V31.6675Z" fill="white"/>
<path d="M101.211 31.6675H94.4332V37.0847H101.211V31.6675Z" fill="white"/>
<path d="M50.4959 37.3346H43.6804V38.9956H50.4959V37.3346Z" fill="#A4A5A7"/>
<path d="M101.244 37.3346H94.4283V38.9956H101.244V37.3346Z" fill="#A4A5A7"/>
<path d="M50.511 37.0898H43.6854V37.5441H50.511V37.0898Z" fill="#E6E7E8"/>
<path d="M101.259 37.0898H94.4332V37.5441H101.259V37.0898Z" fill="#E6E7E8"/>
<path d="M50.5261 37.5139H43.6854V37.9455H50.5261V37.5139Z" fill="#C6C5C5"/>
<path d="M101.274 37.5139H94.4332V37.9455H101.274V37.5139Z" fill="#C6C5C5"/>
<path d="M50.4883 38.9956H43.7108V44.5744H50.4883V38.9956Z" fill="white"/>
<path d="M101.236 38.9956H94.4586V44.5744H101.236V38.9956Z" fill="white"/>
<path d="M50.463 46.5534H43.6854V52.1321H50.463V46.5534Z" fill="white"/>
<path d="M101.211 46.5534H94.4332V52.1321H101.211V46.5534Z" fill="white"/>
<path d="M50.4959 44.847H43.6804V46.5559H50.4959V44.847Z" fill="#A4A5A7"/>
<path d="M101.244 44.847H94.4283V46.5559H101.244V44.847Z" fill="#A4A5A7"/>
<path d="M50.501 44.3749H43.6754V44.8419H50.501V44.3749Z" fill="#E6E7E8"/>
<path d="M101.249 44.3749H94.4232V44.8419H101.249V44.3749Z" fill="#E6E7E8"/>
<path d="M50.5161 44.8141H43.6754V45.2584H50.5161V44.8141Z" fill="#C6C5C5"/>
<path d="M101.264 44.8141H94.4232V45.2584H101.264V44.8141Z" fill="#C6C5C5"/>
<path d="M50.511 51.9201H43.6854V52.3871H50.511V51.9201Z" fill="#E6E7E8"/>
<path d="M101.259 51.9201H94.4332V52.3871H101.259V51.9201Z" fill="#E6E7E8"/>
<path d="M50.5261 52.3568H43.6854V52.801H50.5261V52.3568Z" fill="#C6C5C5"/>
<path d="M101.274 52.3568H94.4332V52.801H101.274V52.3568Z" fill="#C6C5C5"/>
<path d="M50.4959 22.3705H43.6804V24.1097H50.4959V22.3705Z" fill="#A4A5A7"/>
<path d="M50.4959 21.9817H43.6703V22.4563H50.4959V21.9817Z" fill="#E6E7E8"/>
<path d="M50.511 22.426H43.6703V22.8779H50.511V22.426Z" fill="#C6C5C5"/>
<path d="M50.7938 5.1218H50.1095V54.7978H50.7938V5.1218Z" fill="#A4A5A7"/>
<path d="M44.4431 5.1218H43.7285V52.8263H44.4431V5.1218Z" fill="#A4A5A7"/>
<path d="M43.7662 5.15213H43.0516V52.8566H43.7662V5.15213Z" fill="#757474"/>
<path d="M42.0088 57.5695H11.4416V63.3098H42.0088V57.5695Z" fill="#4B6281"/>
<path d="M92.7565 57.5695H62.1893V63.3098H92.7565V57.5695Z" fill="#4B6281"/>
<path d="M55.0134 57.5518H42.0088V63.2921H55.0134V57.5518Z" fill="black"/>
<path d="M105.761 57.5518H92.7566V63.2921H105.761V57.5518Z" fill="black"/>
<path d="M33.9484 62.7721H9.86331V63.0902H33.9484V62.7721Z" fill="#B0B0B2"/>
<path d="M84.6963 62.7721H60.6111V63.0902H84.6963V62.7721Z" fill="#B0B0B2"/>
<path d="M33.9484 63.7945H9.86331V64.115H33.9484V63.7945Z" fill="#B0B0B2"/>
<path d="M84.6963 63.7945H60.6111V64.115H84.6963V63.7945Z" fill="#B0B0B2"/>
<path d="M41.4608 65.8594H10.4391V66.18H41.4608V65.8594Z" fill="#B0B0B2"/>
<path d="M92.2086 65.8594H61.1869V66.18H92.2086V65.8594Z" fill="#B0B0B2"/>
<path d="M41.4608 66.8817H10.4391V67.1998H41.4608V66.8817Z" fill="#B0B0B2"/>
<path d="M92.2086 66.8817H61.1869V67.1998H92.2086V66.8817Z" fill="#B0B0B2"/>
<path d="M55.7331 65.8594H40.5467V66.18H55.7331V65.8594Z" fill="#A7A8A5"/>
<path d="M106.481 65.8594H91.2945V66.18H106.481V65.8594Z" fill="#A7A8A5"/>
<path d="M55.7331 66.8817H40.5467V67.1998H55.7331V66.8817Z" fill="#A7A8A5"/>
<path d="M106.481 66.8817H91.2945V67.1998H106.481V66.8817Z" fill="#A7A8A5"/>
<g opacity="0.1">
<path opacity="0.1" d="M40.2108 67.3235H13.8152V67.6441H40.2108V67.3235Z" fill="black"/>
<path opacity="0.1" d="M40.2106 68.3433H13.815V68.6613H40.2106V68.3433Z" fill="black"/>
<path opacity="0.1" d="M52.3542 67.3235H39.4329V67.6441H52.3542V67.3235Z" fill="black"/>
<path opacity="0.1" d="M52.3542 68.3433H39.4329V68.6613H52.3542V68.3433Z" fill="black"/>
</g>
<g opacity="0.1">
<path opacity="0.1" d="M90.9586 67.3235H64.563V67.6441H90.9586V67.3235Z" fill="black"/>
<path opacity="0.1" d="M90.9587 68.3433H64.563V68.6613H90.9587V68.3433Z" fill="black"/>
<path opacity="0.1" d="M103.102 67.3235H90.1809V67.6441H103.102V67.3235Z" fill="black"/>
<path opacity="0.1" d="M103.102 68.3433H90.1809V68.6613H103.102V68.3433Z" fill="black"/>
</g>
<g opacity="0.1">
<path opacity="0.1" d="M27.9915 64.0014H13.7041V64.322H27.9915V64.0014Z" fill="black"/>
<path opacity="0.1" d="M27.9915 65.0237H13.704V65.3418H27.9915V65.0237Z" fill="black"/>
<path opacity="0.1" d="M34.5645 64.0013H27.5698V64.3219H34.5645V64.0013Z" fill="black"/>
<path opacity="0.1" d="M34.5645 65.0237H27.5698V65.3418H34.5645V65.0237Z" fill="black"/>
</g>
<g opacity="0.1">
<path opacity="0.1" d="M78.7393 64.0014H64.4519V64.322H78.7393V64.0014Z" fill="black"/>
<path opacity="0.1" d="M78.7396 65.0237H64.4521V65.3418H78.7396V65.0237Z" fill="black"/>
<path opacity="0.1" d="M85.3126 64.0013H78.3179V64.3219H85.3126V64.0013Z" fill="black"/>
<path opacity="0.1" d="M85.3126 65.0237H78.3179V65.3418H85.3126V65.0237Z" fill="black"/>
</g>
<path d="M43.3067 69.1183H9.17648V69.8276H43.3067V69.1183Z" fill="#B0B0B2"/>
<path d="M94.0545 69.1183H59.9243V69.8276H94.0545V69.1183Z" fill="#B0B0B2"/>
<path d="M56.8997 69.1056H42.2537V69.815H56.8997V69.1056Z" fill="#BABABB"/>
<path d="M107.647 69.1056H93.0015V69.815H107.647V69.1056Z" fill="#BABABB"/>
<path d="M43.1072 14.3508H16.2697V15.1964H43.1072V14.3508Z" fill="#C6C5C5"/>
<path d="M43.1072 8.38577H16.2697V9.23141H43.1072V8.38577Z" fill="#C6C5C5"/>
<path d="M27.4006 4.55893H26.5572V16.5444H27.4006V4.55893Z" fill="#C6C5C5"/>
<path d="M35.0569 8.77954H34.2135V16.5443H35.0569V8.77954Z" fill="#C6C5C5"/>
<path d="M47.4076 22.681H46.693V57.4837H47.4076V22.681Z" fill="#E9E9E9"/>
<path d="M98.1976 28.3814H97.4781V57.4461H98.1976V28.3814Z" fill="#E9E9E9"/>
<path d="M48.1222 22.681H47.4076V57.4837H48.1222V22.681Z" fill="#C3C2C4"/>
<path d="M98.917 28.3814H98.1976V57.4461H98.917V28.3814Z" fill="#C3C2C4"/>
<path d="M53.2584 22.681H52.5438V57.4837H53.2584V22.681Z" fill="#E9E9E9"/>
<path d="M103.953 28.3814H103.234V57.4461H103.953V28.3814Z" fill="#E9E9E9"/>
<path d="M53.968 22.681H53.2559V57.4837H53.968V22.681Z" fill="#C3C2C4"/>
<path d="M104.672 28.3814H103.953V57.4461H104.672V28.3814Z" fill="#C3C2C4"/>
<path d="M55.9654 54.4874H36.2766V55.0578H55.9654V54.4874Z" fill="#7B7B7D"/>
<path d="M106.713 54.4874H87.0245V55.0578H106.713V54.4874Z" fill="#7B7B7D"/>
<path d="M47.2636 54.4874H36.2766V55.0578H47.2636V54.4874Z" fill="#C3C2C4"/>
<path d="M98.0115 54.4874H87.0245V55.0578H98.0115V54.4874Z" fill="#C3C2C4"/>
<path d="M55.9654 50.6378H36.2766V51.2083H55.9654V50.6378Z" fill="#7B7B7D"/>
<path d="M106.713 50.6378H87.0245V51.2083H106.713V50.6378Z" fill="#7B7B7D"/>
<path d="M47.2636 50.6378H36.2766V51.2083H47.2636V50.6378Z" fill="#C3C2C4"/>
<path d="M98.0115 50.6378H87.0245V51.2083H98.0115V50.6378Z" fill="#C3C2C4"/>
<path d="M55.9654 46.3565H36.2766V46.927H55.9654V46.3565Z" fill="#7B7B7D"/>
<path d="M106.713 46.3565H87.0245V46.927H106.713V46.3565Z" fill="#7B7B7D"/>
<path d="M47.2636 46.3565H11.8632V46.927H47.2636V46.3565Z" fill="#E9E9E9"/>
<path d="M98.0114 46.3565H62.611V46.927H98.0114V46.3565Z" fill="#E9E9E9"/>
<path d="M55.9654 42.0778H36.2766V42.6483H55.9654V42.0778Z" fill="#7B7B7D"/>
<path d="M106.713 42.0778H87.0245V42.6483H106.713V42.0778Z" fill="#7B7B7D"/>
<path d="M47.2636 42.0778H11.8632V42.6483H47.2636V42.0778Z" fill="#E9E9E9"/>
<path d="M98.0114 42.0778H62.611V42.6483H98.0114V42.0778Z" fill="#E9E9E9"/>
<path d="M55.9654 37.3724H36.2766V37.9429H55.9654V37.3724Z" fill="#7B7B7D"/>
<path d="M106.713 37.3724H87.0245V37.9429H106.713V37.3724Z" fill="#7B7B7D"/>
<path d="M47.2636 37.3724H36.2766V37.9429H47.2636V37.3724Z" fill="#E9E9E9"/>
<path d="M98.0115 37.3724H87.0245V37.9429H98.0115V37.3724Z" fill="#E9E9E9"/>
<path d="M55.9654 32.0941H36.2766V32.6646H55.9654V32.0941Z" fill="#7B7B7D"/>
<path d="M47.2636 32.0941H11.8632V32.6646H47.2636V32.0941Z" fill="#E9E9E9"/>
<path d="M55.9654 26.9597H36.2766V27.5302H55.9654V26.9597Z" fill="#7B7B7D"/>
<path d="M47.2636 26.9597H11.8632V27.5302H47.2636V26.9597Z" fill="#E9E9E9"/>
<g opacity="0.1">
<path opacity="0.1" d="M50.8115 27.5302H15.5879V28.3557H50.8115V27.5302Z" fill="black"/>
</g>
<g opacity="0.1">
<path opacity="0.1" d="M50.8115 32.7076H15.5879V33.533H50.8115V32.7076Z" fill="black"/>
</g>
<g opacity="0.1">
<path opacity="0.1" d="M50.809 37.9607H15.7091V38.7861H50.809V37.9607Z" fill="black"/>
</g>
<g opacity="0.1">
<path opacity="0.1" d="M101.557 37.9607H66.4569V38.7861H101.557V37.9607Z" fill="black"/>
</g>
<g opacity="0.1">
<path opacity="0.1" d="M50.8115 42.6508H15.5601V43.4763H50.8115V42.6508Z" fill="black"/>
</g>
<g opacity="0.1">
<path opacity="0.1" d="M101.559 42.6508H66.3079V43.4763H101.559V42.6508Z" fill="black"/>
</g>
<g opacity="0.1">
<path opacity="0.1" d="M50.7736 46.9649H36.2412V47.7903H50.7736V46.9649Z" fill="black"/>
</g>
<g opacity="0.1">
<path opacity="0.1" d="M101.521 46.9649H86.9891V47.7903H101.521V46.9649Z" fill="black"/>
</g>
<g opacity="0.1">
<path opacity="0.1" d="M50.809 51.2032H36.2766V52.0287H50.809V51.2032Z" fill="black"/>
</g>
<g opacity="0.1">
<path opacity="0.1" d="M101.557 51.2032H87.0245V52.0287H101.557V51.2032Z" fill="black"/>
</g>
<g opacity="0.1">
<path opacity="0.1" d="M50.9226 55.0326H36.2766V55.858H50.9226V55.0326Z" fill="black"/>
</g>
<g opacity="0.1">
<path opacity="0.1" d="M101.67 55.0326H87.0245V55.858H101.67V55.0326Z" fill="black"/>
</g>
<path d="M12.7092 60.5305H11.3936V74.6944H12.7092V60.5305Z" fill="#BABABB"/>
<path d="M12.1183 60.5305H11.3936V74.6944H12.1183V60.5305Z" fill="#B0B0B2"/>
<path d="M23.7543 60.5305H22.4387V74.6944H23.7543V60.5305Z" fill="#BABABB"/>
<path d="M74.5021 60.5305H73.1865V74.6944H74.5021V60.5305Z" fill="#BABABB"/>
<path d="M23.1634 60.5305H22.4387V74.6944H23.1634V60.5305Z" fill="#B0B0B2"/>
<path d="M73.9112 60.5305H73.1865V74.6944H73.9112V60.5305Z" fill="#B0B0B2"/>
<path d="M34.7387 60.6769H33.4231V74.8409H34.7387V60.6769Z" fill="#BABABB"/>
<path d="M85.4866 60.6769H84.171V74.8409H85.4866V60.6769Z" fill="#BABABB"/>
<path d="M34.1479 60.6769H33.4231V74.8409H34.1479V60.6769Z" fill="#B0B0B2"/>
<path d="M84.8957 60.6769H84.171V74.8409H84.8957V60.6769Z" fill="#B0B0B2"/>
<path d="M44.0466 60.6037H42.731V74.7676H44.0466V60.6037Z" fill="#BABABB"/>
<path d="M94.7944 60.6037H93.4788V74.7676H94.7944V60.6037Z" fill="#BABABB"/>
<path d="M43.4557 60.6037H42.731V74.7676H43.4557V60.6037Z" fill="#B0B0B2"/>
<path d="M94.2035 60.6037H93.4788V74.7676H94.2035V60.6037Z" fill="#B0B0B2"/>
<path d="M53.7281 60.6037H52.4125V74.7676H53.7281V60.6037Z" fill="#BABABB"/>
<path d="M104.476 60.6037H103.16V74.7676H104.476V60.6037Z" fill="#BABABB"/>
<path d="M53.1373 60.6037H52.4125V74.7676H53.1373V60.6037Z" fill="#B0B0B2"/>
<path d="M103.885 60.6037H103.16V74.7676H103.885V60.6037Z" fill="#B0B0B2"/>
<path d="M36.3524 3.37756H35.8448V57.5695H36.3524V3.37756Z" fill="#E9E9E9"/>
<path d="M87.1184 29.2447H86.5429V57.59H87.1184V29.2447Z" fill="#E9E9E9"/>
<path d="M36.8044 3.37756H36.2968V57.5695H36.8044V3.37756Z" fill="#7B7B7D"/>
<path d="M87.5501 29.2447H86.9746V57.59H87.5501V29.2447Z" fill="#7B7B7D"/>
<path d="M23.9689 0H23.4614V57.5695H23.9689V0Z" fill="#E9E9E9"/>
<path d="M74.7444 27.5181H74.1689V57.59H74.7444V27.5181Z" fill="#E9E9E9"/>
<path d="M24.4159 0H23.9109V57.5695H24.4159V0Z" fill="#7B7B7D"/>
<path d="M75.1761 27.5181H74.6005V57.59H75.1761V27.5181Z" fill="#7B7B7D"/>
<path d="M110.572 74.2806H0.5V75H110.572V74.2806Z" fill="black"/>
</svg>
