<svg width="26" height="27" viewBox="0 0 26 27" fill="none" xmlns="http://www.w3.org/2000/svg">
<path d="M13.1265 16.4857L14.9771 14.023C15.2727 13.6292 15.3998 13.1341 15.3306 12.6466L13.9023 2.62322C13.8616 2.33749 13.7275 2.07325 13.521 1.87168C13.3145 1.6701 13.047 1.54253 12.7604 1.50885C12.4161 1.4686 12.0698 1.56674 11.7978 1.7817C11.5259 1.99666 11.3504 2.31084 11.31 2.65515L10.2089 12.0368" stroke="#EE4325" stroke-miterlimit="10"/>
<path d="M10.8146 14.3098L11.9976 17.0835C12.0932 17.3079 12.2321 17.5112 12.4063 17.6818C12.5805 17.8525 12.7867 17.9871 13.013 18.0781L22.4063 21.8546C22.6741 21.9623 22.97 21.9783 23.2478 21.9002C23.5257 21.8221 23.7699 21.6542 23.9424 21.4228V21.4228C24.1495 21.1448 24.2377 20.7958 24.1876 20.4527C24.1375 20.1097 23.9532 19.8005 23.6752 19.5933L16.101 13.9494" stroke="#EE4325" stroke-miterlimit="10"/>
<path d="M13.4533 13.2912L10.8358 12.975C10.5937 12.9457 10.3483 12.9643 10.1135 13.0299C9.87868 13.0954 9.65907 13.2065 9.46721 13.3569L1.50062 19.6038C1.27351 19.7819 1.11172 20.0301 1.04047 20.3098C0.969219 20.5895 0.99251 20.8849 1.10671 21.15V21.15C1.24392 21.4684 1.50198 21.7192 1.82413 21.8474C2.14627 21.9756 2.50614 21.9706 2.82459 21.8335L11.4996 18.0955" stroke="#EE4325" stroke-miterlimit="10"/>
<path d="M12.6001 15.5294C12.9879 15.5294 13.3022 15.2151 13.3022 14.8273C13.3022 14.4395 12.9879 14.1252 12.6001 14.1252C12.2123 14.1252 11.8979 14.4395 11.8979 14.8273C11.8979 15.2151 12.2123 15.5294 12.6001 15.5294Z" fill="#EE4325"/>
<path d="M20.1469 22.3741C19.1569 23.3666 17.9806 24.1537 16.6855 24.6901C15.3903 25.2266 14.002 25.5018 12.6001 25.5C10.0226 25.504 7.53131 24.5715 5.58984 22.8761" stroke="#EE4325" stroke-miterlimit="10"/>
<path d="M16.2183 4.78337C20.3318 6.26541 23.2731 10.2029 23.2731 14.8273C23.2732 15.4366 23.2216 16.0448 23.1188 16.6454" stroke="#EE4325" stroke-miterlimit="10"/>
<path d="M2.25204 17.4503C2.03565 16.5924 1.9266 15.711 1.92737 14.8263C1.92737 10.1697 4.90979 6.20945 9.06854 4.75175" stroke="#EE4325" stroke-miterlimit="10"/>
<path d="M7.21222 4.05373L9.07141 4.76092L8.36421 6.62042" stroke="#EE4325" stroke-miterlimit="10"/>
<path d="M24.7115 15.4475L23.1242 16.6463L21.9251 15.059" stroke="#EE4325" stroke-miterlimit="10"/>
<path d="M5.81429 24.8424L5.599 22.865L7.57642 22.6494" stroke="#EE4325" stroke-miterlimit="10"/>
</svg>
