<svg width="24" height="25" viewBox="0 0 24 25" fill="none" xmlns="http://www.w3.org/2000/svg">
<path d="M12.843 24.4999H11.1615C11.0918 24.4997 11.0245 24.4746 10.9716 24.4292C10.9187 24.3837 10.8837 24.3209 10.873 24.252L10.4222 21.2227C9.94166 21.1405 9.46945 21.0153 9.01128 20.8486L7.10443 23.2422C7.06091 23.2969 6.99929 23.3342 6.93068 23.3474C6.86208 23.3606 6.79099 23.3489 6.73027 23.3143L5.27423 22.4759C5.21283 22.4415 5.16611 22.3859 5.14287 22.3195C5.11962 22.2531 5.12145 22.1804 5.14801 22.1153L6.27047 19.2618C5.90028 18.9479 5.55652 18.6042 5.24267 18.234L2.38919 19.3519C2.32403 19.3785 2.2514 19.3803 2.18498 19.3571C2.11856 19.3338 2.06293 19.2871 2.02855 19.2257L1.19009 17.7697C1.15503 17.7094 1.14257 17.6387 1.15497 17.5701C1.16736 17.5016 1.20379 17.4396 1.2577 17.3955L3.6559 15.4932C3.49286 15.0351 3.36624 14.5648 3.27724 14.0867L0.252441 13.636C0.182348 13.6252 0.118398 13.5898 0.0721141 13.536C0.0258298 13.4823 0.000255808 13.4138 0 13.3429V11.6615C0.000255808 11.5906 0.0258298 11.5221 0.0721141 11.4684C0.118398 11.4147 0.182348 11.3792 0.252441 11.3685L3.27724 10.9177C3.36624 10.4396 3.49286 9.96936 3.6559 9.51124L1.2577 7.60441C1.20343 7.55952 1.16685 7.49681 1.15447 7.42747C1.14209 7.35813 1.15471 7.28665 1.19009 7.22574L2.02855 5.77422C2.06362 5.71352 2.11929 5.6674 2.18546 5.64424C2.25163 5.62108 2.32392 5.6224 2.38919 5.64798L5.24267 6.77047C5.55534 6.39781 5.89918 6.05244 6.27047 5.73815L5.14801 2.88917C5.12145 2.82401 5.11962 2.75138 5.14287 2.68496C5.16611 2.61854 5.21283 2.56292 5.27423 2.52854L6.73027 1.68557C6.79099 1.65101 6.86208 1.63928 6.93068 1.6525C6.99929 1.66573 7.06091 1.70303 7.10443 1.75769L9.01128 4.15137C9.4704 3.98771 9.94234 3.86258 10.4222 3.77723L10.873 0.747928C10.8837 0.679034 10.9187 0.616237 10.9716 0.570793C11.0245 0.525349 11.0918 0.500243 11.1615 0.5H12.843C12.9127 0.500243 12.9801 0.525349 13.0329 0.570793C13.0858 0.616237 13.1208 0.679034 13.1315 0.747928L13.5823 3.77723C14.0607 3.8626 14.5311 3.98773 14.9887 4.15137L16.8956 1.75769C16.9391 1.70303 17.0007 1.66573 17.0693 1.6525C17.1379 1.63928 17.209 1.65101 17.2697 1.68557L18.7258 2.52854C18.7851 2.56489 18.8301 2.62065 18.8531 2.68636C18.8761 2.75208 18.8757 2.82372 18.852 2.88917L17.734 5.74266C18.1053 6.05532 18.4492 6.39919 18.7618 6.77047L21.6108 5.64798C21.676 5.62142 21.7486 5.61959 21.815 5.64284C21.8814 5.66609 21.9371 5.71282 21.9715 5.77422L22.8099 7.23025C22.8454 7.29073 22.8577 7.36208 22.8444 7.43094C22.8311 7.4998 22.7932 7.56147 22.7378 7.60441L20.3486 9.51124C20.5089 9.97023 20.6354 10.4403 20.7273 10.9177L23.7475 11.3685C23.8176 11.3792 23.8816 11.4147 23.9279 11.4684C23.9742 11.5221 23.9997 11.5906 24 11.6615V13.3384C23.9997 13.4093 23.9742 13.4778 23.9279 13.5315C23.8816 13.5853 23.8176 13.6207 23.7475 13.6314L20.7273 14.0822C20.6366 14.5599 20.51 15.03 20.3486 15.4887L22.7378 17.3955C22.7932 17.4384 22.8311 17.5001 22.8444 17.569C22.8577 17.6378 22.8454 17.7092 22.8099 17.7697L21.9715 19.2257C21.9371 19.2871 21.8814 19.3338 21.815 19.3571C21.7486 19.3803 21.676 19.3785 21.6108 19.3519L18.7663 18.252C18.452 18.6233 18.1067 18.9672 17.734 19.2798L18.8565 22.1333C18.8803 22.1987 18.8807 22.2704 18.8577 22.3361C18.8347 22.4018 18.7897 22.4576 18.7303 22.4939L17.2742 23.3324C17.2135 23.367 17.1424 23.3787 17.0738 23.3654C17.0052 23.3522 16.9436 23.3149 16.9001 23.2603L14.9932 20.8666C14.5368 21.0338 14.066 21.1591 13.5868 21.2407L13.136 24.27C13.1214 24.3364 13.0842 24.3956 13.0307 24.4375C12.9773 24.4795 12.9109 24.5015 12.843 24.4999ZM11.414 23.9139H12.5905L13.0413 20.9252C13.0519 20.8637 13.0816 20.8072 13.1261 20.7635C13.1705 20.7198 13.2276 20.6912 13.2893 20.6818C13.8703 20.5932 14.4401 20.442 14.9887 20.231C15.0467 20.2087 15.1103 20.2054 15.1702 20.2216C15.2302 20.2379 15.2834 20.2727 15.3223 20.3211L17.2021 22.6833L18.2209 22.0972L17.1164 19.2843C17.0942 19.2263 17.0909 19.1628 17.1071 19.1028C17.1233 19.0429 17.1582 18.9896 17.2066 18.9507C17.6629 18.5798 18.0799 18.1629 18.4508 17.7065C18.4887 17.6569 18.542 17.6212 18.6023 17.6049C18.6626 17.5886 18.7266 17.5927 18.7844 17.6164L21.6018 18.7208L22.1878 17.7021L19.8257 15.8223C19.7778 15.783 19.7434 15.7297 19.7272 15.6699C19.7111 15.6101 19.714 15.5468 19.7355 15.4887C19.944 14.9377 20.0951 14.3667 20.1863 13.7847C20.1969 13.7233 20.2266 13.6667 20.2711 13.623C20.3155 13.5794 20.3726 13.5508 20.4343 13.5413L23.4185 13.0905V11.9185L20.4343 11.4677C20.3723 11.4573 20.3151 11.4278 20.2706 11.3834C20.2262 11.3389 20.1967 11.2817 20.1863 11.2197C20.0932 10.6396 19.9422 10.0703 19.7355 9.52026C19.714 9.46219 19.7111 9.39883 19.7272 9.33903C19.7434 9.27923 19.7778 9.22598 19.8257 9.18668L22.1878 7.30239L21.6018 6.28361L18.7889 7.39253C18.7303 7.41587 18.6658 7.41972 18.6049 7.40348C18.544 7.38724 18.4899 7.35179 18.4508 7.30239C18.0824 6.8438 17.6652 6.42662 17.2066 6.05822C17.1582 6.01935 17.1233 5.96608 17.1071 5.90612C17.0909 5.84616 17.0942 5.78262 17.1164 5.72464L18.2209 2.90722L17.2021 2.32117L15.3223 4.68332C15.2849 4.73357 15.2316 4.76976 15.1711 4.78611C15.1106 4.80246 15.0464 4.798 14.9887 4.77346C14.4388 4.56654 13.8694 4.41552 13.2893 4.32267C13.2276 4.31319 13.1705 4.2846 13.1261 4.24093C13.0816 4.19725 13.0519 4.14069 13.0413 4.07925L12.5905 1.09053H11.414L10.9632 4.07925C10.9542 4.1406 10.9256 4.19741 10.8818 4.24126C10.8379 4.2851 10.7811 4.31364 10.7198 4.32267C10.1393 4.41423 9.56981 4.56529 9.02029 4.77346C8.96184 4.79755 8.89709 4.80177 8.83601 4.78548C8.77493 4.76919 8.72089 4.73331 8.68219 4.68332L6.8024 2.32117L5.78363 2.90722L6.88805 5.72464C6.91214 5.78309 6.91636 5.84782 6.90007 5.9089C6.88379 5.96998 6.8479 6.02404 6.7979 6.06273C6.33975 6.42844 5.92394 6.84425 5.55823 7.30239C5.51907 7.35179 5.46502 7.38724 5.40411 7.40348C5.34321 7.41972 5.2787 7.41587 5.22014 7.39253L2.40721 6.28361L1.81668 7.30239L4.18332 9.18668C4.2312 9.22598 4.26563 9.27923 4.28179 9.33903C4.29795 9.39883 4.29505 9.46219 4.27348 9.52026C4.06075 10.0699 3.90957 10.6413 3.82269 11.2242C3.81146 11.2854 3.78161 11.3416 3.73723 11.3852C3.69286 11.4287 3.63611 11.4576 3.57475 11.4677L0.586034 11.9185V13.095L3.57475 13.5458C3.63637 13.5553 3.69346 13.5839 3.73795 13.6276C3.78244 13.6712 3.81208 13.7278 3.82269 13.7892C3.91096 14.3704 4.06211 14.9402 4.27348 15.4887C4.29541 15.5474 4.29851 15.6115 4.28236 15.6721C4.2662 15.7327 4.23158 15.7867 4.18332 15.8268L1.81668 17.7065L2.40721 18.7253L5.22014 17.6209C5.27859 17.5968 5.34333 17.5926 5.40442 17.6089C5.4655 17.6252 5.51954 17.6611 5.55823 17.7111C5.92785 18.1686 6.34489 18.5856 6.8024 18.9552C6.85125 18.9938 6.88609 19.0473 6.90156 19.1076C6.91703 19.1678 6.91229 19.2315 6.88805 19.2888L5.78363 22.1017L6.7979 22.6878L8.68219 20.3256C8.72222 20.2774 8.77627 20.2428 8.83685 20.2266C8.89743 20.2104 8.96154 20.2136 9.02029 20.2355C9.56888 20.4466 10.1387 20.5977 10.7198 20.6863C10.7811 20.6953 10.8379 20.7238 10.8818 20.7677C10.9256 20.8115 10.9542 20.8683 10.9632 20.9297L11.414 23.9139ZM12 17.0935C11.0917 17.0935 10.2037 16.8242 9.44843 16.3197C8.69313 15.8151 8.10436 15.098 7.75656 14.2589C7.40875 13.4198 7.31753 12.4964 7.4944 11.6055C7.67128 10.7145 8.10833 9.89605 8.75029 9.25346C9.39226 8.61086 10.2103 8.173 11.1011 7.99525C11.9918 7.8175 12.9153 7.90783 13.7548 8.25482C14.5942 8.6018 15.3119 9.18986 15.8172 9.94466C16.3225 10.6995 16.5926 11.5871 16.5935 12.4954C16.5923 13.7138 16.1081 14.8819 15.2471 15.7438C14.386 16.6058 13.2183 17.0911 12 17.0935ZM12 8.49245C11.2072 8.49245 10.4322 8.72762 9.77308 9.16817C9.11395 9.60872 8.6003 10.2349 8.29711 10.9674C7.99392 11.6999 7.91482 12.5059 8.06982 13.2834C8.22481 14.0609 8.60695 14.775 9.16786 15.3353C9.72877 15.8956 10.4433 16.2769 11.2209 16.431C11.9986 16.5851 12.8045 16.5051 13.5367 16.2011C14.2689 15.8971 14.8945 15.3828 15.3343 14.7231C15.7741 14.0635 16.0084 13.2882 16.0075 12.4954C16.0063 11.4334 15.5836 10.4152 14.8321 9.66463C14.0807 8.91405 13.0621 8.49245 12 8.49245Z" fill="#EE4325"/>
<path d="M12 6.7434C11.8545 6.74429 11.712 6.70198 11.5905 6.62179C11.4691 6.54159 11.3742 6.42715 11.3179 6.29297C11.2616 6.15879 11.2464 6.0109 11.2743 5.86807C11.3021 5.72524 11.3717 5.59388 11.4743 5.49067C11.5769 5.38745 11.7078 5.31702 11.8504 5.2883C11.9931 5.25958 12.1411 5.27387 12.2756 5.32935C12.4101 5.38483 12.5252 5.47902 12.6061 5.59995C12.687 5.72088 12.7303 5.86312 12.7303 6.00864C12.7303 6.20274 12.6535 6.38895 12.5166 6.52662C12.3798 6.66429 12.1941 6.74221 12 6.7434ZM12 5.84182C11.9616 5.84289 11.9251 5.85831 11.8975 5.88502C11.87 5.91173 11.8535 5.94778 11.8512 5.98608C11.8512 6.00562 11.8551 6.02496 11.8625 6.04301C11.87 6.06105 11.881 6.07745 11.8948 6.09127C11.9086 6.10508 11.925 6.11606 11.943 6.12354C11.9611 6.13102 11.9804 6.13485 12 6.13485C12.0193 6.13486 12.0384 6.13099 12.0562 6.12346C12.074 6.11593 12.0901 6.10489 12.1036 6.09102C12.1171 6.07714 12.1276 6.0607 12.1346 6.04268C12.1415 6.02465 12.1448 6.0054 12.1442 5.98608C12.1388 5.95185 12.1213 5.92072 12.0948 5.89837C12.0683 5.87602 12.0346 5.86396 12 5.86439V5.84182Z" fill="#EE4325"/>
<path d="M15.2412 7.61343C15.1127 7.61412 14.9865 7.57982 14.8761 7.51424C14.7922 7.46661 14.7188 7.40276 14.6599 7.32643C14.601 7.25009 14.558 7.1628 14.5332 7.06964C14.5084 6.97648 14.5025 6.87932 14.5157 6.78383C14.5289 6.68834 14.561 6.59645 14.6101 6.5135C14.712 6.3504 14.8721 6.23215 15.0579 6.18276C15.2438 6.13337 15.4414 6.15652 15.6108 6.24753C15.7783 6.34545 15.9002 6.50561 15.9501 6.69309C15.9999 6.88056 15.9735 7.08015 15.8768 7.24829C15.8121 7.35946 15.7193 7.4517 15.6078 7.51578C15.4962 7.57986 15.3698 7.61353 15.2412 7.61343ZM15.2412 6.73438C15.2162 6.734 15.1916 6.74053 15.1701 6.75326C15.1487 6.76599 15.1311 6.78441 15.1195 6.8065C15.1119 6.82432 15.108 6.84349 15.108 6.86285C15.108 6.88221 15.1119 6.90137 15.1195 6.9192C15.1305 6.95636 15.1545 6.98835 15.1871 7.00936C15.2125 7.02347 15.2415 7.02983 15.2705 7.02766C15.2994 7.02548 15.3271 7.01488 15.3501 6.99714C15.3732 6.9794 15.3905 6.9553 15.3999 6.92783C15.4094 6.90037 15.4107 6.87073 15.4035 6.84257C15.3926 6.80648 15.3684 6.77587 15.3359 6.75692C15.3073 6.74016 15.2743 6.73232 15.2412 6.73438Z" fill="#EE4325"/>
<path d="M17.6169 9.98906C17.4873 9.98825 17.3603 9.95322 17.2487 9.88751C17.1371 9.8218 17.0448 9.72778 16.9813 9.61493C16.8877 9.44708 16.8636 9.24926 16.9142 9.06388C16.9648 8.8785 17.0859 8.72031 17.2517 8.62319C17.4209 8.53108 17.6189 8.5073 17.8051 8.55677C17.9912 8.60625 18.1514 8.7252 18.2525 8.88914C18.3007 8.97133 18.3319 9.06236 18.3443 9.15682C18.3567 9.25129 18.35 9.34728 18.3246 9.43912C18.2838 9.59602 18.1923 9.73502 18.0643 9.83449C17.9363 9.93396 17.779 9.98831 17.6169 9.98906ZM17.6169 9.11002C17.5932 9.10392 17.5684 9.10392 17.5447 9.11002C17.5122 9.12898 17.488 9.15959 17.4771 9.19567C17.4648 9.23222 17.4648 9.27182 17.4771 9.30837C17.4856 9.3259 17.4976 9.34147 17.5125 9.35407C17.5273 9.36667 17.5446 9.37604 17.5633 9.38156C17.582 9.38708 17.6016 9.38863 17.6209 9.38612C17.6402 9.38361 17.6588 9.37708 17.6755 9.36698C17.7103 9.34536 17.736 9.31168 17.7476 9.27233C17.7612 9.23754 17.7612 9.19893 17.7476 9.16414C17.7326 9.14431 17.7126 9.12883 17.6896 9.11932C17.6666 9.10981 17.6415 9.10659 17.6169 9.11002Z" fill="#EE4325"/>
<path d="M18.4869 13.2302C18.3413 13.2311 18.1988 13.1888 18.0774 13.1086C17.956 13.0284 17.8611 12.914 17.8048 12.7798C17.7485 12.6456 17.7333 12.4977 17.7611 12.3549C17.789 12.2121 17.8586 12.0807 17.9612 11.9775C18.0638 11.8743 18.1947 11.8039 18.3373 11.7751C18.48 11.7464 18.628 11.7607 18.7625 11.8162C18.897 11.8717 19.012 11.9658 19.093 12.0868C19.1739 12.2077 19.2171 12.3499 19.2171 12.4955C19.2171 12.6896 19.1403 12.8758 19.0035 13.0135C18.8667 13.1511 18.6809 13.229 18.4869 13.2302ZM18.4869 12.3287C18.4675 12.3281 18.4483 12.3313 18.4303 12.3383C18.4122 12.3453 18.3958 12.3558 18.3819 12.3693C18.3681 12.3828 18.357 12.3989 18.3495 12.4167C18.342 12.4345 18.3381 12.4536 18.3381 12.4729C18.3381 12.5124 18.3538 12.5502 18.3817 12.5781C18.4096 12.606 18.4474 12.6217 18.4869 12.6217C18.5213 12.6156 18.5525 12.5976 18.575 12.5708C18.5975 12.544 18.6098 12.5102 18.6098 12.4752C18.6098 12.4402 18.5975 12.4063 18.575 12.3795C18.5525 12.3527 18.5213 12.3347 18.4869 12.3287Z" fill="#EE4325"/>
<path d="M17.6168 16.4759C17.4886 16.4748 17.3629 16.4401 17.2523 16.3754C17.1416 16.3106 17.0498 16.218 16.986 16.1068C16.9222 15.9956 16.8886 15.8697 16.8885 15.7414C16.8885 15.6132 16.922 15.4872 16.9857 15.376C17.0852 15.2115 17.2445 15.0919 17.4303 15.0423C17.616 14.9928 17.8137 15.017 17.982 15.11C18.0655 15.1573 18.1389 15.2206 18.1978 15.2964C18.2567 15.3722 18.3 15.459 18.3252 15.5517C18.3504 15.6443 18.3569 15.7411 18.3444 15.8363C18.3319 15.9315 18.3006 16.0232 18.2524 16.1062C18.1879 16.218 18.0953 16.3108 17.9838 16.3757C17.8723 16.4405 17.7458 16.4751 17.6168 16.4759ZM17.6168 15.5969C17.5929 15.5958 17.5691 15.6017 17.5484 15.6136C17.5276 15.6256 17.5107 15.6433 17.4996 15.6645C17.4796 15.698 17.4735 15.7381 17.4828 15.7761C17.4921 15.814 17.5159 15.8468 17.5492 15.8673C17.5657 15.877 17.584 15.8832 17.603 15.8857C17.622 15.8882 17.6412 15.8869 17.6597 15.8818C17.6782 15.8768 17.6954 15.8681 17.7105 15.8564C17.7256 15.8446 17.7382 15.8299 17.7475 15.8133C17.7611 15.7785 17.7611 15.7398 17.7475 15.705C17.7371 15.6687 17.7128 15.638 17.6799 15.6194C17.6597 15.6062 17.6364 15.5984 17.6123 15.5969H17.6168Z" fill="#EE4325"/>
<path d="M15.2457 18.847C15.0877 18.8443 14.9349 18.7904 14.8102 18.6935C14.6855 18.5966 14.5956 18.4618 14.5539 18.3094C14.5123 18.1571 14.5212 17.9953 14.5792 17.8484C14.6373 17.7015 14.7414 17.5774 14.876 17.4947C15.0452 17.4026 15.2432 17.3788 15.4294 17.4283C15.6156 17.4777 15.7757 17.5967 15.8768 17.7606C15.9258 17.8433 15.9579 17.9349 15.9711 18.0301C15.9842 18.1254 15.9782 18.2223 15.9534 18.3151C15.9139 18.4724 15.8226 18.6117 15.6942 18.7106C15.5658 18.8096 15.4078 18.8624 15.2457 18.8606V18.847ZM15.2457 17.9455C15.2205 17.939 15.1942 17.939 15.169 17.9455C15.1527 17.9552 15.1385 17.9681 15.1272 17.9833C15.1158 17.9986 15.1076 18.0159 15.103 18.0343C15.0984 18.0528 15.0975 18.0719 15.1003 18.0907C15.1031 18.1095 15.1096 18.1276 15.1195 18.1438C15.1284 18.1604 15.1405 18.1749 15.1552 18.1866C15.1699 18.1984 15.1868 18.207 15.2049 18.2121C15.223 18.2171 15.2419 18.2184 15.2605 18.216C15.2792 18.2136 15.2971 18.2074 15.3133 18.1979C15.3309 18.1887 15.3464 18.1759 15.3588 18.1604C15.3712 18.1448 15.3802 18.1269 15.3854 18.1078C15.3908 18.0862 15.3913 18.0637 15.3869 18.0419C15.3824 18.0201 15.3732 17.9996 15.3598 17.9819C15.3464 17.9642 15.3292 17.9497 15.3094 17.9395C15.2897 17.9293 15.2679 17.9236 15.2457 17.9229V17.9455Z" fill="#EE4325"/>
<path d="M12 19.7171C11.8545 19.718 11.712 19.6756 11.5905 19.5954C11.4691 19.5152 11.3742 19.4008 11.3179 19.2666C11.2616 19.1324 11.2464 18.9846 11.2743 18.8417C11.3021 18.6989 11.3717 18.5676 11.4743 18.4643C11.5769 18.3611 11.7078 18.2907 11.8504 18.262C11.9931 18.2333 12.1411 18.2476 12.2756 18.303C12.4101 18.3585 12.5252 18.4527 12.6061 18.5736C12.687 18.6945 12.7303 18.8368 12.7303 18.9823C12.7303 19.1764 12.6535 19.3626 12.5166 19.5003C12.3798 19.6379 12.1941 19.7159 12 19.7171ZM12 18.8155C11.9616 18.8166 11.9251 18.832 11.8975 18.8587C11.87 18.8854 11.8535 18.9215 11.8512 18.9598C11.8512 18.9992 11.8669 19.037 11.8948 19.0649C11.9227 19.0928 11.9605 19.1085 12 19.1085C12.0193 19.1085 12.0384 19.1046 12.0562 19.0971C12.074 19.0896 12.0901 19.0786 12.1036 19.0647C12.1171 19.0508 12.1276 19.0344 12.1346 19.0164C12.1415 18.9983 12.1448 18.9791 12.1442 18.9598C12.1388 18.9255 12.1213 18.8944 12.0948 18.872C12.0683 18.8497 12.0346 18.8376 12 18.838V18.8155Z" fill="#EE4325"/>
<path d="M8.75433 18.847C8.62653 18.8472 8.50083 18.8146 8.3892 18.7524C8.22233 18.6528 8.10106 18.4918 8.05135 18.3039C8.00165 18.1161 8.02745 17.9162 8.12323 17.7471C8.22358 17.5823 8.38369 17.4627 8.57017 17.4131C8.75664 17.3635 8.95506 17.3879 9.12398 17.4811C9.20806 17.5299 9.28163 17.5949 9.34044 17.6722C9.39924 17.7496 9.44212 17.8379 9.46657 17.9319C9.49128 18.0241 9.49722 18.1202 9.48406 18.2147C9.47089 18.3092 9.4389 18.4 9.38995 18.4819C9.32523 18.5931 9.23246 18.6853 9.12092 18.7494C9.00937 18.8135 8.88297 18.8471 8.75433 18.847ZM8.75433 17.9455C8.72956 17.946 8.70534 17.953 8.68402 17.9656C8.6627 17.9782 8.645 17.9961 8.63261 18.0176C8.61708 18.0551 8.61708 18.0973 8.63261 18.1348C8.64521 18.17 8.66897 18.2 8.70024 18.2204C8.73459 18.2389 8.77468 18.2436 8.81237 18.2336C8.85006 18.2235 8.88251 18.1995 8.90309 18.1664C8.91028 18.1492 8.91398 18.1308 8.91398 18.1123C8.91398 18.0937 8.91028 18.0753 8.90309 18.0582C8.89282 18.0206 8.86864 17.9884 8.83547 17.968C8.80884 17.9613 8.78097 17.9613 8.75433 17.968V17.9455Z" fill="#EE4325"/>
<path d="M6.38317 16.4759C6.22727 16.4691 6.07758 16.4129 5.95577 16.3153C5.83397 16.2178 5.74638 16.084 5.7057 15.9334C5.66502 15.7827 5.67337 15.623 5.72953 15.4774C5.78568 15.3318 5.88673 15.2079 6.01804 15.1236C6.18819 15.034 6.3859 15.0122 6.57151 15.0623C6.75711 15.1125 6.91689 15.231 7.01879 15.394C7.08269 15.5056 7.11619 15.632 7.11594 15.7606C7.11569 15.8892 7.0817 16.0155 7.01736 16.1268C6.95302 16.2382 6.86059 16.3307 6.7493 16.3951C6.63802 16.4595 6.51176 16.4936 6.38317 16.4939V16.4759ZM6.38317 15.5969C6.35952 15.5908 6.3347 15.5908 6.31105 15.5969C6.29444 15.6057 6.27986 15.6178 6.26822 15.6326C6.25658 15.6473 6.24813 15.6643 6.24343 15.6825C6.23503 15.7001 6.23066 15.7194 6.23066 15.7389C6.23066 15.7584 6.23503 15.7776 6.24343 15.7952C6.25279 15.8119 6.26538 15.8266 6.28046 15.8383C6.29555 15.8501 6.31282 15.8588 6.33128 15.8638C6.34974 15.8688 6.36902 15.8702 6.38799 15.8677C6.40696 15.8652 6.42524 15.8589 6.44178 15.8493C6.45847 15.8399 6.47312 15.8274 6.48489 15.8123C6.49667 15.7972 6.50532 15.7799 6.51036 15.7615C6.51539 15.743 6.51671 15.7238 6.51422 15.7048C6.51174 15.6858 6.50549 15.6675 6.49587 15.651C6.48258 15.6338 6.46547 15.62 6.44591 15.6106C6.42635 15.6012 6.40487 15.5965 6.38317 15.5969Z" fill="#EE4325"/>
<path d="M5.51311 13.2302C5.36778 13.2302 5.22572 13.1871 5.10489 13.1064C4.98405 13.0257 4.88987 12.9109 4.83426 12.7766C4.77864 12.6424 4.76409 12.4946 4.79244 12.3521C4.82079 12.2096 4.89078 12.0786 4.99354 11.9759C5.0963 11.8731 5.22723 11.8032 5.36976 11.7748C5.5123 11.7465 5.66004 11.761 5.7943 11.8166C5.92857 11.8722 6.04332 11.9664 6.12406 12.0872C6.2048 12.2081 6.2479 12.3501 6.2479 12.4955C6.2485 12.5921 6.2299 12.6879 6.19319 12.7774C6.15647 12.8668 6.10237 12.948 6.03402 13.0164C5.96567 13.0847 5.88442 13.1388 5.795 13.1755C5.70559 13.2123 5.60977 13.2308 5.51311 13.2302ZM5.51311 12.3287C5.47866 12.3347 5.44744 12.3527 5.42496 12.3795C5.40247 12.4063 5.39015 12.4402 5.39015 12.4752C5.39015 12.5102 5.40247 12.544 5.42496 12.5708C5.44744 12.5976 5.47866 12.6156 5.51311 12.6217C5.5345 12.6255 5.55646 12.6245 5.57744 12.6189C5.59842 12.6132 5.61791 12.6031 5.63454 12.5891C5.65118 12.5752 5.66456 12.5577 5.67374 12.538C5.68291 12.5184 5.68767 12.4969 5.68767 12.4752C5.68767 12.4535 5.68291 12.432 5.67374 12.4123C5.66456 12.3926 5.65118 12.3752 5.63454 12.3612C5.61791 12.3473 5.59842 12.3371 5.57744 12.3315C5.55646 12.3259 5.5345 12.3249 5.51311 12.3287Z" fill="#EE4325"/>
<path d="M6.3832 9.98906C6.25352 9.9882 6.12624 9.95406 6.01355 9.8899C5.9303 9.84071 5.85759 9.77557 5.79957 9.69821C5.74156 9.62086 5.69938 9.5328 5.67546 9.43912C5.65064 9.34625 5.64463 9.24935 5.65779 9.15413C5.67095 9.05891 5.70302 8.96728 5.7521 8.88463C5.8235 8.75664 5.93154 8.65293 6.06234 8.58682C6.19315 8.52071 6.34072 8.49524 6.48611 8.51366C6.63151 8.53208 6.76808 8.59355 6.87827 8.69019C6.98846 8.78682 7.06723 8.91418 7.10446 9.05593C7.13007 9.14923 7.13687 9.24672 7.12449 9.34268C7.11211 9.43864 7.08079 9.53118 7.03234 9.61493C6.96728 9.72947 6.87281 9.82453 6.75868 9.89032C6.64456 9.9561 6.51492 9.99018 6.3832 9.98906ZM6.3832 9.11002C6.35766 9.10979 6.33252 9.11636 6.31034 9.12903C6.28816 9.14171 6.26975 9.16004 6.25698 9.18216C6.24352 9.21852 6.24352 9.2585 6.25698 9.29486C6.26112 9.31329 6.26935 9.33055 6.28105 9.34538C6.29276 9.3602 6.30763 9.3722 6.32459 9.38051C6.34096 9.39078 6.35929 9.39755 6.3784 9.40038C6.39751 9.40321 6.41699 9.40205 6.43563 9.39696C6.45426 9.39188 6.47165 9.38297 6.48668 9.37083C6.50171 9.35869 6.51405 9.34357 6.52294 9.32642C6.53128 9.30961 6.53563 9.29109 6.53563 9.27233C6.53563 9.25356 6.53128 9.23505 6.52294 9.21823C6.51992 9.19999 6.51264 9.18271 6.50167 9.16783C6.4907 9.15294 6.47637 9.14087 6.45984 9.13258C6.43741 9.11697 6.41051 9.10904 6.3832 9.11002Z" fill="#EE4325"/>
<path d="M8.75883 7.61343C8.63019 7.61353 8.50379 7.57986 8.39225 7.51578C8.2807 7.4517 8.18794 7.35947 8.12323 7.24829C8.07393 7.16404 8.04213 7.07072 8.02974 6.9739C8.01734 6.87708 8.02461 6.77875 8.0511 6.68481C8.07333 6.58981 8.11532 6.50055 8.17435 6.42287C8.23338 6.3452 8.30812 6.28087 8.39369 6.23402C8.56242 6.14326 8.75941 6.12022 8.94451 6.16964C9.12961 6.21905 9.28891 6.33719 9.38994 6.49997C9.43887 6.58319 9.4707 6.67533 9.48357 6.77101C9.49645 6.86668 9.49011 6.96396 9.46492 7.05715C9.43973 7.15035 9.3962 7.23758 9.33688 7.31375C9.27757 7.38991 9.20366 7.45349 9.11947 7.50073C9.0123 7.57157 8.88727 7.61065 8.75883 7.61343ZM8.75883 6.73439C8.7337 6.7279 8.70734 6.7279 8.6822 6.73439C8.6505 6.75225 8.62644 6.78112 8.61459 6.81553C8.60071 6.85181 8.60071 6.89194 8.61459 6.92822C8.62311 6.94513 8.63497 6.96014 8.64948 6.97233C8.66398 6.98451 8.6808 6.99362 8.69893 6.9991C8.71706 7.00458 8.73611 7.00632 8.75494 7.00422C8.77376 7.00211 8.79196 6.99618 8.80842 6.98683C8.84299 6.96697 8.86876 6.93475 8.88055 6.89666C8.89486 6.86046 8.89486 6.82017 8.88055 6.78397C8.86564 6.76665 8.84684 6.75313 8.82567 6.74451C8.80451 6.73589 8.78159 6.73242 8.75883 6.73439Z" fill="#EE4325"/>
</svg>
