<svg width="20" height="26" viewBox="0 0 20 26" fill="none" xmlns="http://www.w3.org/2000/svg">
<path d="M5.67098 23.2617L5.46137 22.8274L5.01979 23.0212L3.53535 23.6725L5.83111 17.4583C6.70858 17.9769 7.68016 18.3166 8.68947 18.4578L6.37594 24.7222L5.67098 23.2617Z" stroke="#EE4325"/>
<path d="M14.5291 23.0212L14.0873 22.8273L13.8778 23.2618L13.1739 24.7216L10.8606 18.4577C11.8695 18.3166 12.8407 17.9769 13.7178 17.4584L16.0135 23.6725L14.5291 23.0212Z" stroke="#EE4325"/>
<mask id="path-3-inside-1_24_32" fill="white">
<path d="M9.77442 16.3286C8.03672 16.3264 6.37086 15.635 5.14224 14.4061C3.91361 13.1773 3.22253 11.5113 3.22058 9.77356C3.22253 8.03586 3.91361 6.36987 5.14224 5.14102C6.37086 3.91216 8.03672 3.22077 9.77442 3.21849C11.5123 3.22044 13.1785 3.91169 14.4074 5.14058C15.6363 6.36948 16.3275 8.03565 16.3295 9.77356C16.3275 11.5115 15.6363 13.1777 14.4074 14.4065C13.1785 15.6354 11.5123 16.3267 9.77442 16.3286ZM9.77442 3.39562C8.0836 3.39758 6.46261 4.0702 5.26713 5.26591C4.07165 6.46162 3.39934 8.08274 3.39771 9.77356C3.39934 11.4644 4.07165 13.0855 5.26713 14.2812C6.46261 15.4769 8.0836 16.1495 9.77442 16.1515C11.4662 16.1509 13.0886 15.4788 14.2853 14.283C15.4821 13.0872 16.1553 11.4654 16.1573 9.77356C16.1566 8.08092 15.4839 6.45779 14.2871 5.26092C13.0902 4.06404 11.4671 3.39135 9.77442 3.3907V3.39562Z"/>
</mask>
<path d="M9.77442 16.3286L9.77311 17.3286L9.77555 17.3286L9.77442 16.3286ZM3.22058 9.77356L2.22058 9.77244L2.22058 9.77469L3.22058 9.77356ZM9.77442 3.21849L9.77555 2.21849L9.77311 2.21849L9.77442 3.21849ZM16.3295 9.77356L17.3295 9.77469L17.3295 9.77244L16.3295 9.77356ZM9.77442 3.39562L9.77558 4.39562L10.7744 4.39447V3.39562H9.77442ZM3.39771 9.77356L2.39771 9.7726L2.39771 9.77453L3.39771 9.77356ZM9.77442 16.1515L9.77327 17.1515L9.77481 17.1515L9.77442 16.1515ZM16.1573 9.77356L17.1573 9.77472V9.77318L16.1573 9.77356ZM9.77442 3.3907L9.77481 2.3907L8.77442 2.39032V3.3907H9.77442ZM9.77573 15.3286C8.30283 15.3267 6.89082 14.7407 5.84941 13.6991L4.43507 15.1131C5.85091 16.5293 7.77062 17.326 9.77311 17.3286L9.77573 15.3286ZM5.84941 13.6991C4.80801 12.6575 4.22224 11.2453 4.22058 9.77244L2.22058 9.77469C2.22283 11.7772 3.01922 13.697 4.43507 15.1131L5.84941 13.6991ZM4.22058 9.77469C4.22224 8.30178 4.80801 6.88966 5.84941 5.84806L4.43507 4.43398C3.01922 5.85009 2.22283 7.76994 2.22058 9.77244L4.22058 9.77469ZM5.84941 5.84806C6.89082 4.80646 8.30283 4.22042 9.77573 4.21849L9.77311 2.21849C7.77062 2.22112 5.85091 3.01786 4.43507 4.43398L5.84941 5.84806ZM9.7733 4.21849C11.2464 4.22015 12.6587 4.80606 13.7003 5.84769L15.1145 4.43348C13.6984 3.01733 11.7783 2.22074 9.77555 2.21849L9.7733 4.21849ZM13.7003 5.84769C14.7419 6.88932 15.3278 8.3016 15.3295 9.77469L17.3295 9.77244C17.3272 7.7697 16.5307 5.84963 15.1145 4.43348L13.7003 5.84769ZM15.3295 9.77244C15.3278 11.2455 14.7419 12.6578 13.7003 13.6994L15.1145 15.1136C16.5307 13.6975 17.3272 11.7774 17.3295 9.77469L15.3295 9.77244ZM13.7003 13.6994C12.6587 14.7411 11.2464 15.327 9.7733 15.3286L9.77555 17.3286C11.7783 17.3264 13.6984 16.5298 15.1145 15.1136L13.7003 13.6994ZM9.77327 2.39562C7.8176 2.39788 5.94269 3.17587 4.55996 4.55887L5.97431 5.97295C6.98252 4.96453 8.3496 4.39727 9.77558 4.39562L9.77327 2.39562ZM4.55996 4.55887C3.17722 5.94187 2.3996 7.81693 2.39771 9.7726L4.39771 9.77453C4.39908 8.34855 4.96609 6.98136 5.97431 5.97295L4.55996 4.55887ZM2.39771 9.77453C2.3996 11.7302 3.17722 13.6053 4.55996 14.9883L5.97431 13.5742C4.96609 12.5658 4.39908 11.1986 4.39771 9.7726L2.39771 9.77453ZM4.55996 14.9883C5.94269 16.3713 7.8176 17.1492 9.77327 17.1515L9.77558 15.1515C8.3496 15.1499 6.98252 14.5826 5.97431 13.5742L4.55996 14.9883ZM9.77481 17.1515C11.7315 17.1507 13.608 16.3735 14.9922 14.9904L13.5785 13.5756C12.5692 14.5842 11.2009 15.151 9.77404 15.1515L9.77481 17.1515ZM14.9922 14.9904C16.3763 13.6073 17.155 11.7315 17.1573 9.77472L15.1573 9.77241C15.1556 11.1992 14.5878 12.5671 13.5785 13.5756L14.9922 14.9904ZM17.1573 9.77318C17.1565 7.81546 16.3785 5.93813 14.9942 4.55381L13.58 5.96802C14.5894 6.97746 15.1567 8.34639 15.1573 9.77395L17.1573 9.77318ZM14.9942 4.55381C13.6099 3.16949 11.7325 2.39145 9.77481 2.3907L9.77404 4.3907C11.2016 4.39125 12.5705 4.95859 13.58 5.96802L14.9942 4.55381ZM8.77442 3.3907V3.39562H10.7744V3.3907H8.77442Z" fill="#EE4325" mask="url(#path-3-inside-1_24_32)"/>
<mask id="path-5-outside-2_24_32" maskUnits="userSpaceOnUse" x="0" y="0.000564575" width="20" height="20" fill="black">
<rect fill="white" y="0.000564575" width="20" height="20"/>
<path d="M18.5264 11.3259C18.4902 11.0914 18.4096 10.866 18.289 10.6617C18.2435 10.5842 18.1931 10.5153 18.1439 10.4476C18.0438 10.3262 17.9671 10.1874 17.9175 10.038C17.8557 9.81469 17.8735 9.57679 17.968 9.36518C18.0208 9.25702 18.0856 9.15511 18.1611 9.06134C18.2383 8.96355 18.3059 8.85851 18.3628 8.74768C18.4725 8.52157 18.5349 8.27543 18.5461 8.02436C18.5574 7.77328 18.5172 7.52256 18.428 7.28758C18.334 7.04127 18.1915 6.81636 18.009 6.62619C17.8264 6.43602 17.6075 6.28446 17.3652 6.18051C17.102 6.06734 16.6604 5.79304 16.6616 5.22228C16.6616 5.13495 16.6715 5.05007 16.6813 4.96028C16.6997 4.83075 16.7051 4.6997 16.6973 4.56911C16.6742 4.2914 16.5902 4.02218 16.4513 3.78064C16.3175 3.55201 16.1371 3.35412 15.9217 3.19983C15.7064 3.04554 15.461 2.93832 15.2015 2.88514C15.0095 2.85498 14.8144 2.84919 14.6209 2.86792C14.3429 2.88268 14.0809 2.89744 13.8337 2.75475C13.5864 2.61206 13.4647 2.37835 13.3416 2.12987C13.2594 1.94954 13.1544 1.78047 13.0292 1.62677C12.6942 1.25669 12.2273 1.03277 11.729 1.00312C11.2439 0.977863 10.7677 1.14041 10.3993 1.45702C10.2173 1.59971 9.72277 1.87771 9.06591 1.38076C8.85713 1.2242 8.6182 1.11255 8.36416 1.05285C8.11012 0.993156 7.84647 0.986693 7.58982 1.03387C7.09849 1.12684 6.66361 1.40969 6.37942 1.82112C6.31015 1.92739 6.25164 2.0403 6.20475 2.15817C6.17249 2.23678 6.13594 2.31357 6.09527 2.38819C5.97835 2.59105 5.79434 2.74678 5.57495 2.82855C5.3915 2.88739 5.19661 2.90132 5.00666 2.86915C4.72399 2.82895 4.43596 2.8512 4.16282 2.93434C3.91244 3.01697 3.68181 3.15041 3.48539 3.32631C3.28896 3.5022 3.13097 3.71675 3.02131 3.95654C2.91033 4.20112 2.85287 4.46659 2.85279 4.73517C2.85279 4.82743 2.86386 4.91722 2.87247 5.00456C2.89583 5.14464 2.89583 5.28762 2.87247 5.4277C2.82791 5.63461 2.71999 5.8225 2.56372 5.96525C2.45323 6.05564 2.32854 6.12713 2.1947 6.17682C2.11495 6.20968 2.03694 6.24663 1.96099 6.28753C1.74128 6.41318 1.5493 6.58206 1.39666 6.78396C1.24402 6.98586 1.13388 7.2166 1.07287 7.46225C1.00714 7.70791 0.992105 7.96438 1.02869 8.21603C1.06528 8.46769 1.15271 8.70927 1.28568 8.92604C1.32627 8.99123 1.36932 9.04904 1.40869 9.10932C1.5086 9.22925 1.58497 9.36697 1.63379 9.51524C1.70114 9.76587 1.66943 10.0328 1.54522 10.2607C1.49802 10.342 1.44542 10.4201 1.38777 10.4944C1.31096 10.5913 1.24381 10.6956 1.18727 10.8056C1.07223 11.047 1.00856 11.3096 1.0003 11.5768C0.99147 12.0744 1.1778 12.5557 1.51939 12.9176C1.68993 13.0818 1.88869 13.2139 2.10614 13.3076C2.31679 13.3932 2.50676 13.5228 2.66336 13.6877C2.88969 13.962 2.87616 14.2363 2.86017 14.5487C2.84788 14.7039 2.84788 14.8598 2.86017 15.0149C2.88982 15.2816 2.97563 15.539 3.11196 15.7701C3.24829 16.0012 3.43204 16.2008 3.65111 16.3557C4.14314 16.7001 4.64625 16.705 5.08046 16.6632C5.30264 16.6372 5.52726 16.6839 5.72065 16.7964C5.91403 16.9088 6.06576 17.0809 6.15309 17.2869C6.3991 17.8269 6.68817 18.1553 7.10762 18.3533C7.33732 18.464 7.58694 18.5272 7.84161 18.5393C8.09627 18.5513 8.35076 18.5119 8.58987 18.4235C8.75711 18.3535 8.9163 18.2656 9.06467 18.1614C9.32053 17.9954 9.55671 17.8392 9.89252 17.8798C10.1299 17.927 10.3528 18.0294 10.5432 18.1787C10.7348 18.3204 10.9502 18.4266 11.1792 18.4923C11.3228 18.5256 11.4697 18.5425 11.6171 18.5428C11.9643 18.5427 12.3048 18.447 12.6011 18.266C12.8158 18.133 13.0019 17.9586 13.1485 17.7531C13.2238 17.6414 13.2872 17.5223 13.338 17.3976C13.3775 17.3037 13.4231 17.2125 13.4745 17.1245C13.7033 16.7555 14.0514 16.6325 14.6394 16.6878C14.9018 16.7109 15.1662 16.6791 15.4157 16.5944C15.6652 16.5097 15.8943 16.3739 16.0884 16.1958C16.2809 16.0191 16.4345 15.8043 16.5394 15.565C16.6442 15.3256 16.698 15.0671 16.6973 14.8058C16.6955 14.7165 16.6885 14.6274 16.6764 14.5389C16.6543 14.4096 16.6518 14.2777 16.669 14.1477C16.7099 13.9148 16.8314 13.7036 17.0122 13.5511C17.1168 13.4717 17.2324 13.4078 17.3554 13.3617C17.4316 13.3285 17.5104 13.2953 17.5879 13.2522C17.8214 13.1193 18.024 12.9382 18.182 12.7208C18.4744 12.3186 18.598 11.818 18.5264 11.3259ZM17.4304 11.3358C17.4186 11.3892 17.3861 11.4359 17.34 11.4654C17.2939 11.4949 17.2379 11.5049 17.1844 11.4932C17.1578 11.4875 17.1327 11.4766 17.1103 11.4612C17.088 11.4457 17.069 11.4259 17.0543 11.4031C17.0397 11.3802 17.0297 11.3546 17.025 11.3279C17.0203 11.3011 17.021 11.2737 17.027 11.2472C17.0387 11.1937 17.0712 11.1471 17.1174 11.1176C17.1635 11.088 17.2195 11.078 17.273 11.0897C17.3265 11.1015 17.3731 11.134 17.4026 11.1802C17.4321 11.2263 17.4421 11.2823 17.4304 11.3358ZM16.7895 13.0948C16.7839 13.1213 16.773 13.1465 16.7575 13.1688C16.742 13.1912 16.7223 13.2102 16.6994 13.2248C16.6765 13.2395 16.651 13.2494 16.6242 13.2541C16.5975 13.2588 16.57 13.2582 16.5435 13.2522C16.517 13.2465 16.4918 13.2356 16.4695 13.2202C16.4471 13.2047 16.4281 13.1849 16.4135 13.1621C16.3988 13.1392 16.3889 13.1136 16.3842 13.0869C16.3795 13.0601 16.3801 13.0327 16.3861 13.0062C16.3918 12.9796 16.4027 12.9545 16.4181 12.9321C16.4336 12.9098 16.4534 12.8908 16.4762 12.8761C16.4991 12.8615 16.5247 12.8515 16.5514 12.8468C16.5782 12.8421 16.6056 12.8428 16.6321 12.8488C16.6587 12.8544 16.6838 12.8653 16.7062 12.8808C16.7285 12.8963 16.7475 12.916 16.7622 12.9389C16.7768 12.9618 16.7868 12.9873 16.7915 13.0141C16.7962 13.0408 16.7955 13.0683 16.7895 13.0948ZM15.6899 14.8648C15.6842 14.8914 15.6733 14.9167 15.6578 14.939C15.6424 14.9614 15.6227 14.9805 15.5998 14.9953C15.5769 15.01 15.5514 15.0201 15.5246 15.0249C15.4979 15.0298 15.4704 15.0293 15.4438 15.0235C15.3905 15.0115 15.3441 14.9789 15.3146 14.9328C15.2852 14.8868 15.275 14.831 15.2864 14.7775C15.2982 14.724 15.3307 14.6774 15.3768 14.6479C15.4229 14.6183 15.4789 14.6083 15.5324 14.6201C15.5856 14.6318 15.632 14.6642 15.6615 14.71C15.691 14.7559 15.7012 14.8115 15.6899 14.8648ZM14.1129 16.1724C14.1072 16.199 14.0963 16.2241 14.0809 16.2465C14.0654 16.2688 14.0456 16.2878 14.0228 16.3025C13.9999 16.3171 13.9743 16.3271 13.9476 16.3318C13.9208 16.3365 13.8934 16.3358 13.8669 16.3299C13.8403 16.3242 13.8152 16.3133 13.7928 16.2978C13.7705 16.2823 13.7515 16.2626 13.7368 16.2397C13.7222 16.2168 13.7122 16.1913 13.7075 16.1645C13.7028 16.1378 13.7035 16.1103 13.7094 16.0838C13.7212 16.0304 13.7537 15.9837 13.7999 15.9542C13.846 15.9247 13.902 15.9147 13.9555 15.9264C13.982 15.9321 14.0072 15.943 14.0295 15.9584C14.0518 15.9739 14.0709 15.9937 14.0855 16.0165C14.1002 16.0394 14.1101 16.065 14.1148 16.0917C14.1195 16.1185 14.1189 16.1459 14.1129 16.1724ZM12.2075 17.0716C12.1955 17.1249 12.1629 17.1713 12.1168 17.2008C12.0708 17.2303 12.015 17.2404 11.9615 17.229C11.9349 17.2234 11.9097 17.2125 11.8873 17.197C11.8649 17.1816 11.8458 17.1618 11.8311 17.139C11.8163 17.1161 11.8063 17.0906 11.8014 17.0638C11.7966 17.0371 11.797 17.0096 11.8028 16.983C11.8146 16.9295 11.8471 16.8829 11.8932 16.8534C11.9394 16.8239 11.9953 16.8139 12.0488 16.8256C12.0754 16.8313 12.1006 16.8422 12.123 16.8576C12.1454 16.8731 12.1645 16.8928 12.1793 16.9157C12.194 16.9385 12.2041 16.964 12.2089 16.9908C12.2138 17.0176 12.2133 17.045 12.2075 17.0716ZM9.62436 17.5722C9.58249 17.5369 9.55629 17.4864 9.55145 17.4318C9.54661 17.3772 9.56353 17.3229 9.59853 17.2807C9.6339 17.2388 9.68438 17.2126 9.73897 17.2078C9.79357 17.203 9.84787 17.2199 9.89005 17.2549C9.93192 17.2903 9.95813 17.3407 9.96297 17.3953C9.9678 17.4499 9.95088 17.5042 9.91589 17.5464C9.89844 17.5676 9.87693 17.5852 9.85262 17.598C9.82831 17.6108 9.80169 17.6187 9.77432 17.6211C9.74694 17.6235 9.71936 17.6204 9.69319 17.612C9.66702 17.6036 9.64278 17.5901 9.6219 17.5722H9.62436ZM7.59104 17.229C7.53754 17.2408 7.48158 17.2308 7.43545 17.2012C7.38933 17.1717 7.3568 17.1251 7.34503 17.0716C7.33906 17.0451 7.33841 17.0177 7.34311 16.9909C7.34781 16.9642 7.35777 16.9386 7.37241 16.9157C7.38705 16.8929 7.40609 16.8731 7.42842 16.8576C7.45074 16.8422 7.47592 16.8313 7.50248 16.8256C7.52898 16.8196 7.5564 16.819 7.58316 16.8237C7.60991 16.8284 7.63547 16.8383 7.65835 16.853C7.68123 16.8676 7.70097 16.8866 7.71645 16.909C7.73192 16.9313 7.74282 16.9565 7.7485 16.983C7.75443 17.0097 7.75499 17.0373 7.75014 17.0642C7.74528 17.0911 7.73511 17.1167 7.72022 17.1396C7.70533 17.1625 7.68601 17.1823 7.66341 17.1976C7.64081 17.213 7.61537 17.2236 7.58858 17.229H7.59104ZM5.68443 16.3299C5.63093 16.3416 5.57497 16.3316 5.52884 16.302C5.48271 16.2725 5.45018 16.2259 5.43841 16.1724C5.43263 16.1458 5.43215 16.1184 5.437 16.0916C5.44185 16.0649 5.45194 16.0393 5.46668 16.0165C5.48142 15.9936 5.50053 15.9739 5.52291 15.9584C5.54529 15.943 5.5705 15.9321 5.59709 15.9264C5.65056 15.915 5.70637 15.9252 5.75241 15.9546C5.79846 15.9841 5.83104 16.0305 5.84311 16.0838C5.84886 16.1106 5.84924 16.1382 5.84424 16.1651C5.83923 16.192 5.82893 16.2176 5.81394 16.2405C5.79895 16.2634 5.77957 16.2831 5.75691 16.2984C5.73426 16.3138 5.70878 16.3244 5.68197 16.3299H5.68443ZM4.10255 15.0235C4.04891 15.0349 3.99295 15.0245 3.94688 14.9948C3.9008 14.9651 3.86833 14.9184 3.85654 14.8648C3.84516 14.8114 3.8553 14.7556 3.88477 14.7095C3.91424 14.6635 3.96066 14.6309 4.01398 14.6188C4.06746 14.6075 4.12326 14.6176 4.1693 14.6471C4.21535 14.6765 4.24793 14.723 4.26 14.7763C4.27141 14.8299 4.26129 14.8859 4.23185 14.9321C4.2024 14.9783 4.15597 15.0112 4.10255 15.0235ZM3.00409 13.2522C2.95059 13.2639 2.89463 13.2539 2.8485 13.2244C2.80237 13.1949 2.76985 13.1483 2.75808 13.0948C2.7523 13.0682 2.75182 13.0407 2.75667 13.014C2.76152 12.9872 2.7716 12.9617 2.78634 12.9388C2.80108 12.916 2.82019 12.8962 2.84257 12.8808C2.86495 12.8653 2.89016 12.8544 2.91676 12.8488C2.97026 12.837 3.02622 12.847 3.07235 12.8766C3.11848 12.9061 3.151 12.9527 3.16277 13.0062C3.17452 13.0595 3.16468 13.1153 3.13541 13.1614C3.10614 13.2075 3.05981 13.2402 3.00655 13.2522H3.00409ZM2.91061 6.8263C2.87523 6.86817 2.82476 6.89437 2.77016 6.89921C2.71556 6.90405 2.66126 6.88713 2.61908 6.85213C2.5983 6.83462 2.58117 6.81319 2.56868 6.78905C2.5562 6.76491 2.5486 6.73855 2.54631 6.71147C2.54403 6.68439 2.5471 6.65713 2.55537 6.63124C2.56363 6.60535 2.57692 6.58135 2.59448 6.5606C2.6119 6.53973 2.63327 6.5225 2.65737 6.50991C2.68146 6.49731 2.7078 6.48959 2.73488 6.48719C2.76196 6.48479 2.78925 6.48776 2.81518 6.49592C2.84112 6.50409 2.86518 6.51729 2.886 6.53477C2.90697 6.55211 2.9243 6.57341 2.93701 6.59746C2.94972 6.62151 2.95755 6.64783 2.96007 6.67492C2.96258 6.702 2.95973 6.72932 2.95166 6.75529C2.94359 6.78127 2.93048 6.8054 2.91307 6.8263H2.91061ZM3.34851 5.2272C3.36602 5.20642 3.38746 5.1893 3.4116 5.17681C3.43573 5.16432 3.4621 5.15672 3.48918 5.15443C3.51625 5.15215 3.54352 5.15522 3.56941 5.16349C3.5953 5.17176 3.6193 5.18505 3.64004 5.2026C3.68191 5.23798 3.70811 5.28845 3.71295 5.34305C3.71779 5.39765 3.70087 5.45194 3.66587 5.49413C3.64837 5.51491 3.62693 5.53203 3.60279 5.54452C3.57865 5.55701 3.55229 5.56461 3.52521 5.5669C3.49813 5.56918 3.47087 5.56611 3.44498 5.55784C3.41909 5.54957 3.39509 5.53628 3.37434 5.51873C3.35329 5.50111 3.33596 5.47947 3.32336 5.45507C3.31077 5.43067 3.30316 5.40401 3.30098 5.37664C3.29881 5.34927 3.30211 5.32174 3.31069 5.29566C3.31927 5.26958 3.33297 5.24547 3.35098 5.22474L3.34851 5.2272ZM4.26246 4.14105C4.27979 4.12003 4.30112 4.10268 4.32521 4.08999C4.34931 4.07729 4.37569 4.06952 4.40282 4.06711C4.42994 4.06471 4.45728 4.06773 4.48323 4.07598C4.50918 4.08424 4.53324 4.09758 4.55399 4.11522C4.57477 4.13273 4.5919 4.15416 4.60438 4.1783C4.61687 4.20243 4.62447 4.2288 4.62676 4.25587C4.62904 4.28295 4.62597 4.31022 4.6177 4.33611C4.60944 4.36199 4.59614 4.386 4.57859 4.40674C4.56108 4.42753 4.53964 4.44465 4.5155 4.45714C4.49137 4.46962 4.46501 4.47723 4.43793 4.47951C4.41085 4.4818 4.38359 4.47872 4.3577 4.47045C4.33181 4.46219 4.30781 4.4489 4.28706 4.43134C4.26613 4.41374 4.24893 4.39214 4.23646 4.3678C4.22399 4.34347 4.2165 4.31689 4.21444 4.28962C4.21238 4.26235 4.21578 4.23495 4.22445 4.20901C4.23312 4.18308 4.24688 4.15913 4.26492 4.13858L4.26246 4.14105ZM5.47777 3.13116C5.4952 3.11028 5.51657 3.09305 5.54066 3.08046C5.56476 3.06786 5.59109 3.06014 5.61818 3.05774C5.64526 3.05534 5.67255 3.05831 5.69848 3.06647C5.72441 3.07464 5.74848 3.08784 5.7693 3.10532C5.79008 3.12283 5.80721 3.14427 5.8197 3.16841C5.83218 3.19254 5.83979 3.2189 5.84207 3.24598C5.84436 3.27306 5.84128 3.30033 5.83301 3.32622C5.82475 3.3521 5.81146 3.3761 5.7939 3.39685C5.77639 3.41763 5.75496 3.43476 5.73082 3.44724C5.70668 3.45973 5.68032 3.46734 5.65324 3.46962C5.62616 3.47191 5.5989 3.46883 5.57301 3.46056C5.54713 3.45229 5.52312 3.43901 5.50238 3.42145C5.48145 3.40385 5.46424 3.38225 5.45177 3.35791C5.4393 3.33358 5.43182 3.30699 5.42976 3.27973C5.4277 3.25246 5.4311 3.22505 5.43977 3.19912C5.44843 3.17318 5.46219 3.14924 5.48024 3.12869L5.47777 3.13116ZM6.82225 2.49028C6.83976 2.4695 6.86119 2.45238 6.88533 2.43989C6.90947 2.4274 6.93583 2.4198 6.96291 2.41751C6.98999 2.41523 7.01725 2.41831 7.04314 2.42657C7.06903 2.43484 7.09303 2.44813 7.11378 2.46568C7.13456 2.48319 7.15168 2.50463 7.16417 2.52876C7.17666 2.5529 7.18426 2.57926 7.18655 2.60634C7.18883 2.63342 7.18575 2.66069 7.17749 2.68657C7.16922 2.71246 7.15593 2.73647 7.13838 2.75721C7.12087 2.77799 7.09943 2.79512 7.07529 2.8076C7.05116 2.82009 7.0248 2.8277 6.99772 2.82998C6.97064 2.83227 6.94337 2.82919 6.91749 2.82092C6.8916 2.81266 6.86759 2.79937 6.84685 2.78181C6.82588 2.7641 6.80865 2.74239 6.79617 2.71795C6.78368 2.69351 6.77619 2.66683 6.77413 2.63946C6.77207 2.61209 6.77548 2.58459 6.78416 2.55856C6.79285 2.53252 6.80663 2.50848 6.82471 2.48782L6.82225 2.49028ZM8.20854 2.12126C8.22594 2.10052 8.24727 2.08342 8.2713 2.07095C8.29534 2.05848 8.3216 2.05088 8.34857 2.0486C8.37555 2.04631 8.40272 2.04938 8.42851 2.05763C8.45429 2.06588 8.4782 2.07914 8.49884 2.09666C8.51985 2.11399 8.53721 2.13532 8.5499 2.15942C8.56259 2.18351 8.57037 2.20989 8.57277 2.23702C8.57518 2.26415 8.57216 2.29148 8.5639 2.31743C8.55564 2.34338 8.54231 2.36744 8.52467 2.38819C8.50716 2.40897 8.48573 2.42609 8.46159 2.43858C8.43745 2.45107 8.41109 2.45867 8.38401 2.46096C8.35693 2.46324 8.32967 2.46017 8.30378 2.4519C8.27789 2.44363 8.25389 2.43034 8.23314 2.41279C8.21218 2.39508 8.19495 2.37337 8.18246 2.34893C8.16998 2.32449 8.16249 2.2978 8.16043 2.27044C8.15836 2.24307 8.16178 2.21557 8.17046 2.18953C8.17914 2.1635 8.19292 2.13945 8.211 2.1188L8.20854 2.12126ZM11.0451 2.09666C11.0658 2.07911 11.0898 2.06582 11.1157 2.05755C11.1416 2.04928 11.1689 2.04621 11.196 2.04849C11.223 2.05078 11.2494 2.05838 11.2735 2.07087C11.2977 2.08336 11.3191 2.10048 11.3366 2.12126C11.3543 2.14201 11.3676 2.16607 11.3759 2.19202C11.3841 2.21797 11.3871 2.24531 11.3847 2.27243C11.3823 2.29956 11.3745 2.32594 11.3619 2.35003C11.3492 2.37413 11.3318 2.39546 11.3108 2.41279C11.2901 2.43031 11.2662 2.44357 11.2405 2.45182C11.2147 2.46007 11.1875 2.46314 11.1605 2.46085C11.1335 2.45857 11.1073 2.45097 11.0833 2.4385C11.0592 2.42603 11.0379 2.40893 11.0205 2.38819C11.0027 2.36723 10.9893 2.34293 10.981 2.31671C10.9727 2.29049 10.9697 2.26289 10.9723 2.23551C10.9748 2.20813 10.9827 2.18153 10.9957 2.15726C11.0086 2.133 11.0262 2.11156 11.0476 2.0942L11.0451 2.09666ZM12.4314 2.46568C12.4521 2.44813 12.4761 2.43484 12.502 2.42657C12.5279 2.41831 12.5552 2.41523 12.5823 2.41751C12.6093 2.4198 12.6357 2.4274 12.6598 2.43989C12.684 2.45238 12.7054 2.4695 12.7229 2.49028C12.7579 2.53247 12.7748 2.58677 12.77 2.64136C12.7652 2.69596 12.739 2.74644 12.6971 2.78181C12.6763 2.79937 12.6523 2.81266 12.6264 2.82092C12.6006 2.82919 12.5733 2.83227 12.5462 2.82998C12.5191 2.8277 12.4928 2.82009 12.4686 2.8076C12.4445 2.79512 12.4231 2.77799 12.4056 2.75721C12.3878 2.73617 12.3745 2.71181 12.3663 2.68555C12.3581 2.65928 12.3553 2.63165 12.3579 2.60427C12.3605 2.57689 12.3686 2.55031 12.3817 2.52609C12.3947 2.50187 12.4124 2.48049 12.4339 2.46322L12.4314 2.46568ZM13.7759 3.10532C13.7967 3.08784 13.8208 3.07464 13.8467 3.06647C13.8726 3.05831 13.8999 3.05534 13.927 3.05774C13.9541 3.06014 13.9804 3.06786 14.0045 3.08046C14.0286 3.09305 14.05 3.11028 14.0674 3.13116C14.1023 3.17314 14.1192 3.22723 14.1144 3.28163C14.1095 3.33603 14.0833 3.3863 14.0416 3.42145C14.0208 3.43901 13.9968 3.45229 13.9709 3.46056C13.945 3.46883 13.9178 3.47191 13.8907 3.46962C13.8636 3.46734 13.8373 3.45973 13.8131 3.44724C13.789 3.43476 13.7675 3.41763 13.75 3.39685C13.7325 3.37574 13.7193 3.35136 13.7112 3.32512C13.7031 3.29888 13.7003 3.2713 13.7029 3.24396C13.7055 3.21663 13.7135 3.19008 13.7265 3.16586C13.7394 3.14165 13.7571 3.12023 13.7783 3.10286L13.7759 3.10532ZM15.9039 5.19645C15.9246 5.17889 15.9486 5.16561 15.9745 5.15734C16.0004 5.14908 16.0277 5.146 16.0548 5.14828C16.0818 5.15057 16.1082 5.15817 16.1323 5.17066C16.1565 5.18314 16.1779 5.20027 16.1954 5.22105C16.213 5.2418 16.2263 5.2658 16.2345 5.29169C16.2428 5.31758 16.2459 5.34484 16.2436 5.37192C16.2413 5.399 16.2337 5.42536 16.2212 5.4495C16.2087 5.47363 16.1916 5.49507 16.1708 5.51258C16.1501 5.53013 16.1261 5.54342 16.1002 5.55169C16.0743 5.55995 16.047 5.56303 16.02 5.56075C15.9929 5.55846 15.9665 5.55086 15.9424 5.53837C15.9182 5.52589 15.8968 5.50876 15.8793 5.48798C15.8458 5.44538 15.8304 5.39135 15.8364 5.33752C15.8424 5.28369 15.8693 5.23435 15.9113 5.20014L15.9039 5.19645ZM16.6592 6.53108C16.68 6.5136 16.704 6.5004 16.73 6.49223C16.7559 6.48407 16.7832 6.4811 16.8103 6.4835C16.8374 6.4859 16.8637 6.49362 16.8878 6.50622C16.9119 6.51881 16.9333 6.53604 16.9507 6.55691C16.9682 6.57773 16.9814 6.6018 16.9895 6.62773C16.9977 6.65367 17.0007 6.68095 16.9983 6.70804C16.9959 6.73512 16.9882 6.76146 16.9756 6.78555C16.963 6.80965 16.9457 6.83102 16.9249 6.84844C16.8827 6.88344 16.8284 6.90036 16.7738 6.89552C16.7192 6.89068 16.6687 6.86448 16.6333 6.82261C16.5998 6.78035 16.5839 6.72668 16.5892 6.67296C16.5945 6.61925 16.6205 6.56969 16.6616 6.53477L16.6592 6.53108ZM17.0934 8.00717C17.114 7.98965 17.1379 7.97639 17.1637 7.96814C17.1895 7.95989 17.2167 7.95682 17.2436 7.95911C17.2706 7.96139 17.2969 7.96899 17.3209 7.98146C17.3449 7.99393 17.3663 8.01103 17.3837 8.03178C17.4012 8.05252 17.4145 8.07652 17.4228 8.10241C17.431 8.1283 17.4341 8.15556 17.4318 8.18264C17.4296 8.20972 17.422 8.23608 17.4095 8.26022C17.397 8.28436 17.3799 8.30579 17.3591 8.3233C17.3383 8.34086 17.3143 8.35415 17.2884 8.36241C17.2626 8.37068 17.2353 8.37375 17.2082 8.37147C17.1811 8.36918 17.1548 8.36158 17.1306 8.3491C17.1065 8.33661 17.0851 8.31948 17.0675 8.2987C17.0337 8.25676 17.0178 8.20322 17.0231 8.14961C17.0283 8.096 17.0545 8.04662 17.0958 8.01209L17.0934 8.00717ZM16.9433 9.76864C16.941 11.6699 16.1847 13.4926 14.8404 14.837C13.496 16.1814 11.6732 16.9377 9.77197 16.94C7.87071 16.9377 6.04798 16.1814 4.70358 14.837C3.35919 13.4926 2.60291 11.6699 2.60063 9.76864C2.60291 7.86738 3.35919 6.04465 4.70358 4.70026C6.04798 3.35586 7.87071 2.59958 9.77197 2.5973C11.6746 2.5986 13.4989 3.35517 14.844 4.70077C16.1892 6.04636 16.9451 7.87093 16.9458 9.77356L16.9433 9.76864ZM15.2569 4.42396C15.2361 4.44152 15.2121 4.45481 15.1862 4.46307C15.1603 4.47134 15.1331 4.47442 15.106 4.47213C15.0789 4.46985 15.0526 4.46224 15.0284 4.44976C15.0043 4.43727 14.9829 4.42015 14.9653 4.39936C14.9303 4.35718 14.9134 4.30288 14.9183 4.24828C14.9231 4.19368 14.9493 4.14321 14.9912 4.10783C15.0119 4.09019 15.036 4.07686 15.0619 4.0686C15.0879 4.06035 15.1152 4.05733 15.1423 4.05973C15.1695 4.06214 15.1959 4.06991 15.2199 4.08261C15.244 4.0953 15.2654 4.11265 15.2827 4.13367C15.3011 4.15435 15.3151 4.17852 15.3238 4.20474C15.3326 4.23096 15.336 4.25868 15.3339 4.28625C15.3317 4.31382 15.324 4.34066 15.3111 4.36517C15.2983 4.38968 15.2807 4.41135 15.2593 4.42888L15.2569 4.42396ZM9.91097 2.26149C9.89346 2.28227 9.87202 2.2994 9.84788 2.31188C9.82375 2.32437 9.79738 2.33198 9.7703 2.33426C9.74323 2.33655 9.71596 2.33347 9.69008 2.3252C9.66419 2.31694 9.64018 2.30365 9.61944 2.28609C9.57757 2.25072 9.55136 2.20024 9.54653 2.14564C9.54169 2.09105 9.55861 2.03675 9.59361 1.99456C9.61112 1.97378 9.63255 1.95666 9.65669 1.94417C9.68083 1.93168 9.70719 1.92408 9.73427 1.92179C9.76135 1.91951 9.78861 1.92259 9.8145 1.93085C9.84039 1.93912 9.86439 1.95241 9.88514 1.96996C9.90677 1.98736 9.92469 2.0089 9.93786 2.03333C9.95103 2.05777 9.95918 2.08459 9.96181 2.11222C9.96445 2.13985 9.96153 2.16773 9.95322 2.19421C9.94491 2.22069 9.93138 2.24524 9.91343 2.26641L9.91097 2.26149ZM2.47762 8.2987C2.46011 8.31948 2.43867 8.33661 2.41454 8.3491C2.3904 8.36158 2.36404 8.36918 2.33696 8.37147C2.30988 8.37375 2.28262 8.37068 2.25673 8.36241C2.23084 8.35415 2.20684 8.34086 2.18609 8.3233C2.16522 8.30588 2.14799 8.28451 2.13539 8.26042C2.1228 8.23632 2.11508 8.20998 2.11268 8.1829C2.11028 8.15582 2.11325 8.12853 2.12141 8.1026C2.12958 8.07666 2.14278 8.0526 2.16026 8.03178C2.17777 8.01099 2.19921 7.99387 2.22334 7.98138C2.24748 7.96889 2.27384 7.96129 2.30092 7.95901C2.328 7.95672 2.35527 7.9598 2.38115 7.96806C2.40704 7.97633 2.43104 7.98962 2.45179 8.00717C2.47342 8.02456 2.49135 8.04611 2.50452 8.07055C2.51769 8.09498 2.52583 8.1218 2.52846 8.14943C2.5311 8.17706 2.52818 8.20494 2.51987 8.23142C2.51156 8.2579 2.49803 8.28245 2.48008 8.30362L2.47762 8.2987ZM2.24514 9.40577C2.26592 9.42328 2.28304 9.44471 2.29553 9.46885C2.30802 9.49299 2.31562 9.51935 2.3179 9.54643C2.32019 9.57351 2.31711 9.60077 2.30885 9.62666C2.30058 9.65254 2.28729 9.67655 2.26974 9.6973C2.25223 9.71808 2.23079 9.7352 2.20665 9.74769C2.18252 9.76018 2.15616 9.76778 2.12908 9.77006C2.102 9.77235 2.07473 9.76927 2.04884 9.76101C2.02296 9.75274 1.99896 9.73945 1.97821 9.72189C1.95747 9.70449 1.94037 9.68317 1.9279 9.65914C1.91543 9.6351 1.90783 9.60884 1.90554 9.58187C1.90326 9.55489 1.90633 9.52772 1.91458 9.50193C1.92282 9.47614 1.93609 9.45224 1.95361 9.4316C1.97113 9.4104 1.99273 9.39294 2.01714 9.38024C2.04154 9.36755 2.06824 9.35989 2.09566 9.35771C2.12307 9.35553 2.15065 9.35888 2.17675 9.36756C2.20285 9.37624 2.22694 9.39006 2.2476 9.40823L2.24514 9.40577ZM2.12213 11.3333C2.11616 11.3068 2.11551 11.2794 2.12021 11.2526C2.12491 11.2259 2.13487 11.2003 2.14951 11.1774C2.16415 11.1545 2.18319 11.1348 2.20551 11.1193C2.22784 11.1039 2.25301 11.093 2.27958 11.0873C2.33308 11.0756 2.38904 11.0856 2.43517 11.1151C2.4813 11.1446 2.51382 11.1912 2.52559 11.2447C2.5373 11.2982 2.5273 11.3542 2.49778 11.4003C2.46826 11.4464 2.42163 11.479 2.36814 11.4907C2.34164 11.4971 2.31414 11.4981 2.28724 11.4938C2.26033 11.4894 2.23457 11.4797 2.21144 11.4653C2.18831 11.4509 2.16829 11.432 2.15253 11.4097C2.13678 11.3875 2.12561 11.3624 2.11967 11.3358L2.12213 11.3333ZM17.2791 9.6973C17.2616 9.67648 17.2484 9.65241 17.2403 9.62648C17.2321 9.60054 17.2291 9.57326 17.2315 9.54617C17.2339 9.51909 17.2417 9.49275 17.2543 9.46866C17.2668 9.44456 17.2841 9.42319 17.3049 9.40577C17.3257 9.38813 17.3498 9.37479 17.3757 9.36654C17.4017 9.35828 17.429 9.35526 17.4561 9.35767C17.4832 9.36007 17.5096 9.36785 17.5337 9.38054C17.5578 9.39323 17.5792 9.41059 17.5965 9.4316C17.6314 9.47358 17.6483 9.52768 17.6435 9.58208C17.6386 9.63647 17.6124 9.68674 17.5706 9.72189C17.55 9.73997 17.526 9.75376 17.4999 9.76244C17.4739 9.77113 17.4464 9.77454 17.419 9.77247C17.3916 9.77041 17.365 9.76292 17.3405 9.75044C17.3161 9.73795 17.2944 9.72072 17.2767 9.69975L17.2791 9.6973Z"/>
</mask>
<path d="M18.5264 11.3259C18.4902 11.0914 18.4096 10.866 18.289 10.6617C18.2435 10.5842 18.1931 10.5153 18.1439 10.4476C18.0438 10.3262 17.9671 10.1874 17.9175 10.038C17.8557 9.81469 17.8735 9.57679 17.968 9.36518C18.0208 9.25702 18.0856 9.15511 18.1611 9.06134C18.2383 8.96355 18.3059 8.85851 18.3628 8.74768C18.4725 8.52157 18.5349 8.27543 18.5461 8.02436C18.5574 7.77328 18.5172 7.52256 18.428 7.28758C18.334 7.04127 18.1915 6.81636 18.009 6.62619C17.8264 6.43602 17.6075 6.28446 17.3652 6.18051C17.102 6.06734 16.6604 5.79304 16.6616 5.22228C16.6616 5.13495 16.6715 5.05007 16.6813 4.96028C16.6997 4.83075 16.7051 4.6997 16.6973 4.56911C16.6742 4.2914 16.5902 4.02218 16.4513 3.78064C16.3175 3.55201 16.1371 3.35412 15.9217 3.19983C15.7064 3.04554 15.461 2.93832 15.2015 2.88514C15.0095 2.85498 14.8144 2.84919 14.6209 2.86792C14.3429 2.88268 14.0809 2.89744 13.8337 2.75475C13.5864 2.61206 13.4647 2.37835 13.3416 2.12987C13.2594 1.94954 13.1544 1.78047 13.0292 1.62677C12.6942 1.25669 12.2273 1.03277 11.729 1.00312C11.2439 0.977863 10.7677 1.14041 10.3993 1.45702C10.2173 1.59971 9.72277 1.87771 9.06591 1.38076C8.85713 1.2242 8.6182 1.11255 8.36416 1.05285C8.11012 0.993156 7.84647 0.986693 7.58982 1.03387C7.09849 1.12684 6.66361 1.40969 6.37942 1.82112C6.31015 1.92739 6.25164 2.0403 6.20475 2.15817C6.17249 2.23678 6.13594 2.31357 6.09527 2.38819C5.97835 2.59105 5.79434 2.74678 5.57495 2.82855C5.3915 2.88739 5.19661 2.90132 5.00666 2.86915C4.72399 2.82895 4.43596 2.8512 4.16282 2.93434C3.91244 3.01697 3.68181 3.15041 3.48539 3.32631C3.28896 3.5022 3.13097 3.71675 3.02131 3.95654C2.91033 4.20112 2.85287 4.46659 2.85279 4.73517C2.85279 4.82743 2.86386 4.91722 2.87247 5.00456C2.89583 5.14464 2.89583 5.28762 2.87247 5.4277C2.82791 5.63461 2.71999 5.8225 2.56372 5.96525C2.45323 6.05564 2.32854 6.12713 2.1947 6.17682C2.11495 6.20968 2.03694 6.24663 1.96099 6.28753C1.74128 6.41318 1.5493 6.58206 1.39666 6.78396C1.24402 6.98586 1.13388 7.2166 1.07287 7.46225C1.00714 7.70791 0.992105 7.96438 1.02869 8.21603C1.06528 8.46769 1.15271 8.70927 1.28568 8.92604C1.32627 8.99123 1.36932 9.04904 1.40869 9.10932C1.5086 9.22925 1.58497 9.36697 1.63379 9.51524C1.70114 9.76587 1.66943 10.0328 1.54522 10.2607C1.49802 10.342 1.44542 10.4201 1.38777 10.4944C1.31096 10.5913 1.24381 10.6956 1.18727 10.8056C1.07223 11.047 1.00856 11.3096 1.0003 11.5768C0.99147 12.0744 1.1778 12.5557 1.51939 12.9176C1.68993 13.0818 1.88869 13.2139 2.10614 13.3076C2.31679 13.3932 2.50676 13.5228 2.66336 13.6877C2.88969 13.962 2.87616 14.2363 2.86017 14.5487C2.84788 14.7039 2.84788 14.8598 2.86017 15.0149C2.88982 15.2816 2.97563 15.539 3.11196 15.7701C3.24829 16.0012 3.43204 16.2008 3.65111 16.3557C4.14314 16.7001 4.64625 16.705 5.08046 16.6632C5.30264 16.6372 5.52726 16.6839 5.72065 16.7964C5.91403 16.9088 6.06576 17.0809 6.15309 17.2869C6.3991 17.8269 6.68817 18.1553 7.10762 18.3533C7.33732 18.464 7.58694 18.5272 7.84161 18.5393C8.09627 18.5513 8.35076 18.5119 8.58987 18.4235C8.75711 18.3535 8.9163 18.2656 9.06467 18.1614C9.32053 17.9954 9.55671 17.8392 9.89252 17.8798C10.1299 17.927 10.3528 18.0294 10.5432 18.1787C10.7348 18.3204 10.9502 18.4266 11.1792 18.4923C11.3228 18.5256 11.4697 18.5425 11.6171 18.5428C11.9643 18.5427 12.3048 18.447 12.6011 18.266C12.8158 18.133 13.0019 17.9586 13.1485 17.7531C13.2238 17.6414 13.2872 17.5223 13.338 17.3976C13.3775 17.3037 13.4231 17.2125 13.4745 17.1245C13.7033 16.7555 14.0514 16.6325 14.6394 16.6878C14.9018 16.7109 15.1662 16.6791 15.4157 16.5944C15.6652 16.5097 15.8943 16.3739 16.0884 16.1958C16.2809 16.0191 16.4345 15.8043 16.5394 15.565C16.6442 15.3256 16.698 15.0671 16.6973 14.8058C16.6955 14.7165 16.6885 14.6274 16.6764 14.5389C16.6543 14.4096 16.6518 14.2777 16.669 14.1477C16.7099 13.9148 16.8314 13.7036 17.0122 13.5511C17.1168 13.4717 17.2324 13.4078 17.3554 13.3617C17.4316 13.3285 17.5104 13.2953 17.5879 13.2522C17.8214 13.1193 18.024 12.9382 18.182 12.7208C18.4744 12.3186 18.598 11.818 18.5264 11.3259ZM17.4304 11.3358C17.4186 11.3892 17.3861 11.4359 17.34 11.4654C17.2939 11.4949 17.2379 11.5049 17.1844 11.4932C17.1578 11.4875 17.1327 11.4766 17.1103 11.4612C17.088 11.4457 17.069 11.4259 17.0543 11.4031C17.0397 11.3802 17.0297 11.3546 17.025 11.3279C17.0203 11.3011 17.021 11.2737 17.027 11.2472C17.0387 11.1937 17.0712 11.1471 17.1174 11.1176C17.1635 11.088 17.2195 11.078 17.273 11.0897C17.3265 11.1015 17.3731 11.134 17.4026 11.1802C17.4321 11.2263 17.4421 11.2823 17.4304 11.3358ZM16.7895 13.0948C16.7839 13.1213 16.773 13.1465 16.7575 13.1688C16.742 13.1912 16.7223 13.2102 16.6994 13.2248C16.6765 13.2395 16.651 13.2494 16.6242 13.2541C16.5975 13.2588 16.57 13.2582 16.5435 13.2522C16.517 13.2465 16.4918 13.2356 16.4695 13.2202C16.4471 13.2047 16.4281 13.1849 16.4135 13.1621C16.3988 13.1392 16.3889 13.1136 16.3842 13.0869C16.3795 13.0601 16.3801 13.0327 16.3861 13.0062C16.3918 12.9796 16.4027 12.9545 16.4181 12.9321C16.4336 12.9098 16.4534 12.8908 16.4762 12.8761C16.4991 12.8615 16.5247 12.8515 16.5514 12.8468C16.5782 12.8421 16.6056 12.8428 16.6321 12.8488C16.6587 12.8544 16.6838 12.8653 16.7062 12.8808C16.7285 12.8963 16.7475 12.916 16.7622 12.9389C16.7768 12.9618 16.7868 12.9873 16.7915 13.0141C16.7962 13.0408 16.7955 13.0683 16.7895 13.0948ZM15.6899 14.8648C15.6842 14.8914 15.6733 14.9167 15.6578 14.939C15.6424 14.9614 15.6227 14.9805 15.5998 14.9953C15.5769 15.01 15.5514 15.0201 15.5246 15.0249C15.4979 15.0298 15.4704 15.0293 15.4438 15.0235C15.3905 15.0115 15.3441 14.9789 15.3146 14.9328C15.2852 14.8868 15.275 14.831 15.2864 14.7775C15.2982 14.724 15.3307 14.6774 15.3768 14.6479C15.4229 14.6183 15.4789 14.6083 15.5324 14.6201C15.5856 14.6318 15.632 14.6642 15.6615 14.71C15.691 14.7559 15.7012 14.8115 15.6899 14.8648ZM14.1129 16.1724C14.1072 16.199 14.0963 16.2241 14.0809 16.2465C14.0654 16.2688 14.0456 16.2878 14.0228 16.3025C13.9999 16.3171 13.9743 16.3271 13.9476 16.3318C13.9208 16.3365 13.8934 16.3358 13.8669 16.3299C13.8403 16.3242 13.8152 16.3133 13.7928 16.2978C13.7705 16.2823 13.7515 16.2626 13.7368 16.2397C13.7222 16.2168 13.7122 16.1913 13.7075 16.1645C13.7028 16.1378 13.7035 16.1103 13.7094 16.0838C13.7212 16.0304 13.7537 15.9837 13.7999 15.9542C13.846 15.9247 13.902 15.9147 13.9555 15.9264C13.982 15.9321 14.0072 15.943 14.0295 15.9584C14.0518 15.9739 14.0709 15.9937 14.0855 16.0165C14.1002 16.0394 14.1101 16.065 14.1148 16.0917C14.1195 16.1185 14.1189 16.1459 14.1129 16.1724ZM12.2075 17.0716C12.1955 17.1249 12.1629 17.1713 12.1168 17.2008C12.0708 17.2303 12.015 17.2404 11.9615 17.229C11.9349 17.2234 11.9097 17.2125 11.8873 17.197C11.8649 17.1816 11.8458 17.1618 11.8311 17.139C11.8163 17.1161 11.8063 17.0906 11.8014 17.0638C11.7966 17.0371 11.797 17.0096 11.8028 16.983C11.8146 16.9295 11.8471 16.8829 11.8932 16.8534C11.9394 16.8239 11.9953 16.8139 12.0488 16.8256C12.0754 16.8313 12.1006 16.8422 12.123 16.8576C12.1454 16.8731 12.1645 16.8928 12.1793 16.9157C12.194 16.9385 12.2041 16.964 12.2089 16.9908C12.2138 17.0176 12.2133 17.045 12.2075 17.0716ZM9.62436 17.5722C9.58249 17.5369 9.55629 17.4864 9.55145 17.4318C9.54661 17.3772 9.56353 17.3229 9.59853 17.2807C9.6339 17.2388 9.68438 17.2126 9.73897 17.2078C9.79357 17.203 9.84787 17.2199 9.89005 17.2549C9.93192 17.2903 9.95813 17.3407 9.96297 17.3953C9.9678 17.4499 9.95088 17.5042 9.91589 17.5464C9.89844 17.5676 9.87693 17.5852 9.85262 17.598C9.82831 17.6108 9.80169 17.6187 9.77432 17.6211C9.74694 17.6235 9.71936 17.6204 9.69319 17.612C9.66702 17.6036 9.64278 17.5901 9.6219 17.5722H9.62436ZM7.59104 17.229C7.53754 17.2408 7.48158 17.2308 7.43545 17.2012C7.38933 17.1717 7.3568 17.1251 7.34503 17.0716C7.33906 17.0451 7.33841 17.0177 7.34311 16.9909C7.34781 16.9642 7.35777 16.9386 7.37241 16.9157C7.38705 16.8929 7.40609 16.8731 7.42842 16.8576C7.45074 16.8422 7.47592 16.8313 7.50248 16.8256C7.52898 16.8196 7.5564 16.819 7.58316 16.8237C7.60991 16.8284 7.63547 16.8383 7.65835 16.853C7.68123 16.8676 7.70097 16.8866 7.71645 16.909C7.73192 16.9313 7.74282 16.9565 7.7485 16.983C7.75443 17.0097 7.75499 17.0373 7.75014 17.0642C7.74528 17.0911 7.73511 17.1167 7.72022 17.1396C7.70533 17.1625 7.68601 17.1823 7.66341 17.1976C7.64081 17.213 7.61537 17.2236 7.58858 17.229H7.59104ZM5.68443 16.3299C5.63093 16.3416 5.57497 16.3316 5.52884 16.302C5.48271 16.2725 5.45018 16.2259 5.43841 16.1724C5.43263 16.1458 5.43215 16.1184 5.437 16.0916C5.44185 16.0649 5.45194 16.0393 5.46668 16.0165C5.48142 15.9936 5.50053 15.9739 5.52291 15.9584C5.54529 15.943 5.5705 15.9321 5.59709 15.9264C5.65056 15.915 5.70637 15.9252 5.75241 15.9546C5.79846 15.9841 5.83104 16.0305 5.84311 16.0838C5.84886 16.1106 5.84924 16.1382 5.84424 16.1651C5.83923 16.192 5.82893 16.2176 5.81394 16.2405C5.79895 16.2634 5.77957 16.2831 5.75691 16.2984C5.73426 16.3138 5.70878 16.3244 5.68197 16.3299H5.68443ZM4.10255 15.0235C4.04891 15.0349 3.99295 15.0245 3.94688 14.9948C3.9008 14.9651 3.86833 14.9184 3.85654 14.8648C3.84516 14.8114 3.8553 14.7556 3.88477 14.7095C3.91424 14.6635 3.96066 14.6309 4.01398 14.6188C4.06746 14.6075 4.12326 14.6176 4.1693 14.6471C4.21535 14.6765 4.24793 14.723 4.26 14.7763C4.27141 14.8299 4.26129 14.8859 4.23185 14.9321C4.2024 14.9783 4.15597 15.0112 4.10255 15.0235ZM3.00409 13.2522C2.95059 13.2639 2.89463 13.2539 2.8485 13.2244C2.80237 13.1949 2.76985 13.1483 2.75808 13.0948C2.7523 13.0682 2.75182 13.0407 2.75667 13.014C2.76152 12.9872 2.7716 12.9617 2.78634 12.9388C2.80108 12.916 2.82019 12.8962 2.84257 12.8808C2.86495 12.8653 2.89016 12.8544 2.91676 12.8488C2.97026 12.837 3.02622 12.847 3.07235 12.8766C3.11848 12.9061 3.151 12.9527 3.16277 13.0062C3.17452 13.0595 3.16468 13.1153 3.13541 13.1614C3.10614 13.2075 3.05981 13.2402 3.00655 13.2522H3.00409ZM2.91061 6.8263C2.87523 6.86817 2.82476 6.89437 2.77016 6.89921C2.71556 6.90405 2.66126 6.88713 2.61908 6.85213C2.5983 6.83462 2.58117 6.81319 2.56868 6.78905C2.5562 6.76491 2.5486 6.73855 2.54631 6.71147C2.54403 6.68439 2.5471 6.65713 2.55537 6.63124C2.56363 6.60535 2.57692 6.58135 2.59448 6.5606C2.6119 6.53973 2.63327 6.5225 2.65737 6.50991C2.68146 6.49731 2.7078 6.48959 2.73488 6.48719C2.76196 6.48479 2.78925 6.48776 2.81518 6.49592C2.84112 6.50409 2.86518 6.51729 2.886 6.53477C2.90697 6.55211 2.9243 6.57341 2.93701 6.59746C2.94972 6.62151 2.95755 6.64783 2.96007 6.67492C2.96258 6.702 2.95973 6.72932 2.95166 6.75529C2.94359 6.78127 2.93048 6.8054 2.91307 6.8263H2.91061ZM3.34851 5.2272C3.36602 5.20642 3.38746 5.1893 3.4116 5.17681C3.43573 5.16432 3.4621 5.15672 3.48918 5.15443C3.51625 5.15215 3.54352 5.15522 3.56941 5.16349C3.5953 5.17176 3.6193 5.18505 3.64004 5.2026C3.68191 5.23798 3.70811 5.28845 3.71295 5.34305C3.71779 5.39765 3.70087 5.45194 3.66587 5.49413C3.64837 5.51491 3.62693 5.53203 3.60279 5.54452C3.57865 5.55701 3.55229 5.56461 3.52521 5.5669C3.49813 5.56918 3.47087 5.56611 3.44498 5.55784C3.41909 5.54957 3.39509 5.53628 3.37434 5.51873C3.35329 5.50111 3.33596 5.47947 3.32336 5.45507C3.31077 5.43067 3.30316 5.40401 3.30098 5.37664C3.29881 5.34927 3.30211 5.32174 3.31069 5.29566C3.31927 5.26958 3.33297 5.24547 3.35098 5.22474L3.34851 5.2272ZM4.26246 4.14105C4.27979 4.12003 4.30112 4.10268 4.32521 4.08999C4.34931 4.07729 4.37569 4.06952 4.40282 4.06711C4.42994 4.06471 4.45728 4.06773 4.48323 4.07598C4.50918 4.08424 4.53324 4.09758 4.55399 4.11522C4.57477 4.13273 4.5919 4.15416 4.60438 4.1783C4.61687 4.20243 4.62447 4.2288 4.62676 4.25587C4.62904 4.28295 4.62597 4.31022 4.6177 4.33611C4.60944 4.36199 4.59614 4.386 4.57859 4.40674C4.56108 4.42753 4.53964 4.44465 4.5155 4.45714C4.49137 4.46962 4.46501 4.47723 4.43793 4.47951C4.41085 4.4818 4.38359 4.47872 4.3577 4.47045C4.33181 4.46219 4.30781 4.4489 4.28706 4.43134C4.26613 4.41374 4.24893 4.39214 4.23646 4.3678C4.22399 4.34347 4.2165 4.31689 4.21444 4.28962C4.21238 4.26235 4.21578 4.23495 4.22445 4.20901C4.23312 4.18308 4.24688 4.15913 4.26492 4.13858L4.26246 4.14105ZM5.47777 3.13116C5.4952 3.11028 5.51657 3.09305 5.54066 3.08046C5.56476 3.06786 5.59109 3.06014 5.61818 3.05774C5.64526 3.05534 5.67255 3.05831 5.69848 3.06647C5.72441 3.07464 5.74848 3.08784 5.7693 3.10532C5.79008 3.12283 5.80721 3.14427 5.8197 3.16841C5.83218 3.19254 5.83979 3.2189 5.84207 3.24598C5.84436 3.27306 5.84128 3.30033 5.83301 3.32622C5.82475 3.3521 5.81146 3.3761 5.7939 3.39685C5.77639 3.41763 5.75496 3.43476 5.73082 3.44724C5.70668 3.45973 5.68032 3.46734 5.65324 3.46962C5.62616 3.47191 5.5989 3.46883 5.57301 3.46056C5.54713 3.45229 5.52312 3.43901 5.50238 3.42145C5.48145 3.40385 5.46424 3.38225 5.45177 3.35791C5.4393 3.33358 5.43182 3.30699 5.42976 3.27973C5.4277 3.25246 5.4311 3.22505 5.43977 3.19912C5.44843 3.17318 5.46219 3.14924 5.48024 3.12869L5.47777 3.13116ZM6.82225 2.49028C6.83976 2.4695 6.86119 2.45238 6.88533 2.43989C6.90947 2.4274 6.93583 2.4198 6.96291 2.41751C6.98999 2.41523 7.01725 2.41831 7.04314 2.42657C7.06903 2.43484 7.09303 2.44813 7.11378 2.46568C7.13456 2.48319 7.15168 2.50463 7.16417 2.52876C7.17666 2.5529 7.18426 2.57926 7.18655 2.60634C7.18883 2.63342 7.18575 2.66069 7.17749 2.68657C7.16922 2.71246 7.15593 2.73647 7.13838 2.75721C7.12087 2.77799 7.09943 2.79512 7.07529 2.8076C7.05116 2.82009 7.0248 2.8277 6.99772 2.82998C6.97064 2.83227 6.94337 2.82919 6.91749 2.82092C6.8916 2.81266 6.86759 2.79937 6.84685 2.78181C6.82588 2.7641 6.80865 2.74239 6.79617 2.71795C6.78368 2.69351 6.77619 2.66683 6.77413 2.63946C6.77207 2.61209 6.77548 2.58459 6.78416 2.55856C6.79285 2.53252 6.80663 2.50848 6.82471 2.48782L6.82225 2.49028ZM8.20854 2.12126C8.22594 2.10052 8.24727 2.08342 8.2713 2.07095C8.29534 2.05848 8.3216 2.05088 8.34857 2.0486C8.37555 2.04631 8.40272 2.04938 8.42851 2.05763C8.45429 2.06588 8.4782 2.07914 8.49884 2.09666C8.51985 2.11399 8.53721 2.13532 8.5499 2.15942C8.56259 2.18351 8.57037 2.20989 8.57277 2.23702C8.57518 2.26415 8.57216 2.29148 8.5639 2.31743C8.55564 2.34338 8.54231 2.36744 8.52467 2.38819C8.50716 2.40897 8.48573 2.42609 8.46159 2.43858C8.43745 2.45107 8.41109 2.45867 8.38401 2.46096C8.35693 2.46324 8.32967 2.46017 8.30378 2.4519C8.27789 2.44363 8.25389 2.43034 8.23314 2.41279C8.21218 2.39508 8.19495 2.37337 8.18246 2.34893C8.16998 2.32449 8.16249 2.2978 8.16043 2.27044C8.15836 2.24307 8.16178 2.21557 8.17046 2.18953C8.17914 2.1635 8.19292 2.13945 8.211 2.1188L8.20854 2.12126ZM11.0451 2.09666C11.0658 2.07911 11.0898 2.06582 11.1157 2.05755C11.1416 2.04928 11.1689 2.04621 11.196 2.04849C11.223 2.05078 11.2494 2.05838 11.2735 2.07087C11.2977 2.08336 11.3191 2.10048 11.3366 2.12126C11.3543 2.14201 11.3676 2.16607 11.3759 2.19202C11.3841 2.21797 11.3871 2.24531 11.3847 2.27243C11.3823 2.29956 11.3745 2.32594 11.3619 2.35003C11.3492 2.37413 11.3318 2.39546 11.3108 2.41279C11.2901 2.43031 11.2662 2.44357 11.2405 2.45182C11.2147 2.46007 11.1875 2.46314 11.1605 2.46085C11.1335 2.45857 11.1073 2.45097 11.0833 2.4385C11.0592 2.42603 11.0379 2.40893 11.0205 2.38819C11.0027 2.36723 10.9893 2.34293 10.981 2.31671C10.9727 2.29049 10.9697 2.26289 10.9723 2.23551C10.9748 2.20813 10.9827 2.18153 10.9957 2.15726C11.0086 2.133 11.0262 2.11156 11.0476 2.0942L11.0451 2.09666ZM12.4314 2.46568C12.4521 2.44813 12.4761 2.43484 12.502 2.42657C12.5279 2.41831 12.5552 2.41523 12.5823 2.41751C12.6093 2.4198 12.6357 2.4274 12.6598 2.43989C12.684 2.45238 12.7054 2.4695 12.7229 2.49028C12.7579 2.53247 12.7748 2.58677 12.77 2.64136C12.7652 2.69596 12.739 2.74644 12.6971 2.78181C12.6763 2.79937 12.6523 2.81266 12.6264 2.82092C12.6006 2.82919 12.5733 2.83227 12.5462 2.82998C12.5191 2.8277 12.4928 2.82009 12.4686 2.8076C12.4445 2.79512 12.4231 2.77799 12.4056 2.75721C12.3878 2.73617 12.3745 2.71181 12.3663 2.68555C12.3581 2.65928 12.3553 2.63165 12.3579 2.60427C12.3605 2.57689 12.3686 2.55031 12.3817 2.52609C12.3947 2.50187 12.4124 2.48049 12.4339 2.46322L12.4314 2.46568ZM13.7759 3.10532C13.7967 3.08784 13.8208 3.07464 13.8467 3.06647C13.8726 3.05831 13.8999 3.05534 13.927 3.05774C13.9541 3.06014 13.9804 3.06786 14.0045 3.08046C14.0286 3.09305 14.05 3.11028 14.0674 3.13116C14.1023 3.17314 14.1192 3.22723 14.1144 3.28163C14.1095 3.33603 14.0833 3.3863 14.0416 3.42145C14.0208 3.43901 13.9968 3.45229 13.9709 3.46056C13.945 3.46883 13.9178 3.47191 13.8907 3.46962C13.8636 3.46734 13.8373 3.45973 13.8131 3.44724C13.789 3.43476 13.7675 3.41763 13.75 3.39685C13.7325 3.37574 13.7193 3.35136 13.7112 3.32512C13.7031 3.29888 13.7003 3.2713 13.7029 3.24396C13.7055 3.21663 13.7135 3.19008 13.7265 3.16586C13.7394 3.14165 13.7571 3.12023 13.7783 3.10286L13.7759 3.10532ZM15.9039 5.19645C15.9246 5.17889 15.9486 5.16561 15.9745 5.15734C16.0004 5.14908 16.0277 5.146 16.0548 5.14828C16.0818 5.15057 16.1082 5.15817 16.1323 5.17066C16.1565 5.18314 16.1779 5.20027 16.1954 5.22105C16.213 5.2418 16.2263 5.2658 16.2345 5.29169C16.2428 5.31758 16.2459 5.34484 16.2436 5.37192C16.2413 5.399 16.2337 5.42536 16.2212 5.4495C16.2087 5.47363 16.1916 5.49507 16.1708 5.51258C16.1501 5.53013 16.1261 5.54342 16.1002 5.55169C16.0743 5.55995 16.047 5.56303 16.02 5.56075C15.9929 5.55846 15.9665 5.55086 15.9424 5.53837C15.9182 5.52589 15.8968 5.50876 15.8793 5.48798C15.8458 5.44538 15.8304 5.39135 15.8364 5.33752C15.8424 5.28369 15.8693 5.23435 15.9113 5.20014L15.9039 5.19645ZM16.6592 6.53108C16.68 6.5136 16.704 6.5004 16.73 6.49223C16.7559 6.48407 16.7832 6.4811 16.8103 6.4835C16.8374 6.4859 16.8637 6.49362 16.8878 6.50622C16.9119 6.51881 16.9333 6.53604 16.9507 6.55691C16.9682 6.57773 16.9814 6.6018 16.9895 6.62773C16.9977 6.65367 17.0007 6.68095 16.9983 6.70804C16.9959 6.73512 16.9882 6.76146 16.9756 6.78555C16.963 6.80965 16.9457 6.83102 16.9249 6.84844C16.8827 6.88344 16.8284 6.90036 16.7738 6.89552C16.7192 6.89068 16.6687 6.86448 16.6333 6.82261C16.5998 6.78035 16.5839 6.72668 16.5892 6.67296C16.5945 6.61925 16.6205 6.56969 16.6616 6.53477L16.6592 6.53108ZM17.0934 8.00717C17.114 7.98965 17.1379 7.97639 17.1637 7.96814C17.1895 7.95989 17.2167 7.95682 17.2436 7.95911C17.2706 7.96139 17.2969 7.96899 17.3209 7.98146C17.3449 7.99393 17.3663 8.01103 17.3837 8.03178C17.4012 8.05252 17.4145 8.07652 17.4228 8.10241C17.431 8.1283 17.4341 8.15556 17.4318 8.18264C17.4296 8.20972 17.422 8.23608 17.4095 8.26022C17.397 8.28436 17.3799 8.30579 17.3591 8.3233C17.3383 8.34086 17.3143 8.35415 17.2884 8.36241C17.2626 8.37068 17.2353 8.37375 17.2082 8.37147C17.1811 8.36918 17.1548 8.36158 17.1306 8.3491C17.1065 8.33661 17.0851 8.31948 17.0675 8.2987C17.0337 8.25676 17.0178 8.20322 17.0231 8.14961C17.0283 8.096 17.0545 8.04662 17.0958 8.01209L17.0934 8.00717ZM16.9433 9.76864C16.941 11.6699 16.1847 13.4926 14.8404 14.837C13.496 16.1814 11.6732 16.9377 9.77197 16.94C7.87071 16.9377 6.04798 16.1814 4.70358 14.837C3.35919 13.4926 2.60291 11.6699 2.60063 9.76864C2.60291 7.86738 3.35919 6.04465 4.70358 4.70026C6.04798 3.35586 7.87071 2.59958 9.77197 2.5973C11.6746 2.5986 13.4989 3.35517 14.844 4.70077C16.1892 6.04636 16.9451 7.87093 16.9458 9.77356L16.9433 9.76864ZM15.2569 4.42396C15.2361 4.44152 15.2121 4.45481 15.1862 4.46307C15.1603 4.47134 15.1331 4.47442 15.106 4.47213C15.0789 4.46985 15.0526 4.46224 15.0284 4.44976C15.0043 4.43727 14.9829 4.42015 14.9653 4.39936C14.9303 4.35718 14.9134 4.30288 14.9183 4.24828C14.9231 4.19368 14.9493 4.14321 14.9912 4.10783C15.0119 4.09019 15.036 4.07686 15.0619 4.0686C15.0879 4.06035 15.1152 4.05733 15.1423 4.05973C15.1695 4.06214 15.1959 4.06991 15.2199 4.08261C15.244 4.0953 15.2654 4.11265 15.2827 4.13367C15.3011 4.15435 15.3151 4.17852 15.3238 4.20474C15.3326 4.23096 15.336 4.25868 15.3339 4.28625C15.3317 4.31382 15.324 4.34066 15.3111 4.36517C15.2983 4.38968 15.2807 4.41135 15.2593 4.42888L15.2569 4.42396ZM9.91097 2.26149C9.89346 2.28227 9.87202 2.2994 9.84788 2.31188C9.82375 2.32437 9.79738 2.33198 9.7703 2.33426C9.74323 2.33655 9.71596 2.33347 9.69008 2.3252C9.66419 2.31694 9.64018 2.30365 9.61944 2.28609C9.57757 2.25072 9.55136 2.20024 9.54653 2.14564C9.54169 2.09105 9.55861 2.03675 9.59361 1.99456C9.61112 1.97378 9.63255 1.95666 9.65669 1.94417C9.68083 1.93168 9.70719 1.92408 9.73427 1.92179C9.76135 1.91951 9.78861 1.92259 9.8145 1.93085C9.84039 1.93912 9.86439 1.95241 9.88514 1.96996C9.90677 1.98736 9.92469 2.0089 9.93786 2.03333C9.95103 2.05777 9.95918 2.08459 9.96181 2.11222C9.96445 2.13985 9.96153 2.16773 9.95322 2.19421C9.94491 2.22069 9.93138 2.24524 9.91343 2.26641L9.91097 2.26149ZM2.47762 8.2987C2.46011 8.31948 2.43867 8.33661 2.41454 8.3491C2.3904 8.36158 2.36404 8.36918 2.33696 8.37147C2.30988 8.37375 2.28262 8.37068 2.25673 8.36241C2.23084 8.35415 2.20684 8.34086 2.18609 8.3233C2.16522 8.30588 2.14799 8.28451 2.13539 8.26042C2.1228 8.23632 2.11508 8.20998 2.11268 8.1829C2.11028 8.15582 2.11325 8.12853 2.12141 8.1026C2.12958 8.07666 2.14278 8.0526 2.16026 8.03178C2.17777 8.01099 2.19921 7.99387 2.22334 7.98138C2.24748 7.96889 2.27384 7.96129 2.30092 7.95901C2.328 7.95672 2.35527 7.9598 2.38115 7.96806C2.40704 7.97633 2.43104 7.98962 2.45179 8.00717C2.47342 8.02456 2.49135 8.04611 2.50452 8.07055C2.51769 8.09498 2.52583 8.1218 2.52846 8.14943C2.5311 8.17706 2.52818 8.20494 2.51987 8.23142C2.51156 8.2579 2.49803 8.28245 2.48008 8.30362L2.47762 8.2987ZM2.24514 9.40577C2.26592 9.42328 2.28304 9.44471 2.29553 9.46885C2.30802 9.49299 2.31562 9.51935 2.3179 9.54643C2.32019 9.57351 2.31711 9.60077 2.30885 9.62666C2.30058 9.65254 2.28729 9.67655 2.26974 9.6973C2.25223 9.71808 2.23079 9.7352 2.20665 9.74769C2.18252 9.76018 2.15616 9.76778 2.12908 9.77006C2.102 9.77235 2.07473 9.76927 2.04884 9.76101C2.02296 9.75274 1.99896 9.73945 1.97821 9.72189C1.95747 9.70449 1.94037 9.68317 1.9279 9.65914C1.91543 9.6351 1.90783 9.60884 1.90554 9.58187C1.90326 9.55489 1.90633 9.52772 1.91458 9.50193C1.92282 9.47614 1.93609 9.45224 1.95361 9.4316C1.97113 9.4104 1.99273 9.39294 2.01714 9.38024C2.04154 9.36755 2.06824 9.35989 2.09566 9.35771C2.12307 9.35553 2.15065 9.35888 2.17675 9.36756C2.20285 9.37624 2.22694 9.39006 2.2476 9.40823L2.24514 9.40577ZM2.12213 11.3333C2.11616 11.3068 2.11551 11.2794 2.12021 11.2526C2.12491 11.2259 2.13487 11.2003 2.14951 11.1774C2.16415 11.1545 2.18319 11.1348 2.20551 11.1193C2.22784 11.1039 2.25301 11.093 2.27958 11.0873C2.33308 11.0756 2.38904 11.0856 2.43517 11.1151C2.4813 11.1446 2.51382 11.1912 2.52559 11.2447C2.5373 11.2982 2.5273 11.3542 2.49778 11.4003C2.46826 11.4464 2.42163 11.479 2.36814 11.4907C2.34164 11.4971 2.31414 11.4981 2.28724 11.4938C2.26033 11.4894 2.23457 11.4797 2.21144 11.4653C2.18831 11.4509 2.16829 11.432 2.15253 11.4097C2.13678 11.3875 2.12561 11.3624 2.11967 11.3358L2.12213 11.3333ZM17.2791 9.6973C17.2616 9.67648 17.2484 9.65241 17.2403 9.62648C17.2321 9.60054 17.2291 9.57326 17.2315 9.54617C17.2339 9.51909 17.2417 9.49275 17.2543 9.46866C17.2668 9.44456 17.2841 9.42319 17.3049 9.40577C17.3257 9.38813 17.3498 9.37479 17.3757 9.36654C17.4017 9.35828 17.429 9.35526 17.4561 9.35767C17.4832 9.36007 17.5096 9.36785 17.5337 9.38054C17.5578 9.39323 17.5792 9.41059 17.5965 9.4316C17.6314 9.47358 17.6483 9.52768 17.6435 9.58208C17.6386 9.63647 17.6124 9.68674 17.5706 9.72189C17.55 9.73997 17.526 9.75376 17.4999 9.76244C17.4739 9.77113 17.4464 9.77454 17.419 9.77247C17.3916 9.77041 17.365 9.76292 17.3405 9.75044C17.3161 9.73795 17.2944 9.72072 17.2767 9.69975L17.2791 9.6973Z" stroke="#EE4325" stroke-width="2" mask="url(#path-5-outside-2_24_32)"/>
</svg>
