<svg width="42" height="38" viewBox="0 0 42 38" fill="none" xmlns="http://www.w3.org/2000/svg">
<path d="M27.899 30.208V36.8818H22.4159V26.8009C22.4159 26.8009 22.3141 24.2437 24.1968 23.752L30.0452 22.224L31.6012 23.629L28.6402 25.1605C28.6402 25.1605 37.4847 24.3491 38.953 19.0065L40.8041 19.7301C40.8041 19.7301 40.769 29.9481 27.899 30.208Z" stroke="#EE4325" stroke-width="1.2" stroke-linecap="round" stroke-linejoin="round"/>
<path d="M13.9051 30.208V36.8818H19.3881V26.8009C19.3881 26.8009 19.49 24.2437 17.6073 23.752L11.7589 22.224L10.2028 23.629L13.1639 25.1605C13.1639 25.1605 4.31934 24.3491 2.8511 19.0065L1 19.7301C1 19.7301 1.03512 29.9481 13.9051 30.208Z" stroke="#EE4325" stroke-width="1.2" stroke-linecap="round" stroke-linejoin="round"/>
<path d="M7.04859 0.881836C7.04859 0.881836 3.31828 22.0343 22.1525 19.702C22.1385 19.702 28.9282 3.37223 7.04859 0.881836Z" stroke="#EE4325" stroke-width="1.2" stroke-linecap="round" stroke-linejoin="round"/>
<path d="M10.3996 5.51837L22.1385 19.7125C35.1559 20.0919 34.3621 6.42813 34.3621 6.42813C34.3621 6.42813 24.0352 6.07687 23.122 14.5702" stroke="#EE4325" stroke-width="1.2" stroke-linecap="round" stroke-linejoin="round"/>
<path d="M18.373 10.2779L18.092 14.8126" stroke="#EE4325" stroke-width="1.2" stroke-linecap="round" stroke-linejoin="round"/>
<path d="M10.4417 10.5694L14.8499 10.8434" stroke="#EE4325" stroke-width="1.2" stroke-linecap="round" stroke-linejoin="round"/>
<path d="M22.3527 19.1014L30.8636 9.97931" stroke="#EE4325" stroke-width="1.2" stroke-linecap="round" stroke-linejoin="round"/>
<path d="M25.2189 12.4802L25.0047 15.9436" stroke="#EE4325" stroke-width="1.2" stroke-linecap="round" stroke-linejoin="round"/>
<path d="M31.1832 12.849L28.4856 12.684" stroke="#EE4325" stroke-width="1.2" stroke-linecap="round" stroke-linejoin="round"/>
</svg>
