<svg width="39" height="38" viewBox="0 0 39 38" fill="none" xmlns="http://www.w3.org/2000/svg">
<path d="M6.75596 21.2886L1.62262 30.1798C1.33639 30.6759 1.25876 31.2653 1.40678 31.8186C1.55481 32.3719 1.91638 32.8438 2.4121 33.1307L3.87876 33.9833C4.27247 34.214 4.72071 34.3351 5.17701 34.3342H15.1524V29.7728H7.18403" stroke="#EE4325" stroke-width="1.2" stroke-linecap="round" stroke-linejoin="round"/>
<path d="M6.75243 21.2921L4.25769 19.843L12.0401 16.9131L13.3559 25.1272L10.763 23.6219" stroke="#EE4325" stroke-width="1.2" stroke-linecap="round" stroke-linejoin="round"/>
<path d="M5.18403 34.2535C5.05573 33.7181 5.13867 33.1539 5.41561 32.6781L10.6788 23.5798" stroke="#EE4325" stroke-width="1.2" stroke-linecap="round" stroke-linejoin="round"/>
<path d="M25.9525 33.8219L36.2191 33.8535C36.503 33.8544 36.7842 33.7994 37.0468 33.6917C37.3094 33.5839 37.5482 33.4255 37.7495 33.2254C37.9509 33.0253 38.1109 32.7876 38.2203 32.5257C38.3298 32.2638 38.3866 31.9829 38.3875 31.6991V30.0044C38.3886 29.547 38.2675 29.0975 38.0367 28.7026L33.0753 20.05L29.1103 22.3237L33.0753 29.236" stroke="#EE4325" stroke-width="1.2" stroke-linecap="round" stroke-linejoin="round"/>
<path d="M25.9454 33.8219L25.9314 36.7061L19.5174 31.4114L25.9875 26.1868L25.9735 29.1833" stroke="#EE4325" stroke-width="1.2" stroke-linecap="round" stroke-linejoin="round"/>
<path d="M37.9735 28.7377C37.572 29.1155 37.0405 29.3241 36.4893 29.3202L25.9805 29.2781" stroke="#EE4325" stroke-width="1.2" stroke-linecap="round" stroke-linejoin="round"/>
<path d="M27.2823 10.7623L21.8226 2.06753C21.5171 1.5831 21.0321 1.23948 20.4737 1.1119C19.9154 0.98432 19.3293 1.08318 18.8437 1.38682L17.4016 2.28507C17.0123 2.52645 16.6939 2.86664 16.4788 3.27104L11.8191 12.0921L15.8577 14.2254L19.5805 7.18332" stroke="#EE4325" stroke-width="1.2" stroke-linecap="round" stroke-linejoin="round"/>
<path d="M27.2788 10.7588L29.7279 9.22894L28.6788 17.4781L20.8016 14.8044L23.3454 13.2149" stroke="#EE4325" stroke-width="1.2" stroke-linecap="round" stroke-linejoin="round"/>
<path d="M16.5559 3.31317C17.0882 3.45153 17.5475 3.78788 17.8402 4.25352L23.4226 13.1588" stroke="#EE4325" stroke-width="1.2" stroke-linecap="round" stroke-linejoin="round"/>
</svg>
