<svg width="37" height="37" viewBox="0 0 37 37" fill="none" xmlns="http://www.w3.org/2000/svg">
<path d="M18.6673 36.8818C8.7417 36.8818 0.666687 28.8057 0.666687 18.8809C0.666687 8.95607 8.7417 0.881836 18.6673 0.881836C28.5928 0.881836 36.6678 8.958 36.6678 18.8824C36.6678 28.8068 28.5928 36.8818 18.6673 36.8818ZM18.6673 3.04037C9.93419 3.04037 2.82677 10.1466 2.82677 18.8809C2.82677 27.6151 9.93264 34.7217 18.6673 34.7217C27.4019 34.7217 34.5085 27.6155 34.5085 18.8809C34.5085 10.1462 27.4019 3.04037 18.6673 3.04037Z" fill="#EE4325"/>
<path fill-rule="evenodd" clip-rule="evenodd" d="M18.9475 4.78639C18.5367 4.96518 17.4787 6.2621 16.8559 7.35021C16.4729 8.01922 16.0257 9.07302 15.8254 9.77806C15.361 11.4126 15.3912 13.1935 15.9077 14.631C16.2265 15.5185 16.5204 16.0233 17.6781 17.6723C19.8554 20.7736 20.2922 21.6459 20.3523 23.012C20.3841 23.737 20.3157 24.234 20.0957 24.8772C19.6911 26.0596 18.7158 27.5795 17.3402 29.1712C16.7377 29.8683 16.62 30.0804 16.62 30.4676C16.62 31.1883 17.1271 31.7042 17.8304 31.6989C18.2983 31.6953 18.5498 31.5383 19.0827 30.9172C21.0642 28.6075 22.2595 26.5236 22.6754 24.6541C23.1055 22.7209 22.6684 20.8091 21.2966 18.6234C21.0977 18.3064 20.4289 17.3208 19.8105 16.4331C18.2562 14.2022 18.0242 13.6846 17.9636 12.312C17.9267 11.4768 18.0163 10.8817 18.3003 10.077C18.6664 9.03976 19.3853 7.83114 20.1404 6.98334C20.5567 6.516 20.6695 6.28193 20.6705 5.88394C20.6715 5.42813 20.4227 5.02576 20.0085 4.81336C19.7545 4.6831 19.2163 4.66944 18.9475 4.78639ZM24.149 7.67027C23.7585 7.80947 23.5547 8.07178 23.0735 9.05538C22.3186 10.598 22.0776 11.484 22.0779 12.7154C22.0782 14.195 22.3562 14.9113 24.4065 18.7159C25.6191 20.9661 26.0418 21.9187 26.3453 23.0852C26.4869 23.6297 26.5036 23.792 26.4999 24.589C26.4962 25.3867 26.479 25.5379 26.3397 26.0011C26.0114 27.0933 25.3638 28.1163 24.292 29.2363C23.9942 29.5474 23.7154 29.8862 23.6724 29.9891C23.5579 30.2633 23.5734 30.7779 23.7039 31.0324C24.0254 31.6593 24.802 31.8937 25.3988 31.5439C25.8618 31.2726 26.9208 30.0623 27.6108 29.0158C28.5369 27.6113 28.963 26.2258 28.9633 24.6178C28.9634 23.6004 28.8178 22.7351 28.4661 21.6626C28.0951 20.5316 27.6304 19.5344 26.4054 17.2401C25.2134 15.0076 24.7313 13.9939 24.6032 13.4511C24.3669 12.4485 24.6237 11.3495 25.473 9.72918C25.7321 9.23499 25.7845 9.0853 25.7845 8.83959C25.7845 7.97702 24.9541 7.38329 24.149 7.67027ZM11.4808 9.26542C11.0518 9.3841 10.8251 9.66134 10.3379 10.6633C9.59976 12.1813 9.34275 13.1303 9.34517 14.3293C9.34667 15.0896 9.4571 15.6967 9.7174 16.3755C9.97424 17.0453 10.8714 18.7813 11.46 19.7473C12.9943 22.2658 13.429 23.1065 13.6606 24.0038C13.7844 24.4833 13.8007 24.6517 13.7793 25.223C13.758 25.7906 13.7276 25.9582 13.5679 26.3899C13.2472 27.2571 12.6732 28.0811 11.5903 29.2289C10.9566 29.9007 10.8561 30.0701 10.8561 30.4671C10.8561 31.1884 11.363 31.7042 12.0665 31.6989C12.5196 31.6955 12.7661 31.5452 13.395 30.8892C15.1551 29.0534 16.0487 27.3834 16.2308 25.59C16.286 25.0471 16.281 24.8411 16.1983 24.2524C15.985 22.7322 15.4915 21.6395 13.6559 18.6234C12.8978 17.3778 11.9881 15.5456 11.8701 15.0273C11.6427 14.0272 11.8816 12.9761 12.6839 11.4474C13.0948 10.6645 13.1357 10.3567 12.8909 9.89201C12.6186 9.37545 12.0296 9.11371 11.4808 9.26542Z" fill="#EE4325"/>
<path d="M32.4995 8.85925L4.29871 26.9083L5.46292 28.7273L33.6637 10.6783L32.4995 8.85925Z" fill="#EE4325"/>
</svg>
