<svg width="44" height="38" viewBox="0 0 44 38" fill="none" xmlns="http://www.w3.org/2000/svg">
<mask id="path-1-inside-1_42_4931" fill="white">
<path d="M14.3692 18.3256C14.3669 18.3132 14.3669 18.3004 14.3692 18.288C13.9633 17.0133 13.7635 15.6821 13.7774 14.3445C13.7738 12.3743 14.207 10.4279 15.0456 8.64524C15.8843 6.86255 17.1076 5.28788 18.6276 4.03453C20.1476 2.78118 21.9266 1.8803 23.8364 1.39669C25.7462 0.913075 27.7395 0.858738 29.6728 1.23762C31.6062 1.61651 33.4315 2.4192 35.0175 3.58792C36.6036 4.75663 37.9108 6.26234 38.8453 7.99671C39.7798 9.73109 40.3183 11.651 40.422 13.6184C40.5258 15.5858 40.1922 17.5517 39.4452 19.3747"/>
</mask>
<path d="M13.3863 18.5098C13.488 19.0527 14.0106 19.4102 14.5534 19.3085C15.0962 19.2068 15.4538 18.6842 15.3521 18.1414L13.3863 18.5098ZM14.3692 18.288L15.3521 18.4722C15.3825 18.3096 15.3722 18.1421 15.322 17.9845L14.3692 18.288ZM13.7774 14.3445L14.7774 14.3548L14.7774 14.3426L13.7774 14.3445ZM15.3521 18.1414C15.3726 18.2507 15.3726 18.3629 15.3521 18.4722L13.3863 18.1037C13.3612 18.2379 13.3612 18.3756 13.3863 18.5098L15.3521 18.1414ZM15.322 17.9845C14.9485 16.8113 14.7646 15.586 14.7774 14.3548L12.7775 14.3341C12.7625 15.7781 12.9782 17.2153 13.4163 18.5914L15.322 17.9845ZM14.7774 14.3426C14.7741 12.5203 15.1747 10.7199 15.9505 9.07093L14.1408 8.21955C13.2392 10.136 12.7736 12.2284 12.7774 14.3463L14.7774 14.3426ZM15.9505 9.07093C16.7263 7.42195 17.8578 5.9654 19.2638 4.80607L17.9914 3.26299C16.3574 4.61036 15.0423 6.30314 14.1408 8.21955L15.9505 9.07093ZM19.2638 4.80607C20.6698 3.64673 22.3153 2.81342 24.0819 2.36609L23.5909 0.427283C21.5378 0.947169 19.6255 1.91563 17.9914 3.26299L19.2638 4.80607ZM24.0819 2.36609C25.8485 1.91875 27.6922 1.86849 29.4805 2.21896L29.8652 0.256292C27.7868 -0.151017 25.644 -0.0926021 23.5909 0.427283L24.0819 2.36609ZM29.4805 2.21896C31.2688 2.56942 32.9573 3.31191 34.4243 4.39296L35.6108 2.78288C33.9058 1.5265 31.9435 0.663599 29.8652 0.256292L29.4805 2.21896ZM34.4243 4.39296C35.8914 5.474 37.1006 6.86676 37.965 8.47105L39.7257 7.52238C38.7211 5.65791 37.3158 4.03926 35.6108 2.78288L34.4243 4.39296ZM37.965 8.47105C38.8294 10.0753 39.3275 11.8512 39.4234 13.6711L41.4207 13.5657C41.3091 11.4508 40.7303 9.38684 39.7257 7.52238L37.965 8.47105ZM39.4234 13.6711C39.5194 15.4909 39.2108 17.3093 38.5199 18.9956L40.3706 19.7538C41.1735 17.7941 41.5322 15.6807 41.4207 13.5657L39.4234 13.6711Z" fill="#EE4325" mask="url(#path-1-inside-1_42_4931)"/>
<path d="M21 17.9888V5.98877H19V17.082" stroke="#EE4325" stroke-linecap="round" stroke-linejoin="round"/>
<path d="M25 18.2824V7.98877H23V17.9888" stroke="#EE4325" stroke-linecap="round" stroke-linejoin="round"/>
<path d="M29 19.9888V19.9732V9.98877H27V18.7428" stroke="#EE4325" stroke-linecap="round" stroke-linejoin="round"/>
<path d="M33 21.4308V12.9888H31V21.9888" stroke="#EE4325" stroke-linecap="round" stroke-linejoin="round"/>
<path d="M37 19.9258V19.8523V15.9888H35V19.9888" stroke="#EE4325" stroke-linecap="round" stroke-linejoin="round"/>
<path d="M7.42369 29.6451C7.15687 29.675 6.91288 29.8097 6.7454 30.0196C6.57792 30.2295 6.50065 30.4973 6.53061 30.7641C6.56058 31.0309 6.69531 31.2749 6.90517 31.4424C7.11503 31.6099 7.38284 31.6871 7.64966 31.6572C7.78178 31.6423 7.90967 31.6016 8.02605 31.5373C8.14243 31.4731 8.24502 31.3865 8.32795 31.2826C8.41088 31.1787 8.47254 31.0595 8.50939 30.9317C8.54624 30.804 8.55757 30.6702 8.54274 30.5381C8.5279 30.406 8.48718 30.2781 8.42291 30.1617C8.35865 30.0453 8.27208 29.9427 8.16817 29.8598C8.06426 29.7769 7.94503 29.7152 7.81729 29.6784C7.68955 29.6415 7.55581 29.6302 7.42369 29.6451V29.6451ZM2.25354 36.9887L1 23.7324L6.83728 21.9355L12.0343 30.3283L12.3087 32.4803L2.25354 36.9887Z" stroke="#EE4325" stroke-linecap="round" stroke-linejoin="round"/>
<path d="M27.2489 30.9525C20.992 31.4205 19.7169 27.321 12.0128 30.3284L6.83728 21.9356C8.73641 20.8596 11.9483 19.052 14.3692 18.288C14.7136 18.1858 15.0364 18.0997 15.343 18.0352C16.1148 17.9105 16.8964 17.8564 17.6779 17.8738C18.3666 17.8738 19.1252 17.9114 19.9268 17.976C20.3894 18.0136 20.8682 18.062 21.3524 18.1266C22.1003 18.2234 22.8481 18.3418 23.5905 18.4924C24.0855 18.5947 24.5697 18.7023 25.0431 18.8314C25.7769 19.0261 26.496 19.2724 27.1951 19.5684C27.6878 19.7714 28.1613 20.0181 28.61 20.3055V20.3055C28.9858 20.5135 29.3143 20.7975 29.5746 21.1392C29.8348 21.481 30.0212 21.8731 30.1218 22.2907C30.1908 22.6514 30.1572 23.0241 30.025 23.3667C30.3424 23.1146 30.6728 22.8794 31.0149 22.6619C31.4345 22.3875 31.8972 22.1239 32.3922 21.8549C33.1077 21.4729 33.8932 21.1071 34.684 20.7789C36.189 20.1227 37.7678 19.6513 39.3861 19.3748H39.4453C40.7742 19.1972 42.7325 19.321 42.8616 21.0264C43.0661 23.7648 30.8965 30.6727 27.2489 30.9525Z" stroke="#EE4325" stroke-linecap="round" stroke-linejoin="round"/>
<path d="M6.83728 21.9356C8.73641 20.8596 11.9483 19.052 14.3692 18.288C14.7136 18.1858 15.0364 18.0997 15.343 18.0352C16.1148 17.9105 16.8964 17.8564 17.6779 17.8738C18.3666 17.8738 19.1252 17.9114 19.9268 17.976C20.3894 18.0136 20.8682 18.062 21.3524 18.1266C22.1003 18.2234 22.8481 18.3418 23.5905 18.4924C24.0855 18.5947 24.5697 18.7023 25.0431 18.8314C25.7769 19.0261 26.496 19.2724 27.1951 19.5684C27.6878 19.7714 28.1613 20.0181 28.61 20.3055V20.3055C28.9858 20.5135 29.3143 20.7975 29.5746 21.1392C29.8348 21.481 30.0212 21.8731 30.1218 22.2907C30.1908 22.6514 30.1572 23.0241 30.025 23.3667C28.9974 25.7984 22.0034 23.7325 20.5777 23.3667" stroke="#EE4325" stroke-linecap="round" stroke-linejoin="round"/>
<path d="M12.0128 30.3283C19.7223 27.3209 20.992 31.4043 27.2489 30.9524C30.8965 30.6834 43.066 23.7647 42.8508 21.0102C42.7217 19.3047 40.7634 19.181 39.4346 19.3585H39.3754C37.7525 19.6411 36.1699 20.1198 34.6625 20.7842C33.8716 21.1178 33.0862 21.4836 32.3707 21.8602C31.8757 22.1238 31.413 22.3982 30.9934 22.6672C30.6513 22.8847 30.3209 23.1199 30.0035 23.372" stroke="#EE4325" stroke-linecap="round" stroke-linejoin="round"/>
<path d="M12.0074 30.3337L12.2872 32.4803L2.24815 36.9887L1 23.7325L6.81575 21.9355L12.0074 30.3337Z" stroke="#EE4325" stroke-linecap="round" stroke-linejoin="round"/>
<path d="M7.42377 29.6451C7.62251 29.623 7.82334 29.6603 8.00089 29.7522C8.17845 29.8442 8.32477 29.9867 8.42135 30.1618C8.51793 30.3369 8.56045 30.5367 8.54352 30.736C8.52659 30.9352 8.45097 31.125 8.32624 31.2813C8.20151 31.4375 8.03326 31.5534 7.84274 31.6141C7.65221 31.6748 7.44795 31.6776 7.25579 31.6223C7.06364 31.5669 6.89221 31.4559 6.76314 31.3032C6.63408 31.1504 6.55319 30.9628 6.53069 30.7641C6.515 30.6319 6.52572 30.4979 6.56223 30.3698C6.59875 30.2417 6.66033 30.1221 6.74341 30.018C6.82649 29.9139 6.9294 29.8274 7.0462 29.7633C7.16299 29.6993 7.29133 29.6592 7.42377 29.6451V29.6451Z" stroke="#EE4325" stroke-linecap="round" stroke-linejoin="round"/>
</svg>
