<svg width="44" height="37" viewBox="0 0 44 37" fill="none" xmlns="http://www.w3.org/2000/svg">
<path d="M39.8752 35.1745H34.0923C33.9983 35.1745 33.9082 35.1372 33.8418 35.0708C33.7754 35.0043 33.738 34.9142 33.738 34.8202V5.46977C33.738 5.37581 33.7754 5.28571 33.8418 5.21927C33.9082 5.15283 33.9983 5.11548 34.0923 5.11548H39.8752C39.9687 5.11689 40.058 5.15466 40.1241 5.2208C40.1903 5.28694 40.2281 5.37625 40.2295 5.46977V34.8148C40.2295 34.9093 40.1923 34.9999 40.126 35.0673C40.0598 35.1346 39.9696 35.1731 39.8752 35.1745ZM34.4248 34.466H39.5155V5.82406H34.4466L34.4248 34.466Z" fill="#EE4325"/>
<path d="M32.1628 35.1743H26.3799C26.286 35.1743 26.1958 35.137 26.1294 35.0706C26.063 35.0041 26.0256 34.914 26.0256 34.82V9.10499C26.0256 9.01103 26.063 8.92093 26.1294 8.85449C26.1958 8.78805 26.286 8.75073 26.3799 8.75073H32.1628C32.2568 8.75073 32.3469 8.78805 32.4133 8.85449C32.4797 8.92093 32.5171 9.01103 32.5171 9.10499V34.8146C32.5178 34.8616 32.5092 34.9082 32.4917 34.9519C32.4742 34.9955 32.4482 35.0352 32.4153 35.0687C32.3823 35.1021 32.343 35.1287 32.2996 35.1469C32.2563 35.165 32.2098 35.1743 32.1628 35.1743ZM26.7124 34.4658H31.7867V9.45928H26.7124V34.4658Z" fill="#EE4325"/>
<path d="M24.4507 35.1744H18.6678C18.5738 35.1744 18.4837 35.1371 18.4173 35.0706C18.3508 35.0042 18.3135 34.914 18.3135 34.8201V12.6423C18.3135 12.5484 18.3508 12.4583 18.4173 12.3918C18.4837 12.3254 18.5738 12.2881 18.6678 12.2881H24.4507C24.5446 12.2881 24.6347 12.3254 24.7012 12.3918C24.7676 12.4583 24.8049 12.5484 24.8049 12.6423V34.8147C24.8057 34.8616 24.797 34.9083 24.7796 34.9519C24.7621 34.9955 24.7361 35.0352 24.7031 35.0687C24.6701 35.1022 24.6309 35.1288 24.5875 35.1469C24.5442 35.165 24.4976 35.1744 24.4507 35.1744ZM19.0002 34.4658H24.0746V12.9966H19.0221L19.0002 34.4658Z" fill="#EE4325"/>
<path d="M16.7382 35.1745H10.9553C10.8618 35.1731 10.7725 35.1353 10.7064 35.0691C10.6403 35.003 10.6025 34.9137 10.6011 34.8202V17.5696C10.6025 17.4761 10.6403 17.3868 10.7064 17.3207C10.7725 17.2545 10.8618 17.2167 10.9553 17.2153H16.7382C16.8327 17.2153 16.9234 17.2525 16.9907 17.3188C17.058 17.385 17.0965 17.4752 17.098 17.5696V34.8147C17.098 34.9102 17.0601 35.0016 16.9926 35.0691C16.9251 35.1366 16.8337 35.1745 16.7382 35.1745ZM11.2878 34.4659H16.3622V17.9239H11.2878V34.4659Z" fill="#EE4325"/>
<path d="M9.03146 35.1744H3.24856C3.1546 35.1744 3.06449 35.1371 2.99805 35.0706C2.93161 35.0042 2.89429 34.914 2.89429 34.8201V22.7093C2.89429 22.6153 2.93161 22.5252 2.99805 22.4588C3.06449 22.3923 3.1546 22.355 3.24856 22.355H9.03146C9.12542 22.355 9.21554 22.3923 9.28198 22.4588C9.34841 22.5252 9.38573 22.6153 9.38573 22.7093V34.8147C9.38646 34.8616 9.37783 34.9083 9.36035 34.9519C9.34287 34.9955 9.31689 35.0352 9.28392 35.0687C9.25095 35.1022 9.21165 35.1287 9.1683 35.1469C9.12496 35.165 9.07845 35.1744 9.03146 35.1744ZM3.58104 34.4658H8.65538V23.0636H3.58104V34.4658Z" fill="#EE4325"/>
<path d="M42.7858 36.9893H0.354274C0.260314 36.9893 0.170199 36.952 0.103759 36.8856C0.037319 36.8191 0 36.729 0 36.635C0 36.5411 0.037319 36.451 0.103759 36.3845C0.170199 36.3181 0.260314 36.2808 0.354274 36.2808H42.7858C42.8797 36.2808 42.9698 36.3181 43.0363 36.3845C43.1027 36.451 43.1401 36.5411 43.1401 36.635C43.1401 36.729 43.1027 36.8191 43.0363 36.8856C42.9698 36.952 42.8797 36.9893 42.7858 36.9893Z" fill="#EE4325"/>
<path d="M2.06561 18.409C1.99246 18.4104 1.92073 18.3885 1.86092 18.3463C1.80112 18.3041 1.75634 18.244 1.73313 18.1746C1.70156 18.0864 1.7062 17.9893 1.74604 17.9045C1.78587 17.8197 1.85767 17.7542 1.9457 17.7222C2.13647 17.6513 21.0221 10.7838 29.3231 1.11479C29.3535 1.079 29.3907 1.04955 29.4325 1.02813C29.4743 1.00671 29.5199 0.993736 29.5667 0.98994C29.6136 0.986144 29.6607 0.991599 29.7054 1.00601C29.7501 1.02042 29.7915 1.04349 29.8273 1.07391C29.8631 1.10433 29.8925 1.14149 29.9139 1.18329C29.9354 1.22509 29.9484 1.2707 29.9522 1.31752C29.956 1.36433 29.9505 1.41143 29.9361 1.45614C29.9217 1.50084 29.8986 1.54227 29.8682 1.57806C21.4473 11.3888 2.38718 18.3218 2.19642 18.3872C2.15489 18.4038 2.11028 18.4112 2.06561 18.409Z" fill="#EE4325"/>
<path d="M29.4922 5.99846C29.3987 5.99705 29.3094 5.95931 29.2432 5.89317C29.1771 5.82703 29.1393 5.73772 29.1379 5.6442V1.82891H25.5188C25.4726 1.82963 25.4266 1.82113 25.3837 1.80393C25.3407 1.78672 25.3016 1.76114 25.2686 1.72868C25.2357 1.69621 25.2095 1.65752 25.1916 1.61484C25.1738 1.57216 25.1645 1.52634 25.1646 1.48007C25.1645 1.38561 25.2017 1.29492 25.268 1.22761C25.3343 1.16031 25.4244 1.12179 25.5188 1.12036H29.4867C29.582 1.12218 29.6732 1.15905 29.7429 1.22392C29.8088 1.29078 29.846 1.38073 29.8465 1.47462V5.66053C29.8423 5.75163 29.8031 5.83761 29.7371 5.90055C29.6711 5.9635 29.5834 5.99855 29.4922 5.99846Z" fill="#EE4325"/>
</svg>
