<svg width="35" height="37" viewBox="0 0 35 37" fill="none" xmlns="http://www.w3.org/2000/svg">
<g clip-path="url(#clip0_44_5314)">
<path d="M17.9431 29.5402C15.9232 29.5411 13.9485 28.9429 12.2686 27.8214C10.5887 26.6999 9.27914 25.1054 8.50555 23.2395C7.73196 21.3737 7.52909 19.3203 7.92259 17.3392C8.3161 15.358 9.2883 13.538 10.7162 12.1095C12.1442 10.6809 13.9637 9.70788 15.9447 9.3135C17.9257 8.91911 19.9791 9.12106 21.8453 9.89382C23.7115 10.6666 25.3066 11.9754 26.4289 13.6548C27.5511 15.3342 28.1501 17.3087 28.1501 19.3286C28.1465 22.035 27.0701 24.6295 25.1569 26.5437C23.2436 28.4578 20.6495 29.5354 17.9431 29.5402ZM17.9431 9.71309C16.04 9.71219 14.1795 10.2757 12.5968 11.3324C11.0141 12.3892 9.78035 13.8916 9.05167 15.6496C8.32299 17.4076 8.1321 19.3423 8.50314 21.2088C8.87419 23.0753 9.79049 24.7898 11.1362 26.1355C12.4818 27.4812 14.1964 28.3975 16.0629 28.7685C17.9294 29.1395 19.864 28.9487 21.6221 28.22C23.3801 27.4913 24.8825 26.2576 25.9392 24.6749C26.9959 23.0922 27.5595 21.2316 27.5586 19.3286C27.555 16.7795 26.5407 14.3358 24.7383 12.5334C22.9358 10.7309 20.4922 9.7167 17.9431 9.71309Z" fill="#EE4325"/>
<path d="M10.7804 12.7711C10.739 12.7704 10.6983 12.7611 10.6607 12.7439C10.6231 12.7266 10.5895 12.7018 10.562 12.671L4.83272 6.34112C4.78022 6.28077 4.75385 6.20202 4.75939 6.12222C4.76494 6.04243 4.80195 5.96811 4.8623 5.91561C4.92264 5.8631 5.00138 5.83673 5.08117 5.84228C5.16097 5.84783 5.23528 5.88484 5.28778 5.94519L11.017 12.2751C11.0715 12.3312 11.102 12.4063 11.102 12.4845C11.102 12.5626 11.0715 12.6377 11.017 12.6938C10.9852 12.7226 10.9477 12.7444 10.907 12.7577C10.8662 12.771 10.823 12.7756 10.7804 12.7711Z" fill="#EE4325"/>
<path d="M26.1843 14.7461C26.1409 14.7473 26.0978 14.7386 26.0583 14.7204C26.0188 14.7023 25.9841 14.6752 25.9568 14.6414C25.9316 14.612 25.9126 14.5779 25.9008 14.541C25.889 14.5041 25.8847 14.4653 25.8881 14.4267C25.8915 14.3882 25.9025 14.3507 25.9206 14.3165C25.9386 14.2822 25.9633 14.2519 25.9932 14.2273L31.5631 9.49469C31.6235 9.444 31.7015 9.41934 31.78 9.42617C31.8585 9.43299 31.9311 9.47073 31.9818 9.53107C32.0325 9.59142 32.0571 9.66942 32.0503 9.74794C32.0435 9.82645 32.0057 9.89906 31.9454 9.94975L26.3754 14.6551C26.3244 14.7069 26.2567 14.7392 26.1843 14.7461Z" fill="#EE4325"/>
<path d="M31.0534 29.5767C30.9794 29.5764 30.9081 29.5489 30.8532 29.4993L26.0159 25.0124C25.9885 24.9853 25.9667 24.9531 25.9519 24.9175C25.9371 24.882 25.9294 24.8438 25.9294 24.8053C25.9294 24.7668 25.9371 24.7287 25.9519 24.6931C25.9667 24.6576 25.9885 24.6254 26.0159 24.5983C26.0433 24.5708 26.076 24.549 26.1119 24.5341C26.1478 24.5192 26.1863 24.5115 26.2252 24.5115C26.2641 24.5115 26.3026 24.5192 26.3385 24.5341C26.3744 24.549 26.4071 24.5708 26.4345 24.5983L31.2718 29.0807C31.2994 29.1081 31.3212 29.1408 31.3361 29.1767C31.351 29.2126 31.3586 29.2511 31.3586 29.29C31.3586 29.3289 31.351 29.3674 31.3361 29.4033C31.3212 29.4392 31.2994 29.4718 31.2718 29.4993C31.243 29.5269 31.2086 29.5481 31.1709 29.5615C31.1333 29.5748 31.0932 29.58 31.0534 29.5767Z" fill="#EE4325"/>
<path d="M25.2241 34.3685C25.1675 34.3684 25.1121 34.352 25.0645 34.3214C25.0169 34.2907 24.9791 34.2471 24.9556 34.1956L22.1888 28.2798C22.1713 28.2446 22.161 28.2063 22.1586 28.1672C22.1562 28.128 22.1618 28.0887 22.175 28.0517C22.1882 28.0147 22.2087 27.9808 22.2353 27.952C22.2619 27.9231 22.2941 27.9 22.3299 27.8839C22.4006 27.8511 22.4813 27.8476 22.5546 27.874C22.6278 27.9004 22.6877 27.9546 22.7213 28.0249L25.4926 33.9407C25.5253 34.0114 25.5289 34.0921 25.5025 34.1654C25.4761 34.2387 25.4218 34.2986 25.3515 34.3321C25.3128 34.3549 25.269 34.3674 25.2241 34.3685Z" fill="#EE4325"/>
<path d="M2.3117 33.8998C2.24998 33.9005 2.1896 33.8818 2.13902 33.8465C2.08843 33.8111 2.05017 33.7608 2.0296 33.7026C2.00904 33.6444 2.00718 33.5812 2.02431 33.5219C2.04144 33.4626 2.07669 33.4102 2.12512 33.3719L10.9442 26.3003C11.006 26.2514 11.0846 26.2288 11.1629 26.2374C11.2412 26.2459 11.313 26.2848 11.3629 26.3458C11.4115 26.4068 11.4339 26.4846 11.4254 26.5622C11.4169 26.6397 11.3781 26.7108 11.3174 26.7599L2.49372 33.8588C2.43882 33.8912 2.37516 33.9055 2.3117 33.8998Z" fill="#EE4325"/>
<path d="M17.9977 9.71305C17.9589 9.71246 17.9205 9.70422 17.8849 9.6888C17.8492 9.67339 17.8169 9.65109 17.7899 9.6232C17.7628 9.59531 17.7415 9.56238 17.7272 9.52626C17.7129 9.49015 17.7059 9.45156 17.7065 9.41272L17.7793 2.88256C17.7816 2.80527 17.8137 2.73185 17.8688 2.6776C17.9239 2.62336 17.9977 2.59244 18.0751 2.59131C18.1141 2.59129 18.1527 2.59913 18.1887 2.61433C18.2246 2.62954 18.2571 2.65181 18.2843 2.67983C18.3115 2.70784 18.3327 2.74101 18.3468 2.7774C18.3609 2.81379 18.3675 2.85266 18.3663 2.89167L18.2935 9.4218C18.2912 9.49909 18.2591 9.5725 18.204 9.62675C18.1489 9.681 18.075 9.71191 17.9977 9.71305Z" fill="#EE4325"/>
<path d="M18.1024 3.36959C17.8189 3.36959 17.5417 3.28552 17.306 3.12801C17.0703 2.9705 16.8865 2.74664 16.7781 2.48471C16.6696 2.22279 16.6412 1.93456 16.6965 1.6565C16.7518 1.37844 16.8883 1.12302 17.0888 0.922548C17.2893 0.722077 17.5447 0.585539 17.8227 0.530229C18.1008 0.474919 18.389 0.503309 18.651 0.611803C18.9129 0.720297 19.1367 0.904046 19.2943 1.13977C19.4518 1.3755 19.5358 1.65263 19.5358 1.93613C19.5358 2.31631 19.3848 2.68092 19.116 2.94975C18.8472 3.21857 18.4826 3.36959 18.1024 3.36959ZM18.1024 1.09428C17.9357 1.09428 17.7728 1.14378 17.6342 1.23649C17.4957 1.32919 17.3878 1.46093 17.3242 1.61503C17.2606 1.76913 17.2442 1.93863 17.2771 2.10206C17.3099 2.26549 17.3905 2.41549 17.5087 2.53304C17.6269 2.6506 17.7774 2.73041 17.941 2.76238C18.1046 2.79435 18.274 2.77702 18.4277 2.71261C18.5815 2.64819 18.7126 2.5396 18.8046 2.40056C18.8966 2.26152 18.9452 2.0983 18.9443 1.93161C18.9372 1.7131 18.8454 1.50591 18.6882 1.35389C18.5311 1.20187 18.321 1.11691 18.1024 1.11703V1.09428Z" fill="#EE4325"/>
<path d="M32.6234 10.4183C32.341 10.4174 32.0652 10.3329 31.8308 10.1753C31.5965 10.0178 31.414 9.7943 31.3066 9.53313C31.1991 9.27195 31.1715 8.98479 31.2271 8.70791C31.2828 8.43103 31.4192 8.17684 31.6192 7.97746C31.8192 7.77808 32.0738 7.64243 32.3509 7.58767C32.6279 7.5329 32.915 7.56149 33.1758 7.66977C33.4367 7.77805 33.6596 7.96119 33.8164 8.19607C33.9732 8.43095 34.0569 8.70702 34.0569 8.98943C34.0557 9.36882 33.9041 9.73226 33.6354 10.0001C33.3667 10.2679 33.0028 10.4183 32.6234 10.4183ZM32.6234 8.14302C32.458 8.14392 32.2966 8.19379 32.1595 8.28634C32.0224 8.37889 31.9158 8.50997 31.8531 8.66305C31.7904 8.81613 31.7745 8.98435 31.8073 9.14647C31.8401 9.30859 31.9202 9.45736 32.0375 9.57401C32.1548 9.69066 32.304 9.76993 32.4663 9.80187C32.6286 9.83382 32.7967 9.81697 32.9495 9.75346C33.1022 9.68996 33.2327 9.58265 33.3245 9.44505C33.4163 9.30746 33.4653 9.14576 33.4653 8.98035C33.4629 8.75907 33.373 8.54775 33.2152 8.39255C33.0575 8.23736 32.8447 8.15092 32.6234 8.15213V8.14302Z" fill="#EE4325"/>
<path d="M4.28665 6.73255C4.00424 6.73165 3.72842 6.64708 3.49404 6.48952C3.25966 6.33197 3.07722 6.10849 2.96977 5.84731C2.86232 5.58614 2.83467 5.29897 2.89032 5.0221C2.94597 4.74522 3.08241 4.49105 3.28242 4.29167C3.48244 4.09229 3.73706 3.95665 4.01411 3.90188C4.29116 3.84712 4.57823 3.87567 4.83906 3.98396C5.09989 4.09224 5.32279 4.27538 5.4796 4.51026C5.63641 4.74514 5.7201 5.02123 5.7201 5.30365C5.7189 5.68303 5.56734 6.04648 5.29865 6.31432C5.02995 6.58216 4.66604 6.73255 4.28665 6.73255ZM4.28665 4.45724C4.12124 4.45814 3.95981 4.50801 3.82271 4.60056C3.68562 4.69311 3.579 4.82419 3.51632 4.97727C3.45364 5.13034 3.43772 5.29854 3.47054 5.46066C3.50336 5.62278 3.58346 5.77155 3.70074 5.8882C3.81802 6.00484 3.96722 6.08415 4.12951 6.11609C4.29181 6.14803 4.45994 6.13118 4.61267 6.06768C4.7654 6.00417 4.89591 5.89686 4.98771 5.75927C5.07952 5.62167 5.12852 5.45995 5.12852 5.29454C5.12612 5.07326 5.03621 4.86193 4.87846 4.70674C4.72071 4.55155 4.50794 4.46511 4.28665 4.46632V4.45724Z" fill="#EE4325"/>
<path d="M1.42888 35.7473C1.14499 35.7491 0.866955 35.6665 0.630032 35.5101C0.393108 35.3537 0.207966 35.1304 0.0980744 34.8687C-0.0118167 34.6069 -0.0415067 34.3184 0.012771 34.0398C0.0670488 33.7611 0.202848 33.5048 0.402952 33.3035C0.603056 33.1021 0.858455 32.9646 1.13676 32.9086C1.41507 32.8525 1.70375 32.8804 1.96621 32.9886C2.22867 33.0968 2.45309 33.2805 2.611 33.5165C2.76892 33.7524 2.85322 34.0299 2.85322 34.3138C2.85323 34.6924 2.70345 35.0556 2.4366 35.3242C2.16974 35.5928 1.80747 35.7449 1.42888 35.7473ZM1.42888 33.4719C1.26308 33.471 1.10075 33.5194 0.962454 33.6108C0.824161 33.7023 0.716137 33.8328 0.652064 33.9857C0.587991 34.1386 0.570756 34.3071 0.602548 34.4698C0.634341 34.6325 0.713725 34.7821 0.830642 34.8997C0.94756 35.0172 1.09674 35.0975 1.25929 35.1301C1.42184 35.1628 1.59043 35.1465 1.74369 35.0832C1.89696 35.02 2.028 34.9127 2.12021 34.7749C2.21241 34.6371 2.26164 34.475 2.26164 34.3092C2.26045 34.0888 2.17233 33.8776 2.01641 33.7217C1.8605 33.5658 1.64937 33.4777 1.42888 33.4765V33.4719Z" fill="#EE4325"/>
<path d="M25.7065 36.5255C25.4239 36.5255 25.1476 36.4417 24.9126 36.2847C24.6777 36.1277 24.4945 35.9045 24.3864 35.6434C24.2782 35.3823 24.2499 35.095 24.305 34.8179C24.3602 34.5407 24.4963 34.2861 24.6961 34.0862C24.8959 33.8864 25.1506 33.7503 25.4277 33.6952C25.7049 33.64 25.9922 33.6684 26.2533 33.7765C26.5144 33.8847 26.7376 34.0678 26.8946 34.3028C27.0516 34.5378 27.1354 34.814 27.1354 35.0966C27.1342 35.4752 26.9833 35.838 26.7156 36.1057C26.4478 36.3734 26.0851 36.5243 25.7065 36.5255ZM25.7065 34.2502C25.5407 34.2502 25.3786 34.2994 25.2408 34.3916C25.103 34.4838 24.9957 34.6149 24.9325 34.7681C24.8693 34.9214 24.8529 35.09 24.8856 35.2526C24.9183 35.4151 24.9985 35.5643 25.116 35.6812C25.2336 35.7981 25.3832 35.8775 25.5459 35.9093C25.7087 35.9411 25.8772 35.9239 26.0301 35.8598C26.183 35.7957 26.3134 35.6877 26.4049 35.5494C26.4964 35.4111 26.5447 35.2488 26.5438 35.083C26.539 34.8641 26.4487 34.6558 26.2922 34.5026C26.1357 34.3495 25.9254 34.2638 25.7065 34.2639V34.2502Z" fill="#EE4325"/>
<path d="M31.8817 31.4787C31.5991 31.4778 31.3231 31.393 31.0887 31.2353C30.8542 31.0775 30.6717 30.8538 30.5644 30.5924C30.4571 30.3309 30.4297 30.0435 30.4858 29.7665C30.5418 29.4895 30.6787 29.2354 30.8791 29.0362C31.0796 28.837 31.3346 28.7017 31.612 28.6474C31.8893 28.5932 32.1766 28.6224 32.4373 28.7314C32.6981 28.8403 32.9206 29.0242 33.0769 29.2597C33.2332 29.4952 33.3161 29.7717 33.3152 30.0543C33.3146 30.242 33.277 30.4276 33.2047 30.6008C33.1323 30.7739 33.0266 30.9311 32.8935 31.0633C32.7603 31.1956 32.6025 31.3004 32.4289 31.3716C32.2553 31.4429 32.0694 31.4793 31.8817 31.4787ZM31.8817 29.2033C31.7165 29.2042 31.5553 29.254 31.4183 29.3464C31.2813 29.4387 31.1747 29.5695 31.1119 29.7223C31.049 29.8751 31.0328 30.0431 31.0653 30.2051C31.0978 30.3671 31.1774 30.5159 31.2942 30.6327C31.4111 30.7495 31.5598 30.8292 31.7218 30.8616C31.8838 30.8941 32.0518 30.8779 32.2046 30.8151C32.3574 30.7523 32.4882 30.6457 32.5806 30.5087C32.6729 30.3717 32.7227 30.2104 32.7236 30.0452C32.723 29.9352 32.7008 29.8265 32.6581 29.7251C32.6155 29.6238 32.5533 29.5318 32.4752 29.4545C32.397 29.3771 32.3043 29.3159 32.2025 29.2744C32.1007 29.2329 31.9917 29.2118 31.8817 29.2124V29.2033Z" fill="#EE4325"/>
<path d="M17.9432 26.3229C16.5598 26.3229 15.2075 25.9126 14.0573 25.1441C12.9071 24.3756 12.0106 23.2832 11.4813 22.0052C10.9519 20.7271 10.8134 19.3208 11.0833 17.964C11.3531 16.6073 12.0193 15.361 12.9974 14.3828C13.9756 13.4047 15.2219 12.7385 16.5786 12.4686C17.9354 12.1987 19.3417 12.3373 20.6198 12.8667C21.8978 13.396 22.9902 14.2925 23.7587 15.4427C24.5273 16.5929 24.9375 17.9452 24.9375 19.3286C24.9351 21.1828 24.1974 22.9604 22.8862 24.2716C21.5751 25.5828 19.7974 26.3205 17.9432 26.3229ZM17.9432 12.9304C16.6766 12.9304 15.4385 13.306 14.3855 14.0097C13.3325 14.7135 12.5119 15.7137 12.0274 16.8839C11.5429 18.0541 11.4164 19.3418 11.6638 20.5839C11.9112 21.826 12.5215 22.9669 13.4174 23.8621C14.3133 24.7574 15.4545 25.3668 16.6968 25.6134C17.9392 25.8599 19.2267 25.7324 20.3965 25.2471C21.5664 24.7618 22.5661 23.9405 23.2691 22.887C23.9721 21.8334 24.3468 20.5951 24.3459 19.3286C24.3447 17.6308 23.6697 16.003 22.4692 14.8025C21.2688 13.602 19.6409 12.927 17.9432 12.9258V12.9304Z" fill="#EE4325"/>
</g>
<defs>
<clipPath id="clip0_44_5314">
<rect width="34.0569" height="36" fill="white" transform="translate(0 0.525391)"/>
</clipPath>
</defs>
</svg>
