<svg width="44" height="37" viewBox="0 0 44 37" fill="none" xmlns="http://www.w3.org/2000/svg">
<path d="M39.8752 34.7112H34.0923C33.9983 34.7112 33.9082 34.6738 33.8418 34.6074C33.7754 34.541 33.738 34.4508 33.738 34.3569V5.00639C33.738 4.91243 33.7754 4.82233 33.8418 4.75589C33.9082 4.68945 33.9983 4.6521 34.0923 4.6521H39.8752C39.9687 4.65351 40.058 4.69128 40.1241 4.75742C40.1903 4.82356 40.2281 4.91287 40.2295 5.00639V34.3514C40.2295 34.4459 40.1923 34.5366 40.126 34.6039C40.0598 34.6712 39.9696 34.7097 39.8752 34.7112ZM34.4248 34.0026H39.5155V5.36068H34.4466L34.4248 34.0026Z" fill="#EE4325"/>
<path d="M32.1629 34.711H26.38C26.2861 34.711 26.196 34.6736 26.1295 34.6072C26.0631 34.5408 26.0258 34.4506 26.0258 34.3567V8.64161C26.0258 8.54765 26.0631 8.45755 26.1295 8.39111C26.196 8.32467 26.2861 8.28735 26.38 8.28735H32.1629C32.2569 8.28735 32.347 8.32467 32.4134 8.39111C32.4799 8.45755 32.5172 8.54765 32.5172 8.64161V34.3512C32.5179 34.3982 32.5093 34.4449 32.4918 34.4885C32.4743 34.5321 32.4484 34.5718 32.4154 34.6053C32.3824 34.6388 32.3431 34.6653 32.2998 34.6835C32.2564 34.7016 32.2099 34.711 32.1629 34.711ZM26.7125 34.0024H31.7868V8.9959H26.7125V34.0024Z" fill="#EE4325"/>
<path d="M24.4505 34.711H18.6676C18.5737 34.711 18.4836 34.6737 18.4171 34.6072C18.3507 34.5408 18.3134 34.4507 18.3134 34.3567V12.179C18.3134 12.085 18.3507 11.9949 18.4171 11.9285C18.4836 11.862 18.5737 11.8247 18.6676 11.8247H24.4505C24.5445 11.8247 24.6346 11.862 24.7011 11.9285C24.7675 11.9949 24.8048 12.085 24.8048 12.179V34.3513C24.8055 34.3983 24.7969 34.4449 24.7794 34.4885C24.762 34.5321 24.736 34.5718 24.703 34.6053C24.67 34.6388 24.6307 34.6654 24.5874 34.6835C24.544 34.7017 24.4975 34.711 24.4505 34.711ZM19.0001 34.0025H24.0744V12.5333H19.0219L19.0001 34.0025Z" fill="#EE4325"/>
<path d="M16.7382 34.7111H10.9553C10.8618 34.7097 10.7725 34.6719 10.7064 34.6058C10.6403 34.5396 10.6025 34.4503 10.6011 34.3568V17.1062C10.6025 17.0127 10.6403 16.9234 10.7064 16.8573C10.7725 16.7911 10.8618 16.7534 10.9553 16.752H16.7382C16.8327 16.7519 16.9234 16.7891 16.9907 16.8554C17.058 16.9217 17.0965 17.0118 17.098 17.1062V34.3514C17.098 34.4468 17.0601 34.5383 16.9926 34.6057C16.9251 34.6732 16.8337 34.7111 16.7382 34.7111ZM11.2878 34.0025H16.3622V17.4605H11.2878V34.0025Z" fill="#EE4325"/>
<path d="M9.03134 34.711H3.24844C3.15448 34.711 3.06436 34.6737 2.99792 34.6072C2.93148 34.5408 2.89417 34.4507 2.89417 34.3567V22.2459C2.89417 22.1519 2.93148 22.0618 2.99792 21.9954C3.06436 21.929 3.15448 21.8916 3.24844 21.8916H9.03134C9.1253 21.8916 9.21541 21.929 9.28185 21.9954C9.34829 22.0618 9.38561 22.1519 9.38561 22.2459V34.3513C9.38633 34.3983 9.37771 34.4449 9.36023 34.4885C9.34275 34.5321 9.31677 34.5718 9.2838 34.6053C9.25083 34.6388 9.21152 34.6654 9.16818 34.6835C9.12484 34.7017 9.07832 34.711 9.03134 34.711ZM3.58092 34.0024H8.65526V22.6002H3.58092V34.0024Z" fill="#EE4325"/>
<path d="M42.7858 36.5259H0.354274C0.260314 36.5259 0.170199 36.4886 0.103759 36.4222C0.037319 36.3557 0 36.2656 0 36.1716C0 36.0777 0.037319 35.9876 0.103759 35.9211C0.170199 35.8547 0.260314 35.8174 0.354274 35.8174H42.7858C42.8797 35.8174 42.9698 35.8547 43.0363 35.9211C43.1027 35.9876 43.1401 36.0777 43.1401 36.1716C43.1401 36.2656 43.1027 36.3557 43.0363 36.4222C42.9698 36.4886 42.8797 36.5259 42.7858 36.5259Z" fill="#EE4325"/>
<path d="M2.06574 17.9456C1.99258 17.947 1.92085 17.9251 1.86105 17.8829C1.80124 17.8408 1.75647 17.7806 1.73325 17.7112C1.70168 17.623 1.70632 17.5259 1.74616 17.4411C1.78599 17.3564 1.85779 17.2908 1.94583 17.2588C2.13659 17.188 21.0223 10.3204 29.3233 0.651411C29.3537 0.615623 29.3908 0.586174 29.4326 0.564752C29.4744 0.543329 29.52 0.530357 29.5669 0.526561C29.6137 0.522765 29.6608 0.52822 29.7055 0.542629C29.7502 0.557038 29.7916 0.580107 29.8274 0.610527C29.8632 0.640946 29.8926 0.678108 29.9141 0.719907C29.9355 0.761707 29.9485 0.807323 29.9523 0.854139C29.9561 0.900954 29.9506 0.948056 29.9362 0.992761C29.9218 1.03747 29.8987 1.0789 29.8683 1.11468C21.4474 10.9254 2.38731 17.8584 2.19654 17.9238C2.15501 17.9404 2.1104 17.9478 2.06574 17.9456Z" fill="#EE4325"/>
<path d="M29.4922 5.53508C29.3987 5.53367 29.3094 5.49593 29.2432 5.42979C29.1771 5.36365 29.1393 5.27434 29.1379 5.18082V1.36553H25.5188C25.4726 1.36625 25.4266 1.35775 25.3837 1.34055C25.3407 1.32334 25.3016 1.29776 25.2686 1.2653C25.2357 1.23283 25.2095 1.19414 25.1916 1.15146C25.1738 1.10878 25.1645 1.06297 25.1646 1.0167C25.1645 0.922226 25.2017 0.831542 25.268 0.764234C25.3343 0.696927 25.4244 0.658414 25.5188 0.656982H29.4867C29.582 0.658802 29.6732 0.695675 29.7429 0.760542C29.8088 0.827399 29.846 0.917355 29.8465 1.01124V5.19715C29.8423 5.28825 29.8031 5.37423 29.7371 5.43717C29.6711 5.50012 29.5834 5.53518 29.4922 5.53508Z" fill="#EE4325"/>
</svg>
