<svg width="33" height="37" viewBox="0 0 33 37" fill="none" xmlns="http://www.w3.org/2000/svg">
<path fill-rule="evenodd" clip-rule="evenodd" d="M14.4605 0.656327C13.9852 0.841994 12.7338 1.69702 11.5375 2.65351C5.82096 7.22407 1.30393 13.6378 0.283354 18.6333C0.0278237 19.884 -0.0291641 20.5419 0.0122752 21.7641C0.0878369 23.9953 0.681073 25.7046 2.0072 27.512C3.63389 29.7289 5.98735 31.1463 8.76702 31.5832C9.74841 31.7374 11.5179 31.6881 12.5457 31.4779C13.3968 31.3039 14.3902 30.979 15.1773 30.6174C15.5004 30.4689 15.791 30.3474 15.8231 30.3474C15.8552 30.3474 15.9298 30.5137 15.9889 30.7168C16.1465 31.2587 16.7363 32.4174 17.156 33.0095C19.0343 35.6594 22.472 37.0184 25.6356 36.3616C29.576 35.5435 32.3546 32.1399 32.3546 28.1312C32.3546 25.0941 30.7645 22.3653 28.0981 20.8269C27.063 20.2296 26.0458 19.9161 24.7095 19.7826C23.7346 19.6851 22.7623 19.7631 21.8704 20.0103C21.3108 20.1653 21.2422 20.1419 21.2389 19.7941C21.2359 19.4864 20.9163 18.1899 20.4411 16.5576C19.7469 14.1733 19.6183 13.5119 19.611 12.2889C19.6046 11.2319 19.6976 10.7339 20.0837 9.75708C20.2544 9.32517 20.3942 8.89157 20.3942 8.79363C20.3942 8.69563 20.3204 8.52966 20.2302 8.42483C20.0186 8.1788 19.5147 8.12976 18.776 8.2832C17.9204 8.46085 17.1556 8.88995 16.4443 9.59118C15.8849 10.1428 15.8031 10.2608 15.4187 11.0701C15.189 11.5537 14.9544 12.0566 14.8974 12.1874L14.7937 12.4253L14.3529 11.9012C13.8702 11.3272 13.629 10.9395 13.4201 10.4017C12.8469 8.92597 12.995 6.9893 13.8441 4.85943C14.1617 4.06279 15.0939 2.09341 15.3712 1.63321C15.6634 1.14846 15.6692 0.987278 15.4043 0.72239C15.162 0.480086 14.9497 0.465171 14.4605 0.656327ZM13.3247 3.04707C13.0093 3.66944 12.4643 5.05382 12.2822 5.69539C11.6388 7.96147 11.7952 10.1707 12.7083 11.7127C13.0202 12.2396 14.49 13.9399 14.7136 14.0325C14.8786 14.1009 14.9583 14.0965 15.1402 14.0094C15.3722 13.8983 15.7044 13.3055 16.4799 11.6189C16.8366 10.8433 17.2474 10.3512 17.884 9.93698C18.2831 9.6773 18.7538 9.47664 18.8167 9.5394C18.8338 9.55657 18.7982 9.71015 18.7374 9.88062C18.3342 11.0121 18.2938 12.7719 18.6327 14.4344C18.7092 14.8089 18.9952 15.8912 19.2685 16.8392C19.83 18.7868 20.0148 19.5558 20.0801 20.2163L20.1253 20.6736L19.7631 20.8734C19.2024 21.1828 18.3429 21.857 17.9019 22.3334C16.3665 23.9918 15.6006 25.9235 15.6006 28.1378V29.0612L14.9193 29.3836C14.5446 29.5609 14.1168 29.7548 13.9685 29.8145L13.6989 29.9229L13.9471 29.5774C14.4142 28.9273 14.7822 28.0599 15.0233 27.0407C15.221 26.2053 15.2019 24.4562 14.986 23.6285C14.6418 22.3083 14.0594 21.3246 12.4448 19.3368C11.6778 18.3924 11.1904 17.6413 10.5642 16.4387C9.88004 15.1247 9.60516 14.913 9.14335 15.3441C8.84568 15.622 6.80917 18.5649 6.41377 19.2885C5.77403 20.4593 5.29871 21.8802 5.13098 23.1235C5.02376 23.9179 5.04015 25.3525 5.16532 26.1242C5.35429 27.2892 5.76784 28.3458 6.40969 29.3029L6.72172 29.7681L6.28741 29.5733C4.64398 28.8359 3.02595 27.2237 2.12941 25.4301C1.51605 24.2031 1.2594 23.1701 1.20501 21.7096C1.15203 20.2872 1.36169 18.9111 1.8667 17.3669C3.40291 12.6692 7.71549 7.07759 12.8004 3.19046C13.1549 2.91945 13.4577 2.69776 13.4733 2.69776C13.4889 2.69776 13.4221 2.85493 13.3247 3.04707ZM27.5704 5.61751V6.49695H26.691H25.8115V7.09497V7.69299H26.691H27.5704V8.60761V9.52223H28.1663H28.7622L28.7819 8.6252L28.8016 7.72817L29.6987 7.70847L30.5957 7.68877V7.09286V6.49695H29.6811H28.7665V5.61751V4.73807H28.1684H27.5704V5.61751ZM23.9674 9.50464L23.9471 10.1203L23.3667 10.1407L22.7862 10.1611V10.7563V11.3515H23.3843H23.9823V11.9495V12.5475H24.5803H25.1783V11.9495V11.3515H25.7764H26.3744V10.7535V10.1554H25.7764H25.1783V9.52223V8.88903H24.5831H23.9878L23.9674 9.50464ZM16.6126 14.5366C16.3804 14.5812 16.2432 14.6435 16.2432 14.7044C16.2432 14.8794 16.6463 16.4286 17.0367 17.7538C17.2476 18.4697 17.4741 19.3008 17.5401 19.6006C17.6465 20.085 17.6777 20.1459 17.8192 20.1459C17.9644 20.1459 18.7855 20.0028 18.83 19.9698C18.8776 19.9344 18.5983 18.831 18.1178 17.1558C17.8293 16.1497 17.5544 15.1287 17.5071 14.8868C17.4228 14.4565 17.4162 14.4473 17.2014 14.4563C17.0807 14.4615 16.8157 14.4976 16.6126 14.5366ZM9.76874 17.5211C10.2415 18.3974 10.7775 19.1776 11.6859 20.3116C13.0177 21.9738 13.5101 22.7961 13.8199 23.8747C14.0172 24.5618 14.0044 26.2301 13.7957 27.0276C13.3631 28.6807 12.4626 29.7719 11.2128 30.1576C10.0691 30.5105 8.94678 30.274 8.12594 29.507C7.39305 28.8222 6.76069 27.6905 6.45324 26.5131C6.30669 25.9518 6.28805 25.724 6.28917 24.5079C6.2903 23.2566 6.3069 23.0707 6.47808 22.3931C6.67824 21.6006 6.9643 20.8269 7.31144 20.1392C7.6058 19.5561 9.34963 16.9799 9.45003 16.9799C9.46481 16.9799 9.60819 17.2234 9.76874 17.5211ZM24.8284 20.9935C27.9693 21.3819 30.4597 23.7242 31.0522 26.8472C31.2743 28.0183 31.1311 29.605 30.7054 30.6894C29.475 33.8234 26.3001 35.7147 23.02 35.2677C22.3512 35.1765 21.1416 34.7837 20.6093 34.4848C19.1655 33.674 18.1497 32.6009 17.4723 31.171C16.9412 30.0498 16.847 29.5973 16.8466 28.1664C16.8462 26.6752 16.9617 26.1426 17.5406 24.9652C18.3197 23.3811 19.5254 22.2231 21.0977 21.5489C22.3638 21.006 23.5279 20.8327 24.8284 20.9935ZM24.5599 24.5255L24.5803 25.106L25.3514 25.1261L26.1225 25.1462L22.7297 28.5396L19.3369 31.9329L19.761 32.3526L20.1851 32.7722L23.5438 29.414C25.3912 27.567 26.9262 26.0558 26.9551 26.0558C26.9839 26.0558 27.0076 26.3882 27.0076 26.7945V27.5332H27.6104H28.2131L28.1908 25.9088L28.1684 24.2845L27.971 24.1148C27.7748 23.9461 27.7642 23.9451 26.1566 23.9451H24.5394L24.5599 24.5255ZM20.6282 24.5825C20.2007 24.6655 19.9543 24.8136 19.6291 25.1829C19.3079 25.5479 19.1988 25.8497 19.1992 26.3724C19.1997 27.0275 19.6826 27.7418 20.2988 27.9993C20.692 28.1636 21.3664 28.1237 21.7935 27.9108C23.0751 27.2723 23.0796 25.399 21.8013 24.7572C21.4185 24.5651 21.0223 24.506 20.6282 24.5825ZM21.4918 26.0971C21.6647 26.511 21.4162 26.8935 20.9714 26.8978C20.6576 26.9008 20.3942 26.6359 20.3942 26.3175C20.3942 25.7093 21.2574 25.536 21.4918 26.0971ZM24.981 29.5447C23.8412 30.1127 23.6462 31.6116 24.6002 32.4717C24.8764 32.7207 25.4411 32.9506 25.7764 32.9506C26.1116 32.9506 26.6763 32.7207 26.9525 32.4717C28.1819 31.3634 27.425 29.3625 25.7764 29.3625C25.455 29.3625 25.2544 29.4084 24.981 29.5447ZM26.2019 30.7447C26.5531 31.1237 26.2943 31.7123 25.7764 31.7123C25.5749 31.7123 25.4721 31.6661 25.3451 31.5184C25.1523 31.2943 25.1365 31.1248 25.2824 30.8428C25.4019 30.6118 25.4757 30.5717 25.7973 30.5641C25.9624 30.5601 26.079 30.6122 26.2019 30.7447Z" fill="#EE4325"/>
</svg>
