<svg width="36" height="37" viewBox="0 0 36 37" fill="none" xmlns="http://www.w3.org/2000/svg">
<path fill-rule="evenodd" clip-rule="evenodd" d="M15.7249 0.641897C12.6 1.05084 9.78396 2.19234 7.21557 4.09109C6.21689 4.8294 4.40549 6.62119 3.66318 7.60502C2.46253 9.19626 1.53577 10.9689 0.915339 12.8608C0.283564 14.7873 0.00125518 16.5184 3.81244e-06 18.4743C-0.00500167 26.277 4.9193 33.1281 12.3062 35.5961C19.6567 38.0518 27.7479 35.5331 32.4051 29.3393C34.205 26.9455 35.3728 24.1505 35.8426 21.1118C36.046 19.7967 36.046 17.1682 35.8427 15.9058C35.5273 13.9477 35.0165 12.3272 34.1598 10.5666C31.4772 5.05356 26.0674 1.26775 19.9202 0.601687C18.8499 0.485726 16.7655 0.505665 15.7249 0.641897ZM19.5327 2.01907C23.5474 2.42301 27.2231 4.21072 29.9666 7.09371C32.2279 9.46981 33.7408 12.4533 34.3293 15.6972C34.5164 16.7288 34.5889 19.3364 34.4606 20.426C33.6506 27.3046 28.7712 32.9012 22.0697 34.6383C20.5212 35.0397 19.3722 35.1588 17.5185 35.1103C15.3871 35.0544 13.8098 34.7587 12.08 34.0906C3.70289 30.8554 -0.60349 21.7629 2.22269 13.2779C3.28602 10.0855 5.3597 7.2211 8.04981 5.22917C11.3571 2.78032 15.5232 1.61563 19.5327 2.01907ZM9.74617 9.06495C9.03047 9.20068 8.3116 9.45379 7.50647 9.85356C6.63418 10.2867 5.67221 10.8913 5.67221 11.0065C5.67221 11.1721 6.24192 12.2641 6.61558 12.8148C7.08551 13.5074 7.91542 14.3006 8.57581 14.6884C10.0353 15.5455 11.7238 15.6556 13.6391 15.0185C14.3966 14.7666 16.0169 13.9727 16.0169 13.8535C16.0169 13.7552 14.558 12.801 13.9047 12.472C12.6012 11.8155 10.8364 11.3646 9.0092 11.2211C8.28607 11.1643 8.24953 11.1536 8.59207 11.0983C9.24337 10.9933 11.051 11.0198 11.6996 11.144C13.1198 11.4157 14.5138 12.0451 15.7971 12.994C16.1933 13.287 16.5174 13.513 16.5174 13.4963C16.5174 13.3947 16.1093 12.5706 15.8342 12.1167C14.8994 10.5746 13.6927 9.57359 12.2628 9.1538C11.6015 8.95967 10.5053 8.92096 9.74617 9.06495ZM21.7828 9.51411C21.3783 9.91863 21.6359 10.2089 22.524 10.349C23.3649 10.4817 24.0452 10.8147 24.6882 11.4083C26.3709 12.9619 26.7716 15.067 25.7696 17.0897C25.3163 18.0047 24.5424 18.8151 23.77 19.1834C22.8449 19.6247 22.507 19.6476 17.6942 19.5968C15.2902 19.5714 11.1481 19.5716 8.48963 19.5973C3.2866 19.6476 3.41975 19.635 3.41975 20.077C3.41975 20.5645 2.81809 20.536 13.0821 20.5344C23.38 20.5328 23.1026 20.5453 24.133 20.0376C26.2212 19.0088 27.539 16.5038 27.1933 14.22C26.8112 11.6954 24.8144 9.65493 22.4711 9.39448C22.0179 9.34409 21.9392 9.35777 21.7828 9.51411ZM18.6865 11.5062C18.4642 11.5917 18.1037 11.855 17.8031 12.1514C17.2097 12.7365 16.9802 13.2758 16.9866 14.0704C16.994 15.0004 17.6644 15.8943 18.552 16.158C19.0745 16.3131 19.0715 16.3133 19.2643 16.1205C19.5296 15.8551 19.4011 15.6393 18.8886 15.4904C17.7819 15.1686 17.3785 14.0094 18.0208 12.9966C18.801 11.7664 20.5132 11.7638 21.5936 12.9912C22.0425 13.5013 22.2162 14.0423 22.1775 14.8099C22.122 15.9103 21.4637 16.8862 20.4189 17.4168C19.5334 17.8666 19.5387 17.8662 13.1574 17.8662C9.24229 17.8662 7.19179 17.8954 7.08492 17.9526C6.87494 18.065 6.87494 18.4184 7.08492 18.5307C7.19187 18.588 9.22552 18.6166 13.1124 18.6157C19.6146 18.614 19.6574 18.611 20.7304 18.0799C23.5209 16.6988 23.6999 12.9371 21.0371 11.6343C20.4366 11.3404 19.281 11.2775 18.6865 11.5062ZM6.19136 21.5834C6.08783 21.6559 6.00591 21.8011 6.00591 21.9123C6.00591 22.3872 5.74805 22.3712 13.3872 22.3712C17.701 22.3712 20.5071 22.4025 20.682 22.4527C21.1272 22.5804 21.5963 22.9502 21.841 23.3664C22.1382 23.872 22.1491 24.6429 21.8672 25.222C21.5073 25.9614 20.7536 26.5362 20.1385 26.5406C19.7164 26.5436 19.4399 27.0123 19.7042 27.2765C19.8579 27.4302 20.5484 27.3956 21.0467 27.2091C22.5232 26.6567 23.3964 24.7894 22.8549 23.3422C22.5283 22.4693 21.6471 21.7605 20.622 21.546C20.3189 21.4826 18.009 21.4535 13.2783 21.4535C7.16685 21.4535 6.35554 21.4684 6.19136 21.5834ZM25.4856 22.5922C25.1582 22.6411 24.4428 22.8726 24.4428 22.9297C24.4428 22.9541 24.6345 23.1957 24.8691 23.4662C25.3874 24.0646 26.548 25.0488 27.4242 25.6329C28.2744 26.1997 28.3476 26.2808 27.7321 25.9736C26.8377 25.5272 25.6734 24.691 24.8807 23.9259L24.1091 23.1809V23.5774C24.1091 24.955 24.9395 26.2689 26.0944 26.7187C26.7453 26.972 28.0862 27.0291 28.9917 26.8419C29.3513 26.7675 29.6612 26.6909 29.6805 26.6716C29.8253 26.5269 28.9214 24.5945 28.3953 23.9243C27.6242 22.9417 26.5224 22.4373 25.4856 22.5922Z" fill="#EE4325"/>
</svg>
