<svg width="36" height="37" viewBox="0 0 36 37" fill="none" xmlns="http://www.w3.org/2000/svg">
<path fill-rule="evenodd" clip-rule="evenodd" d="M14.2729 0.85502C7.28265 2.38935 1.75749 7.88298 0.317121 14.7309C-0.143753 16.9213 -0.0962379 20.6164 0.420248 22.7709C1.99336 29.3321 7.14224 34.469 13.7402 36.0596C16.319 36.6813 19.8554 36.6813 22.2631 36.0594C24.5837 35.4602 27.9436 33.7542 29.5195 32.3749C33.6286 28.7791 35.6877 24.5887 35.9378 19.3136C36.2826 12.0456 32.2589 5.36085 25.6722 2.2581C23.1286 1.05999 21.4828 0.666665 18.5343 0.552458C16.6531 0.479375 15.6634 0.549688 14.2729 0.85502ZM21.3439 2.25767C24.5879 2.94504 27.0841 4.32745 29.6356 6.84894C31.69 8.87952 32.8792 10.7899 33.8131 13.5607C34.3379 15.1176 34.3882 15.5514 34.3924 18.5679C34.3969 21.64 34.3558 21.9896 33.8026 23.5751C31.4966 30.1856 25.9665 34.5402 19.1559 35.108C16.103 35.3626 12.1899 34.4432 9.4498 32.8273C7.69772 31.7941 4.71514 28.7821 3.66384 26.9842C0.792059 22.0733 0.586657 16.3997 3.09302 11.2169C5.29917 6.65526 9.49838 3.36181 14.486 2.28196C16.2973 1.88991 19.5539 1.87819 21.3439 2.25767ZM14.486 4.61467C13.8414 4.79003 12.4991 5.33123 11.503 5.81725C8.23657 7.41103 5.37118 10.7906 4.29837 14.3141C3.78657 15.9953 3.52215 17.9389 3.70582 18.6706L3.84048 19.2071H10.6547C14.4027 19.2071 17.469 19.2589 17.469 19.3222C17.469 19.7862 16.4839 21.1586 15.6621 21.8396C15.1169 22.2915 14.5156 22.9866 14.3257 23.3844L13.981 24.1078H9.88831C6.44698 24.1078 5.77602 24.1587 5.67289 24.4274C5.60556 24.6032 5.60556 24.8908 5.67289 25.0666C5.77602 25.3351 6.43995 25.3862 9.82652 25.3862H13.8574L14.0694 25.9721C14.6635 27.6124 15.5835 28.4911 17.0524 28.8211C18.8324 29.2211 21.0298 27.9494 21.5482 26.2195L21.7952 25.3949L25.971 25.3374L30.1467 25.2797V24.747V24.2143L25.9437 24.1566C20.9239 24.0875 21.1012 24.1909 21.5069 21.5731C21.6448 20.682 21.8054 19.7869 21.8638 19.5838C21.9599 19.2493 22.4419 19.2095 27.0171 19.1577L32.0644 19.1006L32.1279 17.7678C32.2715 14.7514 30.6102 10.9753 28.0269 8.44698C26.2684 6.72557 24.753 5.76846 22.5475 4.98563C21.2484 4.52454 20.5353 4.4195 18.3213 4.36346C16.4356 4.31552 15.3157 4.38903 14.486 4.61467ZM20.8781 6.01647C22.0268 6.26513 24.0742 7.05541 24.0742 7.25037C24.0742 7.32665 23.8283 7.75109 23.5279 8.19321C22.8789 9.14841 22.9066 9.90887 23.5939 10.0065C23.9662 10.0593 24.2025 9.85986 24.6593 9.10772C24.9819 8.57589 25.3447 8.13781 25.4653 8.13419C25.9426 8.11949 29.1879 11.779 29.1879 12.3319C29.1879 12.4404 28.7134 12.7512 28.1332 13.0229C27.0031 13.5524 26.6911 13.9719 27.0796 14.4401C27.4135 14.8423 27.7403 14.8093 28.8736 14.2585C30.0274 13.6981 30.118 13.7734 30.4691 15.5849C30.594 16.2294 30.7423 16.9726 30.7983 17.2362L30.9006 17.7156H26.5245H22.1485L22.258 17.2362C22.7809 14.9467 23.1595 12.0377 22.9652 11.8037C22.396 11.1178 21.9814 11.5472 20.2389 14.6261L18.4904 17.7156H11.8006C5.89555 17.7156 5.11081 17.6768 5.11081 17.3847C5.11081 17.2027 5.26231 16.3877 5.44746 15.5736C5.8148 13.9583 5.92901 13.8807 7.10836 14.4432C7.99452 14.8658 8.51996 14.7104 8.51996 14.0258C8.51996 13.6395 8.31477 13.4265 7.65745 13.1299C7.18293 12.9159 6.74464 12.6596 6.68307 12.5603C6.42951 12.15 9.60961 8.31829 10.1787 8.34854C10.2625 8.35302 10.5983 8.74294 10.9251 9.21489C11.5417 10.106 12.0231 10.2244 12.4262 9.58415C12.5986 9.31056 12.5151 9.02654 12.0601 8.33938C11.7361 7.84974 11.5021 7.42168 11.5403 7.38823C12.1705 6.83467 15.3093 5.78358 16.3316 5.78358C16.768 5.78358 16.8148 5.89737 16.8728 7.09312C16.9184 8.03405 17.0362 8.46531 17.2913 8.62554C17.9526 9.04081 18.3213 8.43867 18.3213 6.9427V5.59736L19.1203 5.70326C19.5598 5.76143 20.3508 5.90248 20.8781 6.01647ZM20.5692 18.7087C20.381 19.7445 20.1752 20.851 20.1119 21.1676L19.9966 21.7431L19.2121 21.387C18.7809 21.191 18.3969 21.0131 18.3594 20.9916C18.3217 20.9701 18.8439 19.9872 19.5198 18.8076C20.1957 17.628 20.7852 16.6995 20.8298 16.744C20.8745 16.7887 20.7571 17.6728 20.5692 18.7087ZM19.5145 23.3407C20.1219 23.9482 20.2389 24.2186 20.2389 25.0165C20.2389 27.2512 17.6614 28.3185 16.1364 26.7153C15.0781 25.6025 15.1122 24.2629 16.2253 23.2231C16.7398 22.7424 17.0739 22.6163 17.8325 22.6163C18.6375 22.6163 18.9055 22.7317 19.5145 23.3407Z" fill="#EE4325"/>
</svg>
