<svg width="37" height="37" viewBox="0 0 37 37" fill="none" xmlns="http://www.w3.org/2000/svg">
<path fill-rule="evenodd" clip-rule="evenodd" d="M8.28923 0.596955C8.0681 0.758582 6.63184 2.83548 6.63184 2.9938C6.63184 3.04259 6.59981 3.08285 6.56078 3.08323C6.52175 3.08361 6.44292 3.17958 6.3857 3.2964C6.32848 3.41321 6.10186 3.86389 5.88216 4.2979C5.35369 5.34156 5.13086 6.34155 5.2924 6.94533C5.72413 8.5598 6.92269 9.59465 8.47407 9.69261C10.7887 9.8388 12.5641 7.76341 12.0298 5.53616C11.8123 4.62977 10.6639 2.60356 9.49802 1.06924C9.12484 0.578196 9.04952 0.524668 8.73432 0.525899C8.5419 0.526752 8.34162 0.558679 8.28923 0.596955ZM8.90949 2.49034C9.21911 2.855 10.1563 4.42343 10.4687 5.0995C11.0191 6.29086 10.8956 7.19412 10.0849 7.9059C9.6317 8.30381 9.39115 8.38794 8.70694 8.38794C8.03049 8.38794 7.63211 8.23674 7.21837 7.823C6.74732 7.35195 6.59261 6.9891 6.59072 6.35102C6.58949 5.91806 6.65382 5.6471 6.86083 5.21413C7.24689 4.40647 8.54957 2.32455 8.66876 2.32455C8.7238 2.32455 8.83209 2.39911 8.90949 2.49034ZM26.5108 3.10616C26.1238 3.41681 24.9409 5.29978 24.5774 6.18371C24.3304 6.78446 24.2831 7.50297 24.4568 8.01855C24.6157 8.49045 25.1495 9.10759 25.6569 9.40583C26.0478 9.63567 26.1978 9.66694 26.9085 9.66694C27.6617 9.66694 27.7489 9.64572 28.207 9.35183C28.7466 9.00546 29.2212 8.3706 29.3794 7.78302C29.6008 6.96049 29.2656 5.99423 28.1729 4.305C27.4009 3.11146 26.9285 2.77078 26.5108 3.10616ZM27.2294 5.22948C27.7348 6.02653 28.1374 6.91596 28.1377 7.23646C28.1382 7.91016 27.6101 8.38794 26.8647 8.38794C25.8062 8.38794 25.3422 7.39241 25.9086 6.33615C26.3147 5.57851 26.8156 4.78761 26.8869 4.79131C26.9236 4.7932 27.0777 4.99036 27.2294 5.22948ZM17.5622 5.37993C17.0708 5.90877 15.1585 8.66913 15.1585 8.84971C15.1585 8.89973 15.123 8.95477 15.0795 8.97221C14.947 9.02507 14.0652 10.7503 13.7009 11.6689C13.5122 12.1448 13.3312 12.7888 13.2987 13.1001C13.1051 14.9528 14.2224 16.9041 15.9628 17.7527C16.8001 18.1609 17.3983 18.2726 18.4691 18.2204C19.2784 18.181 19.4549 18.1374 20.1324 17.8102C21.828 16.9911 22.9272 15.259 22.9272 13.4063C22.9272 12.0261 21.627 9.47878 19.1568 6.01943C18.4178 4.98448 18.0623 4.8419 17.5622 5.37993ZM18.8308 7.84318C20.2639 9.95495 21.1683 11.5906 21.4625 12.603C21.9264 14.1986 21.0909 15.9837 19.5435 16.7033C19.0686 16.9241 18.8752 16.9579 18.0954 16.9567C17.3003 16.9553 17.1301 16.9236 16.6354 16.6839C15.1238 15.9518 14.3283 14.3507 14.6844 12.7573C14.8884 11.8446 15.7946 10.1542 17.1791 8.10372C17.9087 7.0232 18.0163 6.88119 18.1099 6.87569C18.1439 6.8737 18.4683 7.30913 18.8308 7.84318ZM28.8011 14.5215C28.5689 14.6118 28.4284 14.8581 28.4252 15.1802C28.4204 15.6676 28.6767 15.7777 29.817 15.7777C30.3525 15.7777 30.7907 15.8098 30.7907 15.849C30.7907 15.8883 27.9341 18.7766 24.4428 22.2677L18.0948 28.615L11.0865 21.6042C5.16004 15.6756 4.03272 14.5888 3.78299 14.5631C3.39976 14.5237 3.12644 14.7691 3.12644 15.1526C3.12644 15.4142 3.84542 16.1647 9.82904 22.1487L16.5317 28.8519H8.49841H0.465081L0.232588 29.0845C0.0071057 29.3099 0 29.3589 0 30.6846C0 31.8898 0.0215063 32.0787 0.181144 32.2757L0.362193 32.4994L18.0432 32.5238L35.7243 32.5483L35.9576 32.3149C36.1842 32.0884 36.1909 32.0419 36.1909 30.6993C36.1909 29.358 36.184 29.3101 35.9583 29.0845L35.7258 28.8519H27.6962H19.6665L25.6786 22.8373C28.9853 19.5292 31.7226 16.822 31.7618 16.8213C31.8009 16.8205 31.8328 17.258 31.8328 17.7935C31.8328 18.9359 31.942 19.1884 32.4359 19.1884C32.6053 19.1884 32.8267 19.1279 32.9279 19.054C33.0977 18.9301 33.1141 18.7722 33.1412 16.9979C33.1726 14.9445 33.1385 14.7482 32.718 14.5565C32.478 14.4473 29.0706 14.4168 28.8011 14.5215ZM34.8645 30.6993V31.2204H18.0954H1.32637V30.6993V30.1783H18.0954H34.8645V30.6993ZM0.408806 35.2943C-0.0142109 35.4659 -0.100615 36.0328 0.243767 36.3771C0.377825 36.5112 2.13564 36.5259 18.0985 36.5259H35.8045L35.9977 36.3185C36.2383 36.0604 36.2404 35.7906 36.0047 35.4837L35.8227 35.2469L18.2193 35.2287C8.16891 35.2183 0.527042 35.2465 0.408806 35.2943Z" fill="#EE4325"/>
</svg>
