<svg width="31" height="37" viewBox="0 0 31 37" fill="none" xmlns="http://www.w3.org/2000/svg">
<path fill-rule="evenodd" clip-rule="evenodd" d="M14.8735 1.23745C14.368 1.67513 0.09388 15.4219 0.0251874 15.5373C-0.0132989 15.6021 -0.00716557 15.7221 0.0400606 15.8257C0.198606 16.1736 14.9413 36.8707 15.0857 36.9479C15.1862 37.0018 15.2792 37.0018 15.3801 36.9478C15.525 36.8702 30.2655 16.1766 30.4247 15.8272C30.4723 15.7225 30.4788 15.602 30.4402 15.5369C30.3672 15.4138 15.9553 1.53568 15.5509 1.19911C15.4116 1.08319 15.267 0.988281 15.2295 0.988281C15.192 0.988281 15.0318 1.10037 14.8735 1.23745ZM18.5983 11.1878C20.4282 15.9103 21.9056 19.794 21.8814 19.8183C21.8572 19.8425 20.3523 20.0671 18.5372 20.3176L15.2371 20.7728L11.9313 20.3162C10.113 20.0651 8.60617 19.8404 8.58271 19.8169C8.53671 19.7709 15.1689 2.60148 15.2327 2.60148C15.2538 2.60148 16.7682 6.46537 18.5983 11.1878ZM10.9585 11.3232C8.41373 17.8811 7.74383 19.5377 7.65137 19.5023C7.58758 19.4778 6.07934 18.5951 4.29961 17.5405L1.06378 15.6233L2.07247 14.6419C4.71583 12.0701 14.1099 3.05995 14.1286 3.07858C14.1402 3.09023 12.7137 6.80032 10.9585 11.3232ZM23.0526 9.49758C26.447 12.7574 29.2698 15.4661 29.3253 15.5168C29.4062 15.5907 28.7766 15.9945 26.182 17.5328C24.3976 18.5907 22.8839 19.4766 22.8182 19.5014C22.7212 19.538 22.1007 18.0072 19.5215 11.368C17.7741 6.86978 16.3314 3.15133 16.3156 3.10472C16.276 2.98819 16.137 2.85617 23.0526 9.49758ZM4.70541 18.7091C6.21549 19.6006 7.50747 20.3855 7.57639 20.4533C7.64531 20.521 8.34129 22.0426 9.12312 23.8347C9.90496 25.6268 11.099 28.3496 11.7766 29.8853C12.4542 31.4211 13.0001 32.6859 12.9898 32.6959C12.9795 32.7059 10.6522 29.4483 7.81812 25.457C1.57706 16.6672 1.8736 17.0881 1.92098 17.0881C1.94222 17.0881 3.19524 17.8176 4.70541 18.7091ZM28.1916 17.6439C25.9852 20.7771 17.4899 32.7098 17.4756 32.6959C17.4653 32.6859 18.0112 31.4211 18.6888 29.8853C19.3664 28.3496 20.5605 25.6268 21.3425 23.8347C22.1244 22.0426 22.8032 20.5345 22.851 20.4833C22.9499 20.3771 28.4242 17.1052 28.5203 17.0949C28.5548 17.0912 28.4069 17.3382 28.1916 17.6439ZM11.8075 21.1073C13.4445 21.3345 14.7988 21.5353 14.817 21.5535C14.8353 21.5718 14.8414 24.5498 14.8307 28.1715L14.811 34.7563L13.5543 31.9213C12.3908 29.2968 8.74662 21.0053 8.66075 20.7872C8.63998 20.7346 8.66988 20.692 8.72707 20.6929C8.78426 20.6936 10.1705 20.8802 11.8075 21.1073ZM21.8047 20.7872C21.7188 21.0053 18.0746 29.2968 16.9111 31.9213L15.6544 34.7563L15.6347 28.1715C15.624 24.5498 15.6298 21.5721 15.6475 21.5544C15.6821 21.5198 21.3587 20.7128 21.6617 20.6994C21.7773 20.6942 21.8288 20.7259 21.8047 20.7872Z" fill="#EE4325"/>
</svg>
