<svg width="32" height="37" viewBox="0 0 32 37" fill="none" xmlns="http://www.w3.org/2000/svg">
<path fill-rule="evenodd" clip-rule="evenodd" d="M15.5411 1.009C14.4978 1.20037 13.7049 1.89875 13.3958 2.89849C13.2921 3.2339 13.2639 3.80362 13.3348 4.13356C13.3639 4.26942 13.3774 4.39092 13.3647 4.40359C13.3139 4.45412 4.6417 9.44438 4.60465 9.44438C4.58274 9.44438 4.48075 9.36756 4.378 9.27362C4.00024 8.92837 3.37706 8.67853 2.80818 8.64423C1.73984 8.57986 0.745045 9.16222 0.254509 10.1392C-0.0850303 10.8155 -0.0848186 11.7818 0.255038 12.4548C0.588896 13.1159 1.15911 13.6106 1.84659 13.8357L2.03185 13.8963V18.9408C2.03185 23.7142 2.02853 23.9862 1.9701 24.0042C0.989625 24.3071 0.331048 24.9729 0.0693184 25.9258C-0.0249706 26.2691 -0.0178777 26.9176 0.0840688 27.2756C0.340117 28.1749 1.00533 28.8527 1.90834 29.1344C2.71915 29.3874 3.80069 29.1528 4.38502 28.5973C4.45422 28.5315 4.52208 28.4968 4.56146 28.5072C4.62374 28.5236 13.3186 33.5298 13.3647 33.5758C13.3774 33.5885 13.3639 33.7101 13.3348 33.8459C13.2639 34.1758 13.2921 34.7456 13.3958 35.081C13.6733 35.9787 14.357 36.6499 15.2539 36.9053C15.6427 37.016 16.2631 37.016 16.6519 36.9053C17.5399 36.6525 18.2128 35.9997 18.4964 35.1163C18.6147 34.7478 18.6469 34.1993 18.571 33.8459C18.5419 33.7101 18.5284 33.5885 18.5411 33.5758C18.5872 33.5298 27.282 28.5236 27.3443 28.5072C27.3837 28.4968 27.4516 28.5315 27.5208 28.5973C27.9645 29.0191 28.7032 29.2687 29.3961 29.2309C30.544 29.1682 31.503 28.3951 31.8217 27.2756C31.9237 26.9176 31.9308 26.2691 31.8365 25.9258C31.5747 24.9729 30.9162 24.3071 29.9357 24.0042C29.8773 23.9862 29.8739 23.7142 29.8739 18.9408V13.8963L30.0592 13.8357C30.7467 13.6106 31.3169 13.1159 31.6508 12.4548C31.9906 11.7818 31.9908 10.8155 31.6513 10.1392C31.1607 9.16222 30.1659 8.57986 29.0976 8.64423C28.5284 8.67853 27.9304 8.91771 27.5368 9.26858C27.4283 9.36527 27.322 9.44438 27.3004 9.44438C27.2638 9.44438 18.5913 4.45352 18.5411 4.40359C18.5284 4.39092 18.5419 4.26942 18.571 4.13356C18.6469 3.78019 18.6147 3.23171 18.4964 2.8632C18.2151 1.98676 17.537 1.32483 16.6706 1.08078C16.3801 0.998947 15.7976 0.96193 15.5411 1.009ZM16.4118 2.31631C16.8154 2.45517 17.1378 2.77922 17.2835 3.19251C17.3895 3.49313 17.3632 3.95642 17.224 4.2414C16.795 5.1194 15.6526 5.32058 14.9709 4.63807C14.6981 4.36488 14.5838 4.10791 14.5656 3.72715C14.5475 3.34986 14.6095 3.11339 14.7965 2.84566C15.1551 2.33244 15.8227 2.11362 16.4118 2.31631ZM14.1554 5.60083C14.2124 5.66061 14.3623 5.77801 14.4885 5.86178C15.4918 6.52788 16.8499 6.42907 17.7204 5.6267C17.8766 5.48262 17.8823 5.48061 17.9752 5.5352C18.0274 5.56593 19.9757 6.68971 22.3047 8.03255C24.6337 9.37536 26.573 10.4955 26.6144 10.5218C26.6876 10.5684 26.6882 10.5753 26.6372 10.7922C26.5522 11.1539 26.5908 11.7497 26.7241 12.1355C26.8759 12.5742 27.0233 12.8043 27.3861 13.1683C27.717 13.5002 28.0384 13.7014 28.4536 13.8362L28.6389 13.8963V18.9368V23.9773L28.4536 24.0374C27.7134 24.2778 27.045 24.8991 26.7694 25.6028C26.5928 26.0541 26.5439 26.6604 26.6455 27.1402C26.687 27.336 26.6887 27.3943 26.6537 27.4262C26.6296 27.4483 24.6725 28.5828 22.3047 29.9475C19.9369 31.3121 17.9729 32.4449 17.9404 32.4648C17.8932 32.4937 17.8489 32.4712 17.7209 32.3533C16.7448 31.4535 15.161 31.4535 14.1849 32.3533C14.0569 32.4712 14.0126 32.4937 13.9654 32.4648C13.9328 32.4449 11.9689 31.3121 9.60109 29.9475C7.23328 28.5828 5.27621 27.4483 5.25208 27.4262C5.21714 27.3943 5.2188 27.336 5.2603 27.1402C5.36193 26.6604 5.31302 26.0541 5.13637 25.6028C4.86084 24.8991 4.19238 24.2778 3.45219 24.0374L3.26692 23.9773V18.9368V13.8963L3.45219 13.8362C3.87338 13.6994 4.18889 13.5023 4.51964 13.1694C4.88275 12.8039 5.03012 12.5737 5.18164 12.1355C5.31506 11.7496 5.3536 11.1539 5.26852 10.7918C5.22074 10.5886 5.2212 10.5658 5.27388 10.5329C5.55693 10.3561 13.9858 5.49853 14.0143 5.49578C14.0349 5.49377 14.0984 5.54105 14.1554 5.60083ZM3.27342 10.0362C3.68618 10.2393 3.9701 10.6316 4.04611 11.1038C4.1409 11.6923 3.79825 12.314 3.23164 12.5816C3.05936 12.6629 2.99397 12.6732 2.64939 12.6732C2.28818 12.6732 2.24668 12.6659 2.05172 12.5674C1.76137 12.4206 1.52296 12.1774 1.38675 11.8889C1.10678 11.296 1.28301 10.5745 1.80386 10.1813C2.09322 9.96283 2.30445 9.89977 2.70511 9.91223C3.00244 9.92151 3.07083 9.93643 3.27342 10.0362ZM29.7199 9.97239C30.12 10.113 30.4584 10.4654 30.5959 10.8845C30.6401 11.0193 30.6538 11.1528 30.6446 11.3609C30.6217 11.8832 30.3314 12.3262 29.8541 12.5674C29.6591 12.6659 29.6176 12.6732 29.2564 12.6732C28.9029 12.6732 28.8503 12.6644 28.6674 12.5746C28.0947 12.2934 27.7648 11.6926 27.8597 11.1038C27.9479 10.5561 28.3211 10.1119 28.8254 9.95432C29.0556 9.88237 29.4887 9.89112 29.7199 9.97239ZM15.7235 10.4001C15.5634 10.4594 8.47989 16.0174 8.40899 16.1395C8.35162 16.2381 8.34325 16.3253 8.34618 16.7923C8.36185 19.2983 9.10342 21.7323 10.4229 23.6087C10.8685 24.2424 11.6542 25.1042 12.2415 25.6035C13.0781 26.3147 14.2505 27.0181 15.2855 27.4298C15.8662 27.6608 16.0389 27.661 16.6143 27.4321C17.6608 27.0158 18.8219 26.3197 19.6643 25.6035C20.2516 25.1042 21.0373 24.2424 21.4828 23.6087C22.7974 21.7394 23.5433 19.295 23.5594 16.8038C23.5624 16.326 23.5542 16.2382 23.4969 16.1394C23.4207 16.008 16.3334 10.4551 16.1684 10.3976C16.0446 10.3545 15.8438 10.3555 15.7235 10.4001ZM19.1906 14.3107C21.96 16.4709 22.3223 16.7645 22.3223 16.8483C22.3221 17.0612 22.2479 17.9221 22.197 18.3016C21.7582 21.5742 20.0628 24.1452 17.3133 25.7073C16.8428 25.9746 16.0743 26.3208 15.9513 26.3208C15.84 26.3208 15.1321 26.0097 14.7045 25.7728C12.9723 24.8134 11.6053 23.4154 10.7544 21.7334C10.0792 20.3986 9.73709 19.0834 9.61541 17.3544C9.5815 16.8727 9.58277 16.77 9.62325 16.7305C9.64986 16.7045 11.0849 15.5798 12.8123 14.2312C15.4629 12.1618 15.9612 11.7861 16.0058 11.8236C16.0349 11.848 17.4681 12.9672 19.1906 14.3107ZM3.24928 25.3062C3.80312 25.5719 4.14788 26.2082 4.04731 26.7791C3.85189 27.8885 2.57242 28.3617 1.72626 27.6373C1.16871 27.1601 1.09849 26.2761 1.57067 25.6798C1.70163 25.5145 1.89578 25.3788 2.16118 25.2671C2.34118 25.1913 2.40922 25.1819 2.70232 25.1925C2.98381 25.2027 3.0715 25.2209 3.24928 25.3062ZM29.8457 25.3124C30.7544 25.7429 30.9337 26.9917 30.1795 27.6373C29.3441 28.3524 28.0684 27.8949 27.8613 26.806C27.7394 26.1651 28.1438 25.4884 28.7916 25.2493C28.931 25.1979 29.0491 25.1842 29.2917 25.1912C29.5641 25.1991 29.6429 25.2163 29.8457 25.3124ZM16.4558 33.0237C16.8271 33.1612 17.1819 33.5388 17.296 33.9179C17.3684 34.1584 17.3609 34.5661 17.2799 34.7967C17.08 35.3653 16.5587 35.7338 15.9542 35.7338C15.4802 35.7338 15.0655 35.5189 14.7965 35.1338C14.6095 34.8661 14.5475 34.6296 14.5656 34.2523C14.5838 33.8716 14.6981 33.6146 14.9709 33.3414C15.3656 32.9463 15.9239 32.8268 16.4558 33.0237Z" fill="#EE4325"/>
</svg>
