<svg width="39" height="37" viewBox="0 0 39 37" fill="none" xmlns="http://www.w3.org/2000/svg">
<path fill-rule="evenodd" clip-rule="evenodd" d="M1.56656 1.06704C1.15661 1.18585 0.584085 1.62374 0.35804 1.99132C0.239935 2.18338 0.107319 2.53505 0.0633986 2.77282C0.010166 3.06094 -0.00954409 7.41119 0.00426846 15.8094C0.0236681 27.5818 0.0339887 28.4333 0.159776 28.7115C0.389313 29.2191 0.746189 29.5971 1.2117 29.8257L1.65464 30.0432L8.39679 30.0643L15.1389 30.0853L15.1012 30.8083C15.0269 32.2282 14.3576 33.1014 12.9804 33.5752C12.4513 33.7572 12.1311 34.0284 11.9284 34.4663C11.8127 34.7161 11.7844 34.969 11.783 35.7617C11.7813 36.6926 11.7907 36.7533 11.9538 36.8675C12.1069 36.9748 12.9487 36.9883 19.4688 36.9883C26.4835 36.9883 26.8171 36.9819 26.9397 36.8464C27.0435 36.7317 27.0681 36.5344 27.0677 35.8182C27.0675 35.3308 27.0302 34.7985 26.985 34.6354C26.8447 34.1302 26.4534 33.7813 25.7138 33.5022C24.3906 33.0027 23.7314 32.0061 23.7314 30.505V30.082H30.3908C37.9332 30.082 37.5841 30.1082 38.2436 29.4913C38.451 29.2973 38.6859 28.9772 38.7781 28.763L38.9425 28.3807L38.9223 15.4382L38.902 2.49571L38.7306 2.17538C38.488 1.72182 37.9075 1.23714 37.4409 1.09855C37.0989 0.996973 34.8561 0.983393 19.43 0.989523C9.11721 0.993636 1.70895 1.02576 1.56656 1.06704ZM37.3985 2.10299C37.9744 2.49432 37.9299 1.36898 37.9329 15.6183C37.9355 27.9831 37.9307 28.4171 37.7908 28.6061C37.7112 28.7136 37.5306 28.8802 37.3896 28.9762L37.133 29.1508H19.4635H1.794L1.53746 28.9762C1.39639 28.8802 1.2079 28.7031 1.11858 28.5826L0.956248 28.3635L0.93615 15.6301C0.916285 3.033 0.917759 2.89333 1.07133 2.57603C1.16654 2.37939 1.33935 2.18997 1.51822 2.0863L1.80983 1.91729L19.4649 1.91551L37.12 1.91372L37.3985 2.10299ZM2.57845 3.55144C2.43466 3.71036 2.43062 3.99499 2.43062 14.0191C2.43062 24.0432 2.43466 24.3278 2.57845 24.4868L2.72627 24.6501H19.4635H36.2007L36.3486 24.4868C36.4921 24.3281 36.4969 24.0288 36.5167 14.0613L36.5369 3.79914L36.3752 3.59365L36.2136 3.3881H19.4699H2.72627L2.57845 3.55144ZM35.604 7.64818V10.9772L32.9615 12.1473L30.3189 13.3175L30.039 13.0376C29.433 12.4316 28.4286 12.2574 27.7446 12.6396L27.4012 12.8315L25.9349 11.4797C25.1284 10.7361 24.4033 10.0641 24.3234 9.98615C24.1834 9.8495 24.1831 9.83165 24.3144 9.48765C24.5181 8.95447 24.4444 8.15762 24.1468 7.67394C23.7356 7.00566 22.9038 6.59175 22.1312 6.67083C21.334 6.75254 20.587 7.36758 20.3611 8.12836C20.2099 8.63756 20.2088 8.84933 20.355 9.33145C20.4186 9.54097 20.471 9.71673 20.4714 9.72208C20.4721 9.72984 17.374 12.3626 16.3728 13.205L16.1226 13.4156L15.7481 13.2545C15.1705 13.0061 14.7942 12.9716 14.3246 13.1241C14.0994 13.1972 13.8073 13.3388 13.6754 13.4387L13.4354 13.6202L12.1902 12.792L10.945 11.9637L10.9852 11.3764C11.0301 10.7209 10.9038 10.3185 10.505 9.84663C9.93588 9.17338 8.91235 8.93942 8.12364 9.30243C7.33144 9.66706 6.86755 10.3298 6.85886 11.1092C6.85607 11.3652 6.87935 11.6795 6.91054 11.8075C6.96688 12.0382 6.95198 12.0512 5.25389 13.2431C4.31146 13.9046 3.49147 14.4738 3.43172 14.508C3.33899 14.5609 3.323 13.8168 3.323 9.44466V4.31928H19.4635H35.604V7.64818ZM23.0081 7.82068C23.2676 7.98015 23.5762 8.51659 23.5762 8.8082C23.5762 9.07949 23.3839 9.45949 23.1219 9.70586C22.932 9.88442 22.7908 9.93967 22.4518 9.96776C22.0867 9.99802 21.9779 9.97389 21.725 9.80659C20.9259 9.27775 21.0022 8.19261 21.8697 7.7496C22.2658 7.54738 22.5972 7.5681 23.0081 7.82068ZM9.45624 10.2362C10.1339 10.5779 10.334 11.4479 9.86356 12.007C9.17821 12.8215 7.90559 12.4891 7.76746 11.4594C7.71369 11.0585 7.78042 10.8233 8.03324 10.5229C8.43078 10.0504 8.90025 9.95581 9.45624 10.2362ZM21.4152 10.6428C21.9416 10.8878 22.6101 10.9028 23.1002 10.6804L23.4389 10.5268L23.721 10.7732C24.0833 11.0898 26.6802 13.496 26.6802 13.5152C26.6802 13.5232 26.6194 13.6485 26.5452 13.7938C26.4563 13.9677 26.4113 14.2303 26.4135 14.5625C26.421 15.7014 27.3238 16.6026 28.4649 16.6106C29.0895 16.6149 29.5662 16.4142 30.005 15.9621C30.3768 15.5789 30.5565 15.1435 30.581 14.5665L30.5989 14.1439L32.9657 13.0738C34.2674 12.4852 35.3586 12.0032 35.3906 12.0026C35.4227 12.002 35.4488 14.6205 35.4488 17.8214V23.6413H19.3859H3.323V19.6899V15.7384L5.39302 14.2696L7.46312 12.8008L7.73161 12.983C8.42395 13.4528 9.3476 13.4169 10.1572 12.8886C10.3556 12.7591 10.3632 12.7629 11.604 13.5896L12.8513 14.4208L12.7733 14.7037C12.5432 15.5368 13.0528 16.5817 13.8935 17.0006C14.706 17.4055 15.7571 17.2041 16.368 16.5264C16.7774 16.0721 16.9319 15.6102 16.8743 15.0118C16.8484 14.7433 16.8181 14.4279 16.8068 14.3111C16.7885 14.1215 17.0109 13.9037 18.8815 12.2793C20.0339 11.2786 20.982 10.4576 20.9884 10.4548C20.9948 10.4519 21.1869 10.5366 21.4152 10.6428ZM29.1712 13.573C29.9545 14.092 29.911 15.2276 29.0919 15.6456C28.6908 15.8501 28.4129 15.8455 28.0004 15.6273C27.1641 15.1851 27.1628 13.9859 27.9981 13.542C28.37 13.3444 28.8452 13.357 29.1712 13.573ZM15.4824 14.1709C16.1568 14.5821 16.2725 15.4472 15.7281 16.0088C15.2337 16.5189 14.5332 16.5154 14.0339 16.0002C13.8075 15.7666 13.766 15.6646 13.7413 15.2809C13.7188 14.9303 13.7469 14.7794 13.8714 14.581C14.2097 14.0421 14.9585 13.8515 15.4824 14.1709ZM18.6008 25.1772C17.2679 25.8735 17.1948 27.6667 18.465 28.5072C18.8458 28.7593 19.6824 28.8483 20.1051 28.6817C21.0672 28.3025 21.5771 27.301 21.2965 26.342C20.9561 25.1791 19.6651 24.6212 18.6008 25.1772ZM20.1342 26.0711C20.3683 26.2856 20.4201 26.3914 20.4478 26.7113C20.4884 27.1809 20.3078 27.5119 19.9071 27.7021C19.5482 27.8724 19.2483 27.8654 18.9435 27.6796C18.3645 27.3266 18.2912 26.5308 18.7952 26.0689C19.0324 25.8515 19.1305 25.8141 19.4635 25.8141C19.7971 25.8141 19.8945 25.8514 20.1342 26.0711ZM22.8089 30.858C22.9442 32.7353 23.721 33.777 25.4751 34.4333C26.0508 34.6488 26.137 34.7917 26.137 35.5312V36.1347H19.3757H12.6144L12.6506 35.5721C12.6705 35.2626 12.7362 34.928 12.7966 34.8283C12.8608 34.7223 13.2046 34.507 13.6246 34.3097C15.148 33.5938 15.8915 32.5088 16.022 30.8111L16.0722 30.158L19.4168 30.1782L22.7614 30.1984L22.8089 30.858Z" fill="#EE4325"/>
</svg>
