<svg width="37" height="37" viewBox="0 0 37 37" fill="none" xmlns="http://www.w3.org/2000/svg">
<path fill-rule="evenodd" clip-rule="evenodd" d="M16.5226 1.09059C16.2312 1.25564 16.1727 1.42068 15.934 2.75073L15.7186 3.95095L15.1931 4.15954C14.9041 4.27432 14.6523 4.36818 14.6336 4.36818C14.6149 4.36818 14.1427 4.03967 13.5842 3.63817C12.593 2.92556 12.5626 2.90766 12.3095 2.88936C12.1437 2.87737 12.0088 2.89269 11.9353 2.93192C11.8721 2.96559 11.3851 3.41921 10.8531 3.9399C9.9786 4.79569 9.88086 4.90641 9.8356 5.09264C9.79949 5.24123 9.79909 5.34808 9.83416 5.47584C9.86116 5.5743 10.1927 6.10058 10.5807 6.66073C11.0209 7.29638 11.27 7.69585 11.2554 7.74269C11.2427 7.78354 11.1428 8.02937 11.0335 8.28899L10.8348 8.76105L9.57259 8.96793C8.16807 9.19821 8.10577 9.22115 7.93639 9.57099C7.84398 9.762 7.841 9.81921 7.85367 11.1679C7.87129 13.0488 7.75169 12.9029 9.53955 13.2234C10.2064 13.343 10.775 13.4637 10.8031 13.4916C10.8311 13.5195 10.8954 13.6539 10.9459 13.7903C10.9964 13.9267 11.0869 14.1484 11.147 14.2831L11.2564 14.528L10.5511 15.5003C10.1632 16.0351 9.82893 16.5004 9.80833 16.5343C9.72524 16.6711 9.69846 16.9294 9.74688 17.1263C9.7912 17.3065 9.90589 17.4388 10.7703 18.3068C11.8182 19.3591 11.9131 19.4247 12.2864 19.3546C12.3847 19.3362 12.8405 19.0533 13.4917 18.6065C14.2206 18.1065 14.5663 17.8944 14.6291 17.9088C14.7012 17.9255 15.6024 18.292 15.6275 18.315C15.6311 18.3183 15.7288 18.8773 15.8445 19.5572C15.9601 20.237 16.0839 20.8497 16.1195 20.9185C16.1551 20.9874 16.2588 21.1006 16.3498 21.1701L16.5153 21.2964L17.9164 21.3097C18.6871 21.3169 19.3617 21.3119 19.4155 21.2984C19.5639 21.2613 19.7958 21.0478 19.8633 20.8862C19.8964 20.807 20.0056 20.2481 20.1059 19.6443C20.3448 18.2057 20.3181 18.3117 20.4503 18.2786C20.5125 18.2629 20.748 18.1706 20.9737 18.0733L21.3839 17.8964L22.3569 18.5866C22.892 18.9662 23.3948 19.3102 23.4741 19.3511C23.6665 19.4503 23.9492 19.4452 24.1544 19.3389C24.394 19.2148 26.1781 17.4064 26.2174 17.2479C26.2346 17.1783 26.2392 17.0232 26.2277 16.9032C26.2088 16.7071 26.1308 16.5778 25.4606 15.6323L24.7145 14.5797L24.8149 14.3766C24.8701 14.2649 24.9623 14.0518 25.0198 13.903C25.0772 13.7542 25.1465 13.6091 25.1738 13.5806C25.201 13.5521 25.7305 13.4447 26.3504 13.3421C26.9702 13.2395 27.5513 13.1358 27.6416 13.1118C27.8234 13.0634 28.116 12.7733 28.1497 12.608C28.1912 12.4046 28.2139 10.0131 28.176 9.84472C28.1275 9.62977 28.0073 9.46532 27.8174 9.35414C27.7197 9.29694 27.258 9.19893 26.4307 9.05985L25.1905 8.8513L25.0675 8.51445C24.9999 8.32916 24.9109 8.11268 24.8698 8.03334C24.8287 7.95395 24.795 7.85535 24.795 7.81415C24.795 7.77294 25.1065 7.30026 25.4872 6.76374C25.8679 6.22722 26.2026 5.74394 26.231 5.6898C26.3057 5.54748 26.2945 5.1985 26.2098 5.03088C26.0961 4.80579 24.3964 3.10949 24.1864 3.01162C23.9855 2.91794 23.7779 2.90311 23.6022 2.96996C23.538 2.99435 23.0418 3.32909 22.4997 3.71382C21.9575 4.0985 21.4964 4.41326 21.4749 4.41326C21.4534 4.41326 21.2128 4.32274 20.9402 4.21211C20.5593 4.05752 20.4369 3.9871 20.411 3.9078C20.3925 3.85109 20.2951 3.28734 20.1946 2.65507C19.9169 0.909723 20.0189 0.989112 18.0553 0.988751C16.7332 0.988526 16.6988 0.990825 16.5226 1.09059ZM18.7716 3.65634C18.951 4.80385 19.0156 5.01371 19.2377 5.16973C19.3064 5.21802 19.5655 5.32022 19.8135 5.39686C20.0614 5.4735 20.5271 5.66897 20.8483 5.83127C21.1695 5.99356 21.486 6.12637 21.5516 6.12637C21.7772 6.12637 21.9482 6.0289 22.8633 5.37873L23.7807 4.72694L24.1326 5.08872C24.3555 5.31792 24.4725 5.47111 24.4517 5.50668C24.4336 5.53756 24.1474 5.9432 23.8157 6.40804C23.484 6.87293 23.1832 7.32366 23.1473 7.40967C23.0432 7.65875 23.0686 7.81045 23.2824 8.21565C23.5339 8.69248 23.6854 9.06413 23.8072 9.50264C24.0055 10.2165 24.0717 10.2549 25.5286 10.4996C26.118 10.5986 26.6099 10.6796 26.6218 10.6796C26.6591 10.6796 26.6452 11.665 26.6076 11.6882C26.5879 11.7004 26.0858 11.7935 25.4918 11.8952C24.8978 11.9969 24.3584 12.1012 24.2931 12.127C24.0628 12.218 23.9393 12.4088 23.7529 12.9612C23.6535 13.256 23.4622 13.7078 23.3279 13.9653C23.0474 14.503 23.0057 14.6636 23.0844 14.9031C23.1156 14.9977 23.4346 15.4883 23.7933 15.9934L24.4456 16.9116L24.0846 17.2725L23.7237 17.6334L22.7947 16.9732C22.2837 16.6101 21.8134 16.2931 21.7495 16.2688C21.5147 16.1796 21.335 16.2216 20.777 16.4962C20.4736 16.6455 19.9963 16.8392 19.7165 16.9265C19.165 17.0987 18.9807 17.227 18.8952 17.4982C18.8697 17.5788 18.7766 18.081 18.6881 18.614C18.5997 19.1471 18.5171 19.6289 18.5046 19.6847C18.4845 19.7744 18.4539 19.7862 18.2414 19.7862C18.1091 19.7862 17.8804 19.7736 17.733 19.7582L17.4652 19.7302L17.2741 18.6017C17.1604 17.9303 17.0517 17.4201 17.0056 17.3418C16.8972 17.1575 16.7282 17.0649 16.1614 16.8793C15.8902 16.7904 15.4547 16.6099 15.1937 16.4782C14.6289 16.193 14.5218 16.1625 14.2963 16.2233C14.202 16.2487 13.7121 16.5535 13.2076 16.9008C12.7032 17.248 12.2683 17.5321 12.2412 17.5321C12.1961 17.5321 11.811 17.1534 11.6138 16.9151C11.5331 16.8176 11.5383 16.8083 12.1748 15.9295C12.8326 15.0213 12.9641 14.775 12.9192 14.5356C12.905 14.4604 12.7831 14.1825 12.648 13.9181C12.513 13.6536 12.3278 13.2 12.2365 12.91C12.0557 12.3358 11.9117 12.1166 11.6627 12.036C11.5365 11.9952 9.54866 11.6264 9.45489 11.6264C9.43528 11.6264 9.42495 11.3895 9.43194 11.0999L9.44465 10.5734L10.5266 10.4033C11.6424 10.228 11.8469 10.1661 12.0003 9.95756C12.0463 9.89517 12.1657 9.60101 12.2658 9.30388C12.3659 9.00679 12.5548 8.56079 12.6855 8.31284C12.9582 7.7958 12.9981 7.64825 12.9312 7.40521C12.9048 7.30932 12.6091 6.83528 12.274 6.35178C11.939 5.86828 11.657 5.45222 11.6473 5.4272C11.6377 5.40218 11.7906 5.22189 11.9871 5.02651L12.3444 4.67135L13.2387 5.31738C13.7307 5.67267 14.2137 5.99135 14.3121 6.02552C14.5561 6.11028 14.703 6.07345 15.2504 5.7902C15.5088 5.65653 15.9616 5.47201 16.2566 5.38018C16.8017 5.21044 16.9859 5.09873 17.1073 4.86408C17.1394 4.80209 17.2542 4.25944 17.3625 3.65814L17.5593 2.5649H18.0801H18.6009L18.7716 3.65634ZM17.5368 7.29994C16.611 7.40945 15.8037 7.81059 15.1637 8.47897C14.6869 8.97699 14.3915 9.50395 14.1702 10.2514C14.0554 10.6389 14.0567 11.7067 14.1724 12.1448C14.5585 13.6061 15.7222 14.7257 17.1751 15.0337C17.5611 15.1156 18.397 15.1146 18.7901 15.0319C20.2328 14.7285 21.3178 13.7195 21.7594 12.2709C21.8675 11.9162 21.8802 11.8029 21.8802 11.1981C21.8802 10.5932 21.8675 10.48 21.7594 10.1253C21.5321 9.3798 21.1865 8.82128 20.6384 8.31361C20.0304 7.75054 19.2505 7.39628 18.4062 7.29954C17.9721 7.24981 17.9607 7.24981 17.5368 7.29994ZM18.4436 8.87632C19.2826 9.0319 20.0921 9.80604 20.2833 10.6358C20.3431 10.8955 20.343 11.5013 20.283 11.7616C20.1392 12.3858 19.6185 13.0219 19.0126 13.3133C18.3404 13.6366 17.6238 13.6377 16.9668 13.3164C16.1248 12.9047 15.6351 12.1256 15.6351 11.1981C15.6351 10.2702 16.139 9.47091 16.9758 9.07153C17.4567 8.84206 17.9238 8.77994 18.4436 8.87632ZM8.56556 21.3954C8.01799 21.454 7.32616 21.6197 6.69966 21.8424C5.24194 22.3603 0.515421 24.4515 0.255208 24.6937C0.0717252 24.8644 0 25.026 0 25.2687C0 25.7203 0.397938 26.0924 0.82581 26.0409C0.929498 26.0284 1.34908 25.8618 1.75819 25.6707C3.8032 24.715 6.80529 23.4361 7.61884 23.1739C8.86364 22.7728 11.1325 22.8328 12.3364 23.2986C12.9125 23.5215 13.2148 23.7495 14.1352 24.6552C14.9248 25.4321 15.0248 25.515 15.3787 25.6864C16.7954 26.3721 19.0968 26.8108 21.3237 26.8198C21.9936 26.8225 22.4871 26.9023 22.8435 27.0655C23.3472 27.2961 23.505 27.5484 23.4807 28.0842C23.4666 28.3957 23.4496 28.4528 23.3253 28.6069C23.1396 28.8373 22.7808 29.0142 22.3272 29.0992C22.0108 29.1585 21.5453 29.1663 19.194 29.1516C16.6012 29.1354 16.3938 29.1282 15.8012 29.0336C14.9506 28.8978 14.1388 28.7396 13.3031 28.5469C12.5116 28.3644 12.3038 28.3651 12.0603 28.5509C11.8829 28.6862 11.8137 28.7962 11.7611 29.0269C11.6914 29.332 11.8795 29.7106 12.1772 29.8646C12.4411 30.0011 14.4066 30.4231 15.5082 30.5799C16.4476 30.7135 17.1025 30.7401 19.4528 30.7402C22.3382 30.7404 22.6558 30.7128 23.4426 30.3941C23.6216 30.3216 25.2084 29.3099 27.5225 27.7929C29.6058 26.4271 31.5214 25.203 31.7807 25.0719C32.4888 24.7139 33.0217 24.553 33.5184 24.5471C33.8296 24.5434 33.9585 24.5611 34.0715 24.6228C34.2595 24.7255 34.4876 25.0386 34.4876 25.1939C34.4876 25.4193 34.2538 25.7952 33.8883 26.1574C33.4562 26.5857 32.4142 27.2838 26.3954 31.1776C22.5896 33.6399 20.6686 34.8293 20.0205 35.1248C19.1634 35.5158 18.3352 35.5301 17.2213 35.1731C16.8709 35.0609 14.6317 33.9558 10.7295 31.9694C9.18277 31.1821 8.83695 31.0547 8.15928 31.023C7.60446 30.9971 7.2851 31.0623 6.76228 31.3083C6.25849 31.5454 4.02919 32.98 3.91468 33.1409C3.81271 33.2841 3.75609 33.6328 3.80392 33.8233C3.84134 33.9723 4.03686 34.1995 4.20077 34.2842C4.36226 34.3677 4.72972 34.3766 4.87506 34.3004C4.93362 34.2698 5.45594 33.9409 6.03574 33.5697C7.32229 32.746 7.67893 32.5671 8.02475 32.5716C8.16122 32.5734 8.38437 32.6108 8.52065 32.6547C8.65694 32.6987 9.68133 33.1972 10.7971 33.7625C15.0495 35.917 15.8814 36.3293 16.3325 36.5057C17.9667 37.1446 19.3859 37.149 20.7487 36.5194C21.6667 36.0953 25.0974 33.933 31.3118 29.8617C34.2468 27.9388 34.4853 27.7696 35.0286 27.2255C35.6968 26.5562 35.9571 26.0696 36.0082 25.3944C36.0975 24.2137 35.268 23.2197 34.0122 23.0028C33.5333 22.9201 33.0502 22.9639 32.3887 23.1501L31.9802 23.2649L31.7096 23.0002C31.3912 22.6886 30.8768 22.4057 30.3601 22.258C29.8381 22.1088 28.8389 22.1076 28.3678 22.2557L28.041 22.3584L27.7367 22.1246C27.3886 21.8573 26.8355 21.5799 26.4405 21.4746C26.0595 21.3731 25.29 21.3406 24.835 21.407C24.3687 21.475 23.703 21.684 23.2873 21.8929C23.1151 21.9795 21.9238 22.7055 20.6399 23.5063L18.3056 24.9623L17.8261 24.854C17.3344 24.7428 16.5992 24.5102 16.2174 24.3449C16.058 24.2759 15.8427 24.0871 15.3841 23.6146C15.044 23.2642 14.593 22.8486 14.3818 22.6911C13.4871 22.0239 12.3869 21.6014 11.0963 21.4296C10.6574 21.3712 9.00069 21.3488 8.56556 21.3954ZM26.3695 23.0812L26.6141 23.1927L24.8593 24.2776C23.8941 24.8742 23.0798 25.3764 23.0496 25.3936C23.0194 25.4108 22.8267 25.3938 22.6213 25.3557C22.4159 25.3177 21.9336 25.2713 21.5494 25.2526L20.8509 25.2185L22.2753 24.3323C23.8274 23.3666 23.9977 23.2718 24.4344 23.1294C24.9378 22.9652 25.0733 22.9454 25.6065 22.9576C26.0463 22.9678 26.162 22.9865 26.3695 23.0812ZM30.0369 23.7986C30.4982 23.9411 30.5002 23.978 30.0618 24.2621C29.8553 24.3959 28.6452 25.1882 27.3727 26.0228C26.1001 26.8574 25.0523 27.5403 25.0441 27.5403C25.0359 27.5403 24.9875 27.4033 24.9365 27.236C24.8856 27.0686 24.772 26.8125 24.6842 26.667C24.5964 26.5214 24.5245 26.3864 24.5245 26.367C24.5245 26.3335 28.0525 24.1263 28.3297 23.9862C28.8974 23.6996 29.5014 23.6332 30.0369 23.7986Z" fill="#EE4325"/>
</svg>
