<svg width="42" height="37" viewBox="0 0 42 37" fill="none" xmlns="http://www.w3.org/2000/svg">
<path fill-rule="evenodd" clip-rule="evenodd" d="M17.0338 1.00041C16.0942 1.07878 15.2815 1.38408 14.4689 1.9639C13.9112 2.36197 13.6604 2.7415 13.7415 3.06485C13.7683 3.17172 13.9796 3.49434 14.211 3.78174C14.9509 4.70086 15.2666 5.61042 15.2632 6.81395C15.26 7.95247 14.9158 8.90559 14.1917 9.78123C13.7862 10.2714 13.6808 10.5137 13.7507 10.7952C13.7872 10.9425 14.3585 11.578 15.358 12.5831L16.9086 14.1425L9.04711 22.0148L1.18557 29.8871L0.559031 33.1057C0.0204148 35.8727 -0.0540668 36.3569 0.0283488 36.5559C0.140881 36.8276 0.422616 36.9989 0.738515 36.9878C1.04802 36.9768 6.74319 35.8518 6.99773 35.7514C7.1105 35.7068 10.7149 32.1582 15.0075 27.8655L22.8121 20.0605L23.0893 20.3039C23.6781 20.8208 23.9594 20.7929 24.6555 20.1484L25.1395 19.7002L25.7418 20.2985C26.073 20.6275 26.344 20.932 26.344 20.9752C26.344 21.0184 25.9615 21.4419 25.4939 21.9164C24.6871 22.7351 24.6044 22.8643 24.6404 23.2485C24.6585 23.4408 27.9967 26.8291 28.2784 26.9409C28.4039 26.9908 28.5616 26.9884 28.7257 26.9343C28.8964 26.8779 30.3859 25.4423 33.2882 22.5366C37.5077 18.3122 37.5972 18.216 37.5972 17.9064C37.5972 17.6033 37.5279 17.5204 35.9173 15.8998C34.9934 14.9701 34.1333 14.1545 34.0061 14.0875C33.8667 14.014 33.6898 13.9862 33.5608 14.0175C33.4409 14.0465 32.9645 14.449 32.4762 14.9338L31.6056 15.7983L30.9498 15.1426L30.2941 14.4869L30.4756 13.9891C30.6926 13.3939 30.6653 12.7218 30.4021 12.1786C30.2851 11.9372 28.7173 10.3213 25.1928 6.80926C20.5149 2.14816 20.111 1.76636 19.6006 1.52413C18.7764 1.13302 17.8093 0.935648 17.0338 1.00041ZM18.3748 2.61837C18.5939 2.69301 18.9009 2.82602 19.0571 2.91395C19.3325 3.0689 22.458 6.10799 22.458 6.22077C22.458 6.25161 22.3761 6.30246 22.2759 6.33371C22.1756 6.36504 20.8718 7.60556 19.3783 9.0905L16.6629 11.7903L16.0655 11.1889L15.4682 10.5875L15.6756 10.2739C16.2768 9.36551 16.651 8.31144 16.7498 7.24853C16.8613 6.04825 16.4742 4.47936 15.8223 3.48964L15.5057 3.00891L15.8043 2.85371C16.5535 2.46422 17.6325 2.36545 18.3748 2.61837ZM26.4394 10.1489C28.2168 11.9233 29.1064 12.8677 29.1387 13.0145C29.1653 13.1361 29.1343 13.3541 29.0688 13.5048C29.0003 13.6625 27.869 14.8547 26.3719 16.3468L23.7929 18.9171L20.7575 15.88L17.722 12.8428L20.3984 10.1724L23.0749 7.5021H23.4315H23.7882L26.4394 10.1489ZM12.0503 23.8602L4.75996 31.1504L4.35954 30.8349C4.13925 30.6614 3.78595 30.4191 3.57449 30.2967C3.36294 30.1742 3.18993 30.0503 3.18993 30.0212C3.18993 29.9922 6.51408 26.644 10.577 22.581L17.9641 15.1935L18.6522 15.8818L19.3405 16.5699L12.0503 23.8602ZM28.9972 18.4094L27.4395 19.9687L26.8108 19.3436C26.465 18.9999 26.1821 18.6817 26.1821 18.6365C26.1821 18.5914 26.8647 17.8712 27.6988 17.0362L29.2155 15.5179L29.8852 16.1841L30.5549 16.8503L28.9972 18.4094ZM34.7847 16.8738L35.8153 17.9067L32.1516 21.5697L28.4879 25.2328L27.437 24.1795L26.386 23.1262L30.028 19.4835C32.0312 17.48 33.689 15.8408 33.712 15.8408C33.7351 15.8408 34.2179 16.3057 34.7847 16.8738ZM14.355 26.413L6.94065 33.8272L6.61196 33.3144C6.43118 33.0324 6.18118 32.6631 6.05651 32.4938L5.82974 32.186L13.1113 24.9042L20.3928 17.6223L21.081 18.3105L21.7692 18.9987L14.355 26.413ZM38.1119 20.6977C37.6642 20.8783 37.5546 21.4296 37.8878 21.8255L38.0974 22.0746H39.5402H40.9831L41.1927 21.8255C41.4179 21.5578 41.4468 21.3928 41.3248 21.0718C41.18 20.6908 40.8836 20.6169 39.524 20.6224C38.8428 20.6253 38.2073 20.6591 38.1119 20.6977ZM36.3828 25.0462C36.0834 25.1557 35.8971 25.4235 35.8971 25.7446C35.8971 26.0475 35.9544 26.125 36.8473 27.0291C37.3699 27.5581 37.8799 28.0118 37.9807 28.0371C38.4588 28.1571 38.8926 27.8141 38.8926 27.3159C38.8926 27.0259 38.8254 26.9326 38.0223 26.1061C37.075 25.1313 36.741 24.9153 36.3828 25.0462ZM31.7294 27.0445C31.4679 27.306 31.4237 27.6147 31.4567 28.9484C31.484 30.0507 31.4914 30.0926 31.6972 30.2983C31.9897 30.5906 32.4373 30.5905 32.7298 30.2981L32.9421 30.0858V28.6639V27.2419L32.7149 27.0465C32.4115 26.7855 31.9893 26.7846 31.7294 27.0445ZM3.11173 31.751C3.8525 32.2434 4.74207 33.1391 5.22482 33.8786C5.44276 34.2126 5.60435 34.5026 5.58379 34.5231C5.55157 34.5553 4.6152 34.7743 4.47571 34.7822C4.44819 34.7838 4.28425 34.5431 4.1114 34.2474C3.76271 33.6508 3.13812 33.0471 2.58258 32.7697C2.35752 32.6573 2.21843 32.5333 2.21843 32.4451C2.21843 32.1422 2.40658 31.3848 2.48187 31.3848C2.52535 31.3848 2.80886 31.5496 3.11173 31.751ZM2.61375 34.6652C2.75252 34.8233 2.8661 34.9852 2.8661 35.025C2.8661 35.0648 2.65666 35.1389 2.40059 35.1897C2.14452 35.2404 1.87128 35.3001 1.7934 35.3223C1.60679 35.3755 1.60995 35.3216 1.85728 34.2349L1.89954 34.0489L2.13051 34.2134C2.25754 34.3038 2.47499 34.5071 2.61375 34.6652Z" fill="#EE4325"/>
</svg>
