<svg width="24" height="25" viewBox="0 0 24 25" fill="none" xmlns="http://www.w3.org/2000/svg">
<path d="M24 12.2332C24 18.8607 18.6274 24.2332 12 24.2332C5.37258 24.2332 0 18.8607 0 12.2332C0 5.60583 5.37258 0.233246 12 0.233246C18.6274 0.233246 24 5.60583 24 12.2332Z" fill="#0052B5"/>
<path d="M9 6.83325V0.611298C9.48865 0.485529 9.98934 0.389765 10.5 0.326086C10.9914 0.264811 11.492 0.233246 12 0.233246C12.508 0.233246 13.0086 0.264811 13.5 0.326086C14.0107 0.389765 14.5114 0.485529 15 0.611298V8.48325L20.1 3.37933C20.6498 3.88256 21.4516 4.88632 21.9 5.48325L18 9.23325H23.6219C23.7477 9.72189 23.8435 10.2226 23.9072 10.7332C23.9684 11.2246 24 11.7253 24 12.2332C24 12.7412 23.9684 13.2419 23.9072 13.7333C23.8435 14.2439 23.7477 14.7446 23.6219 15.2332H17.1L21.6009 19.4332C20.9558 20.292 20.1982 21.0614 19.35 21.7196L15 17.3332V23.8552C14.5114 23.981 14.0107 24.0767 13.5 24.1404C13.0086 24.2017 12.508 24.2332 12 24.2332C11.492 24.2332 10.9914 24.2017 10.5 24.1404C9.98934 24.0767 9.48864 23.981 9 23.8552L9 16.1332L4.05 21.2222C3.37869 20.628 2.77442 19.9598 2.25 19.2303L6.6 15.2332H0.378052C0.252284 14.7446 0.15652 14.2439 0.0928413 13.7333C0.0315652 13.2419 0 12.7412 0 12.2332C0 11.7253 0.031565 11.2246 0.0928406 10.7332C0.156519 10.2226 0.252283 9.72189 0.378052 9.23325H6.75L2.4 5.03208C3.06579 4.14591 3.85143 3.35492 4.73284 2.68318L9 6.83325Z" fill="white"/>
<path d="M9 9.23325L3.52348 3.73921C3.23389 4.02821 2.95899 4.33192 2.7 4.64912L7.5 9.23325H9Z" fill="#D90026"/>
<path d="M15 9.23324L20.4765 3.73921C20.7661 4.02821 21.041 4.33192 21.3 4.64912L16.5 9.23324H15Z" fill="#D90026"/>
<path d="M15 15.3362L20.4765 20.8303C20.7661 20.5413 21.041 20.2376 21.3 19.9204L16.5 15.3362H15Z" fill="#D90026"/>
<path d="M9 15.3362L3.52348 20.8303C3.23389 20.5413 2.95899 20.2376 2.7 19.9204L7.5 15.3362H9Z" fill="#D90026"/>
<path d="M0.0928406 10.7332C0.031565 11.2246 0 11.7253 0 12.2332C0 12.7412 0.0315652 13.2419 0.0928413 13.7333H10.5V24.1404C10.9914 24.2017 11.492 24.2332 12 24.2332C12.508 24.2332 13.0086 24.2017 13.5 24.1404V13.7333H23.9072C23.9684 13.2419 24 12.7412 24 12.2332C24 11.7253 23.9684 11.2246 23.9072 10.7332H13.5V0.326086C12.9129 0.237766 12.6118 0.233246 12 0.233246C11.492 0.233246 10.9914 0.264811 10.5 0.326086V10.7332H0.0928406Z" fill="#D90026"/>
</svg>
