<svg width="24" height="25" viewBox="0 0 24 25" fill="none" xmlns="http://www.w3.org/2000/svg">
<path d="M12 24.2333C5.37258 24.2333 -8.1423e-07 18.8607 -5.24537e-07 12.2333C-2.34843e-07 5.60586 5.37258 0.233276 12 0.233276C18.6274 0.233276 24 5.60586 24 12.2333C24 18.8607 18.6274 24.2333 12 24.2333Z" fill="#0052B5"/>
<path d="M23.2444 8.03325C21.542 3.47724 17.1498 0.233246 12 0.233245C6.85014 0.233245 2.45799 3.47724 0.755506 8.03324L23.2444 8.03325Z" fill="white"/>
<path d="M0.755494 16.4332C2.45798 20.9892 6.85013 24.2332 12 24.2332C17.1498 24.2332 21.5419 20.9893 23.2444 16.4332L0.755494 16.4332Z" fill="#D90026"/>
</svg>
