<svg width="25" height="25" viewBox="0 0 25 25" fill="none" xmlns="http://www.w3.org/2000/svg">
<g clip-path="url(#clip0_60_4339)">
<rect x="0.5" y="0.233246" width="24" height="24" rx="12" fill="#FF0000"/>
<path fill-rule="evenodd" clip-rule="evenodd" d="M18.369 7.30328C19.0115 7.47626 19.5181 7.98284 19.691 8.62535C20.0123 9.79915 19.9999 12.2456 19.9999 12.2456C19.9999 12.2456 19.9999 14.6797 19.691 15.8535C19.5181 16.496 19.0115 17.0026 18.369 17.1756C17.1952 17.4845 12.5 17.4845 12.5 17.4845C12.5 17.4845 7.81712 17.4845 6.63097 17.1632C5.98846 16.9902 5.48188 16.4836 5.30889 15.8411C5 14.6797 5 12.2332 5 12.2332C5 12.2332 5 9.79915 5.30889 8.62535C5.48188 7.98284 6.00082 7.4639 6.63097 7.29092C7.80477 6.98203 12.5 6.98203 12.5 6.98203C12.5 6.98203 17.1952 6.98203 18.369 7.30328ZM14.9094 12.2332L11.0049 14.482V9.98449L14.9094 12.2332Z" fill="white"/>
</g>
<defs>
<clipPath id="clip0_60_4339">
<rect width="24" height="24" fill="white" transform="translate(0.5 0.233246)"/>
</clipPath>
</defs>
</svg>
