<svg width="160" height="50" viewBox="0 0 160 50" fill="none" xmlns="http://www.w3.org/2000/svg">
<path d="M12.0078 0.988178C5.37649 0.988178 0 6.36387 0 12.9959V37.0121C0 43.6438 5.37649 49.0195 12.0078 49.0195H36.024C42.6556 49.0195 48.0321 43.6438 48.0321 37.0121V0.988178H12.0078Z" fill="#B1EC52"/>
<path d="M13.1276 20.1679C12.7348 18.4502 14.4486 16.9302 16.6656 16.9302C18.6626 16.9302 20.6642 17.3779 21.4259 20.1622H23.9858V24.4112C20.7941 21.7877 13.8748 23.4338 13.1276 20.1679ZM39.6896 18.9916H33.9229L28.437 24.9999V12.9959H23.9858V15.9045C23.8405 15.717 23.6874 15.5307 23.5159 15.3489C21.8972 13.6354 19.5653 12.7666 16.5836 12.7666C13.1356 12.7666 11.1752 14.3098 10.1376 15.6041C8.84887 17.211 8.2735 19.4044 8.67168 21.1914C9.70317 25.8176 13.9959 26.5565 17.1495 26.9665C19.6392 27.2903 22.0211 27.7422 21.9579 29.9614C21.8919 32.2644 19.2959 32.8307 17.5919 32.8307C13.1539 32.8307 13.0042 29.5503 13.0042 29.5503H8.2312C8.30094 30.7822 8.67321 32.7598 10.1898 34.457C11.8503 36.3165 14.3409 37.2588 17.5919 37.2588C20.0858 37.2588 22.3575 36.4464 23.9858 35.0037V36.9863H28.437V31.3199L30.0119 29.5972L34.5078 36.9863H39.688L33.1456 26.1639L39.6896 18.9916Z" fill="#424B52"/>
<path d="M67.9127 18.2021C71.1483 18.2021 73.8466 19.6625 73.8466 23.1966C73.898 24.1205 73.6555 25.037 73.154 25.8146C72.6524 26.5922 71.9176 27.191 71.0549 27.5251C73.0056 27.9223 73.502 29.9026 73.6481 31.6142C73.7473 32.7299 73.7999 35.1541 74.4891 35.7966H70.4825C70.0386 34.9029 70.0386 33.1505 69.9393 32.1866C69.694 29.7624 68.9523 28.8979 66.435 28.8979H62.9949V35.7966H59.1636V18.2021H67.9127ZM62.9891 26.1173H66.6277C68.4325 26.1173 70.0386 25.7961 70.0386 23.6172C70.0386 21.5902 68.4325 21.2455 66.7971 21.2455H62.9657L62.9891 26.1173Z" fill="white"/>
<path d="M82.3095 36.1822C78.3788 36.1822 75.7798 33.5127 75.7798 29.5054C75.7798 25.4982 78.4781 22.6826 82.2044 22.6826C86.0591 22.6826 88.5063 25.4982 88.5063 29.9786V30.3232H79.3425C79.3892 32.5255 80.4522 33.7113 82.3328 33.7113C83.6178 33.7113 84.4121 33.1272 84.9319 31.8537H88.296C87.5017 34.6284 85.2005 36.1822 82.3095 36.1822ZM82.1868 25.2295C80.6274 25.2295 79.5411 26.316 79.3425 28.0977H84.9319C84.78 26.538 83.939 25.2295 82.1868 25.2295Z" fill="white"/>
<path d="M97.822 26.76C97.6175 25.4223 96.8057 25.0075 95.3923 25.0075C94.1599 25.0075 93.4124 25.4748 93.4124 26.2693C93.4124 27.3324 94.5045 27.4785 96.5312 27.899C98.8324 28.3664 101.501 28.9622 101.501 31.8596C101.501 34.5291 99.2996 36.1822 95.661 36.1822C92.472 36.1822 89.727 34.9205 89.6744 31.661H93.0152C93.1379 33.1914 94.1249 33.7872 95.7369 33.7872C97.1678 33.7872 98.0731 33.168 98.0731 32.2042C98.0731 31.1118 97.0335 30.9191 95.2054 30.4927C92.9276 29.9786 89.9489 29.6281 89.9489 26.5847C89.9489 24.0904 91.9756 22.6826 95.5383 22.6826C98.4586 22.6826 100.982 23.7925 101.075 26.7716L97.822 26.76Z" fill="white"/>
<path d="M106.997 21.1696H103.493V18.2021H106.997V21.1696ZM106.997 35.8142H103.493V23.0506H106.997V35.8142Z" fill="white"/>
<path d="M118.696 35.8142V34.1844C118.289 34.8297 117.715 35.3534 117.036 35.7008C116.357 36.0482 115.597 36.2064 114.835 36.1588C111.302 36.1588 109.047 33.5127 109.047 29.3827C109.047 25.3521 111.249 22.7059 114.637 22.7059C115.394 22.6749 116.147 22.8353 116.826 23.1722C117.504 23.5091 118.087 24.0117 118.521 24.6336V18.208H122.025V35.82L118.696 35.8142ZM115.606 25.4748C113.696 25.4748 112.587 26.9352 112.587 29.3827C112.587 31.8303 113.726 33.3374 115.606 33.3374C117.487 33.3374 118.643 31.9062 118.643 29.4061C118.643 26.9059 117.51 25.4748 115.606 25.4748Z" fill="white"/>
<path d="M130.494 36.1822C126.563 36.1822 123.97 33.5127 123.97 29.5054C123.97 25.4982 126.662 22.6826 130.395 22.6826C134.255 22.6826 136.702 25.4982 136.702 29.9786V30.3232H127.527C127.574 32.5255 128.642 33.7113 130.523 33.7113C131.808 33.7113 132.596 33.1272 133.116 31.8537H136.48C135.686 34.6284 133.391 36.1822 130.494 36.1822ZM130.371 25.2295C128.812 25.2295 127.725 26.316 127.527 28.0977H133.116C132.97 26.538 132.129 25.2295 130.371 25.2295Z" fill="white"/>
<path d="M146.946 35.8145V28.3725C146.946 26.7836 146.649 25.5978 144.768 25.5978C142.665 25.5978 142 27.1049 142 28.9625V35.8145H138.495V23.0509H141.83V24.8326C142.308 24.1598 142.943 23.6142 143.68 23.2435C144.417 22.8729 145.234 22.6884 146.059 22.7063C148.757 22.7063 150.486 24.3127 150.486 27.2801V35.8145H146.946Z" fill="white"/>
<path d="M159.983 25.4281H157.383V31.439C157.383 32.6716 157.413 33.244 158.92 33.244C159.275 33.2514 159.63 33.2338 159.983 33.1915V35.861C159.013 35.937 158.645 35.9603 157.851 35.9603C154.837 35.9603 153.897 35.1717 153.897 32.0524V25.4281H151.771V23.0507H153.897V19.1953H157.401V23.0507H160L159.983 25.4281Z" fill="white"/>
</svg>
