<svg width="160" height="44" viewBox="0 0 160 44" fill="none" xmlns="http://www.w3.org/2000/svg">
<path d="M69.7663 0.0341797H53.2039V42.8505H69.7663V0.0341797Z" fill="white"/>
<path d="M43.398 0.0341797H26.8354V38.9998H43.398V0.0341797Z" fill="white"/>
<path d="M0.466309 43.5382V26.7738C7.4628 26.7649 14.1698 23.9422 19.114 18.9258C24.0581 13.9094 26.8352 7.10941 26.8351 0.0195312H43.3977C43.389 11.5562 38.8635 22.618 30.8146 30.777C22.7657 38.936 11.851 43.5255 0.466309 43.5382Z" fill="url(#paint0_linear_84_231)"/>
<path d="M26.8354 43.5382V26.7738C33.8328 26.7662 40.541 23.9441 45.4861 18.9275C50.4313 13.9109 53.2091 7.11023 53.2091 0.0195312H69.7715C69.7616 11.5567 65.235 22.6184 57.1854 30.7773C49.1357 38.9362 38.2206 43.5255 26.8354 43.5382Z" fill="url(#paint1_linear_84_231)"/>
<path d="M90.3817 3.5082V14.2021H89.297V5.64699L85.0958 12.8425H84.5611L80.3599 5.69282V14.2021H79.2753V3.5082H80.2072L84.8514 11.437L89.4498 3.5082H90.3817ZM96.9215 14.2785C96.1474 14.2785 95.4498 14.1054 94.8285 13.7591C94.2073 13.4026 93.7184 12.9138 93.3619 12.2925C93.0055 11.6712 92.8272 10.9685 92.8272 10.1843C92.8272 9.40006 93.0055 8.69731 93.3619 8.07604C93.7184 7.45478 94.2073 6.971 94.8285 6.62472C95.4498 6.27844 96.1474 6.1053 96.9215 6.1053C97.6955 6.1053 98.3932 6.27844 99.0144 6.62472C99.6357 6.971 100.119 7.45478 100.466 8.07604C100.822 8.69731 101 9.40006 101 10.1843C101 10.9685 100.822 11.6712 100.466 12.2925C100.119 12.9138 99.6357 13.4026 99.0144 13.7591C98.3932 14.1054 97.6955 14.2785 96.9215 14.2785ZM96.9215 13.3161C97.4918 13.3161 98.0011 13.1888 98.4492 12.9342C98.9075 12.6693 99.264 12.2976 99.5186 11.8189C99.7732 11.3402 99.9005 10.7954 99.9005 10.1843C99.9005 9.5732 99.7732 9.02831 99.5186 8.54963C99.264 8.07095 98.9075 7.7043 98.4492 7.44968C98.0011 7.18488 97.4918 7.05248 96.9215 7.05248C96.3511 7.05248 95.8368 7.18488 95.3785 7.44968C94.9304 7.7043 94.5739 8.07095 94.3091 8.54963C94.0545 9.02831 93.9272 9.5732 93.9272 10.1843C93.9272 10.7954 94.0545 11.3402 94.3091 11.8189C94.5739 12.2976 94.9304 12.6693 95.3785 12.9342C95.8368 13.1888 96.3511 13.3161 96.9215 13.3161ZM105.369 14.2785C104.717 14.2785 104.091 14.1869 103.49 14.0035C102.899 13.81 102.436 13.5707 102.1 13.2855L102.589 12.43C102.925 12.6948 103.347 12.9138 103.857 13.0869C104.366 13.2499 104.895 13.3314 105.445 13.3314C106.179 13.3314 106.718 13.2193 107.065 12.9953C107.421 12.761 107.599 12.4351 107.599 12.0175C107.599 11.7222 107.503 11.493 107.309 11.3301C107.116 11.1569 106.871 11.0296 106.576 10.9481C106.281 10.8565 105.888 10.7699 105.4 10.6884C104.748 10.5662 104.223 10.444 103.826 10.3218C103.429 10.1894 103.088 9.9704 102.802 9.66486C102.527 9.35932 102.39 8.93665 102.39 8.39686C102.39 7.72467 102.67 7.1747 103.23 6.74694C103.79 6.31918 104.569 6.1053 105.568 6.1053C106.087 6.1053 106.606 6.1766 107.126 6.31918C107.645 6.45158 108.073 6.62982 108.409 6.85388L107.936 7.72467C107.274 7.26636 106.484 7.0372 105.568 7.0372C104.875 7.0372 104.351 7.15942 103.994 7.40385C103.648 7.64829 103.475 7.9691 103.475 8.36631C103.475 8.67185 103.571 8.91628 103.765 9.09961C103.969 9.28293 104.218 9.42043 104.513 9.51209C104.809 9.59357 105.216 9.68014 105.736 9.7718C106.377 9.89402 106.892 10.0162 107.279 10.1384C107.666 10.2607 107.997 10.4695 108.272 10.7648C108.547 11.0602 108.684 11.4676 108.684 11.987C108.684 12.6897 108.389 13.2499 107.798 13.6675C107.218 14.0748 106.408 14.2785 105.369 14.2785ZM114.02 14.2785C113.225 14.2785 112.512 14.1054 111.881 13.7591C111.26 13.4128 110.771 12.9291 110.414 12.3078C110.058 11.6763 109.88 10.9685 109.88 10.1843C109.88 9.40006 110.058 8.69731 110.414 8.07604C110.771 7.45478 111.26 6.971 111.881 6.62472C112.512 6.27844 113.225 6.1053 114.02 6.1053C114.712 6.1053 115.328 6.2428 115.868 6.51778C116.418 6.78259 116.851 7.1747 117.167 7.69412L116.357 8.24409C116.092 7.84689 115.756 7.55153 115.349 7.35802C114.941 7.15433 114.498 7.05248 114.02 7.05248C113.439 7.05248 112.915 7.18488 112.446 7.44968C111.988 7.7043 111.626 8.07095 111.362 8.54963C111.107 9.02831 110.98 9.5732 110.98 10.1843C110.98 10.8055 111.107 11.3555 111.362 11.8342C111.626 12.3027 111.988 12.6693 112.446 12.9342C112.915 13.1888 113.439 13.3161 114.02 13.3161C114.498 13.3161 114.941 13.2193 115.349 13.0258C115.756 12.8323 116.092 12.5369 116.357 12.1397L117.167 12.6897C116.851 13.2091 116.418 13.6063 115.868 13.8813C115.318 14.1461 114.702 14.2785 114.02 14.2785ZM122.448 14.2785C121.674 14.2785 120.976 14.1054 120.355 13.7591C119.734 13.4026 119.245 12.9138 118.888 12.2925C118.532 11.6712 118.354 10.9685 118.354 10.1843C118.354 9.40006 118.532 8.69731 118.888 8.07604C119.245 7.45478 119.734 6.971 120.355 6.62472C120.976 6.27844 121.674 6.1053 122.448 6.1053C123.222 6.1053 123.92 6.27844 124.541 6.62472C125.162 6.971 125.646 7.45478 125.992 8.07604C126.349 8.69731 126.527 9.40006 126.527 10.1843C126.527 10.9685 126.349 11.6712 125.992 12.2925C125.646 12.9138 125.162 13.4026 124.541 13.7591C123.92 14.1054 123.222 14.2785 122.448 14.2785ZM122.448 13.3161C123.018 13.3161 123.527 13.1888 123.976 12.9342C124.434 12.6693 124.79 12.2976 125.045 11.8189C125.3 11.3402 125.427 10.7954 125.427 10.1843C125.427 9.5732 125.3 9.02831 125.045 8.54963C124.79 8.07095 124.434 7.7043 123.976 7.44968C123.527 7.18488 123.018 7.05248 122.448 7.05248C121.878 7.05248 121.363 7.18488 120.905 7.44968C120.457 7.7043 120.1 8.07095 119.836 8.54963C119.581 9.02831 119.454 9.5732 119.454 10.1843C119.454 10.7954 119.581 11.3402 119.836 11.8189C120.1 12.2976 120.457 12.6693 120.905 12.9342C121.363 13.1888 121.878 13.3161 122.448 13.3161ZM140.311 6.16641L137.271 14.2021H136.248L133.712 7.61773L131.176 14.2021H130.152L127.127 6.16641H128.166L130.687 12.9953L133.269 6.16641H134.201L136.767 12.9953L139.318 6.16641H140.311ZM79.2753 16.5082H80.4058V27.2021H79.2753V16.5082ZM87.7503 19.1053C88.7586 19.1053 89.5581 19.4007 90.1488 19.9914C90.7497 20.5719 91.0502 21.4223 91.0502 22.5426V27.2021H89.9655V22.6496C89.9655 21.8144 89.7567 21.1779 89.3392 20.7399C88.9216 20.302 88.3258 20.083 87.5517 20.083C86.686 20.083 85.9986 20.3427 85.4893 20.8622C84.9903 21.3714 84.7408 22.0792 84.7408 22.9857V27.2021H83.6561V19.1664H84.6949V20.6483C84.9903 20.1594 85.3977 19.7826 85.9171 19.5178C86.4467 19.2428 87.0578 19.1053 87.7503 19.1053ZM98.0892 19.1053C99.0975 19.1053 99.897 19.4007 100.488 19.9914C101.089 20.5719 101.389 21.4223 101.389 22.5426V27.2021H100.304V22.6496C100.304 21.8144 100.096 21.1779 99.678 20.7399C99.2605 20.302 98.6647 20.083 97.8906 20.083C97.0249 20.083 96.3375 20.3427 95.8282 20.8622C95.3292 21.3714 95.0796 22.0792 95.0796 22.9857V27.2021H93.995V19.1664H95.0338V20.6483C95.3292 20.1594 95.7366 19.7826 96.256 19.5178C96.7856 19.2428 97.3967 19.1053 98.0892 19.1053ZM107.648 27.2785C106.874 27.2785 106.177 27.1054 105.555 26.7591C104.934 26.4026 104.445 25.9138 104.089 25.2925C103.732 24.6712 103.554 23.9685 103.554 23.1843C103.554 22.4001 103.732 21.6973 104.089 21.076C104.445 20.4548 104.934 19.971 105.555 19.6247C106.177 19.2784 106.874 19.1053 107.648 19.1053C108.422 19.1053 109.12 19.2784 109.741 19.6247C110.362 19.971 110.846 20.4548 111.193 21.076C111.549 21.6973 111.727 22.4001 111.727 23.1843C111.727 23.9685 111.549 24.6712 111.193 25.2925C110.846 25.9138 110.362 26.4026 109.741 26.7591C109.12 27.1054 108.422 27.2785 107.648 27.2785ZM107.648 26.3161C108.219 26.3161 108.728 26.1888 109.176 25.9342C109.634 25.6693 109.991 25.2976 110.245 24.8189C110.5 24.3402 110.627 23.7954 110.627 23.1843C110.627 22.5732 110.5 22.0283 110.245 21.5496C109.991 21.071 109.634 20.7043 109.176 20.4497C108.728 20.1849 108.219 20.0525 107.648 20.0525C107.078 20.0525 106.564 20.1849 106.105 20.4497C105.657 20.7043 105.301 21.071 105.036 21.5496C104.781 22.0283 104.654 22.5732 104.654 23.1843C104.654 23.7954 104.781 24.3402 105.036 24.8189C105.301 25.2976 105.657 25.6693 106.105 25.9342C106.564 26.1888 107.078 26.3161 107.648 26.3161ZM120.47 19.1664L116.896 27.2021H115.78L112.221 19.1664H113.351L116.361 26.0105L119.401 19.1664H120.47ZM124.57 19.1053C125.619 19.1053 126.424 19.3701 126.984 19.8997C127.544 20.4191 127.824 21.1932 127.824 22.2218V27.2021H126.785V25.9494C126.541 26.367 126.179 26.6929 125.701 26.9272C125.232 27.1614 124.672 27.2785 124.02 27.2785C123.124 27.2785 122.411 27.0647 121.881 26.6369C121.352 26.2091 121.087 25.6439 121.087 24.9411C121.087 24.2588 121.331 23.7088 121.82 23.2912C122.319 22.8736 123.109 22.6649 124.188 22.6649H126.74V22.176C126.74 21.4834 126.546 20.9589 126.159 20.6025C125.772 20.2358 125.207 20.0525 124.463 20.0525C123.954 20.0525 123.465 20.1391 122.997 20.3122C122.528 20.4751 122.126 20.7043 121.79 20.9997L121.301 20.19C121.708 19.8437 122.197 19.5789 122.768 19.3956C123.338 19.2021 123.939 19.1053 124.57 19.1053ZM124.188 26.423C124.799 26.423 125.324 26.2855 125.762 26.0105C126.2 25.7254 126.526 25.318 126.74 24.7884V23.4745H124.219C122.844 23.4745 122.156 23.9532 122.156 24.9106C122.156 25.3791 122.335 25.7508 122.691 26.0258C123.048 26.2906 123.547 26.423 124.188 26.423ZM135.002 26.7133C134.798 26.8966 134.544 27.0392 134.238 27.141C133.943 27.2327 133.632 27.2785 133.306 27.2785C132.553 27.2785 131.972 27.0748 131.565 26.6675C131.157 26.2601 130.954 25.6846 130.954 24.9411V20.083H129.518V19.1664H130.954V17.4095H132.038V19.1664H134.483V20.083H132.038V24.88C132.038 25.3587 132.155 25.7254 132.39 25.98C132.634 26.2244 132.98 26.3466 133.429 26.3466C133.653 26.3466 133.866 26.311 134.07 26.2397C134.284 26.1684 134.467 26.0666 134.62 25.9342L135.002 26.7133ZM136.977 19.1664H138.061V27.2021H136.977V19.1664ZM137.527 17.4095C137.303 17.4095 137.114 17.3332 136.961 17.1804C136.809 17.0276 136.732 16.8443 136.732 16.6304C136.732 16.4267 136.809 16.2485 136.961 16.0957C137.114 15.9429 137.303 15.8666 137.527 15.8666C137.751 15.8666 137.939 15.9429 138.092 16.0957C138.245 16.2383 138.321 16.4114 138.321 16.6151C138.321 16.8392 138.245 17.0276 138.092 17.1804C137.939 17.3332 137.751 17.4095 137.527 17.4095ZM144.364 27.2785C143.59 27.2785 142.892 27.1054 142.271 26.7591C141.65 26.4026 141.161 25.9138 140.804 25.2925C140.448 24.6712 140.27 23.9685 140.27 23.1843C140.27 22.4001 140.448 21.6973 140.804 21.076C141.161 20.4548 141.65 19.971 142.271 19.6247C142.892 19.2784 143.59 19.1053 144.364 19.1053C145.138 19.1053 145.836 19.2784 146.457 19.6247C147.078 19.971 147.562 20.4548 147.908 21.076C148.265 21.6973 148.443 22.4001 148.443 23.1843C148.443 23.9685 148.265 24.6712 147.908 25.2925C147.562 25.9138 147.078 26.4026 146.457 26.7591C145.836 27.1054 145.138 27.2785 144.364 27.2785ZM144.364 26.3161C144.934 26.3161 145.444 26.1888 145.892 25.9342C146.35 25.6693 146.706 25.2976 146.961 24.8189C147.216 24.3402 147.343 23.7954 147.343 23.1843C147.343 22.5732 147.216 22.0283 146.961 21.5496C146.706 21.071 146.35 20.7043 145.892 20.4497C145.444 20.1849 144.934 20.0525 144.364 20.0525C143.794 20.0525 143.279 20.1849 142.821 20.4497C142.373 20.7043 142.016 21.071 141.752 21.5496C141.497 22.0283 141.37 22.5732 141.37 23.1843C141.37 23.7954 141.497 24.3402 141.752 24.8189C142.016 25.2976 142.373 25.6693 142.821 25.9342C143.279 26.1888 143.794 26.3161 144.364 26.3161ZM154.752 19.1053C155.76 19.1053 156.559 19.4007 157.15 19.9914C157.751 20.5719 158.051 21.4223 158.051 22.5426V27.2021H156.967V22.6496C156.967 21.8144 156.758 21.1779 156.34 20.7399C155.923 20.302 155.327 20.083 154.553 20.083C153.687 20.083 153 20.3427 152.491 20.8622C151.992 21.3714 151.742 22.0792 151.742 22.9857V27.2021H150.657V19.1664H151.696V20.6483C151.992 20.1594 152.399 19.7826 152.918 19.5178C153.448 19.2428 154.059 19.1053 154.752 19.1053ZM83.9195 40.2938C82.8603 40.2938 81.9029 40.0596 81.0474 39.5911C80.2021 39.1226 79.535 38.4758 79.0461 37.6509C78.5674 36.8157 78.3281 35.8838 78.3281 34.8552C78.3281 33.8265 78.5674 32.8997 79.0461 32.0747C79.535 31.2396 80.2072 30.5878 81.0627 30.1193C81.9182 29.6508 82.8756 29.4165 83.9348 29.4165C84.7292 29.4165 85.4625 29.5489 86.1347 29.8137C86.8069 30.0785 87.3772 30.4656 87.8457 30.9748L87.1277 31.6928C86.2925 30.8475 85.2384 30.4248 83.9653 30.4248C83.12 30.4248 82.3511 30.6183 81.6585 31.0054C80.9659 31.3924 80.4211 31.922 80.0239 32.5942C79.6368 33.2664 79.4433 34.02 79.4433 34.8552C79.4433 35.6903 79.6368 36.444 80.0239 37.1162C80.4211 37.7884 80.9659 38.318 81.6585 38.705C82.3511 39.092 83.12 39.2855 83.9653 39.2855C85.2486 39.2855 86.3027 38.8578 87.1277 38.0023L87.8457 38.7203C87.3772 39.2295 86.8018 39.6216 86.1194 39.8966C85.4472 40.1614 84.7139 40.2938 83.9195 40.2938ZM90.0265 28.8666H91.1112V40.2021H90.0265V28.8666ZM101.371 32.1664V40.2021H100.332V38.7355C100.047 39.2244 99.6544 39.6063 99.1554 39.8813C98.6563 40.1461 98.086 40.2785 97.4444 40.2785C96.3953 40.2785 95.5653 39.9883 94.9542 39.4077C94.3533 38.817 94.0529 37.9564 94.0529 36.8259V32.1664H95.1375V36.719C95.1375 37.5643 95.3463 38.2059 95.7639 38.6439C96.1815 39.0818 96.7773 39.3008 97.5513 39.3008C98.3966 39.3008 99.0637 39.0462 99.5526 38.5369C100.041 38.0175 100.286 37.2995 100.286 36.3829V32.1664H101.371ZM106.563 40.2785C105.911 40.2785 105.284 40.1869 104.683 40.0035C104.093 39.81 103.629 39.5707 103.293 39.2855L103.782 38.43C104.118 38.6948 104.541 38.9138 105.05 39.0869C105.559 39.2499 106.089 39.3314 106.639 39.3314C107.372 39.3314 107.912 39.2193 108.258 38.9953C108.615 38.761 108.793 38.4351 108.793 38.0175C108.793 37.7222 108.696 37.493 108.503 37.3301C108.309 37.1569 108.065 37.0296 107.769 36.9481C107.474 36.8565 107.082 36.7699 106.593 36.6884C105.941 36.5662 105.417 36.444 105.02 36.3218C104.622 36.1894 104.281 35.9704 103.996 35.6649C103.721 35.3593 103.583 34.9367 103.583 34.3969C103.583 33.7247 103.864 33.1747 104.424 32.7469C104.984 32.3192 105.763 32.1053 106.761 32.1053C107.281 32.1053 107.8 32.1766 108.319 32.3192C108.839 32.4516 109.267 32.6298 109.603 32.8539L109.129 33.7247C108.467 33.2664 107.678 33.0372 106.761 33.0372C106.069 33.0372 105.544 33.1594 105.188 33.4039C104.841 33.6483 104.668 33.9691 104.668 34.3663C104.668 34.6718 104.765 34.9163 104.958 35.0996C105.162 35.2829 105.412 35.4204 105.707 35.5121C106.002 35.5936 106.41 35.6801 106.929 35.7718C107.571 35.894 108.085 36.0162 108.472 36.1384C108.859 36.2607 109.19 36.4695 109.465 36.7648C109.74 37.0602 109.878 37.4676 109.878 37.987C109.878 38.6897 109.582 39.2499 108.992 39.6675C108.411 40.0748 107.601 40.2785 106.563 40.2785ZM116.115 39.7133C115.911 39.8966 115.656 40.0392 115.351 40.141C115.055 40.2327 114.745 40.2785 114.419 40.2785C113.665 40.2785 113.085 40.0748 112.677 39.6675C112.27 39.2601 112.066 38.6846 112.066 37.9411V33.083H110.63V32.1664H112.066V30.4095H113.151V32.1664H115.595V33.083H113.151V37.88C113.151 38.3587 113.268 38.7254 113.502 38.98C113.747 39.2244 114.093 39.3466 114.541 39.3466C114.765 39.3466 114.979 39.311 115.183 39.2397C115.397 39.1684 115.58 39.0666 115.733 38.9342L116.115 39.7133ZM124.803 36.5204H118.081C118.142 37.3555 118.463 38.0328 119.043 38.5522C119.624 39.0615 120.357 39.3161 121.243 39.3161C121.742 39.3161 122.2 39.2295 122.618 39.0564C123.036 38.873 123.397 38.6082 123.703 38.262L124.314 38.9647C123.957 39.3925 123.509 39.7184 122.969 39.9424C122.44 40.1665 121.854 40.2785 121.212 40.2785C120.388 40.2785 119.654 40.1054 119.013 39.7591C118.381 39.4026 117.887 38.9138 117.531 38.2925C117.174 37.6712 116.996 36.9685 116.996 36.1843C116.996 35.4001 117.164 34.6973 117.5 34.076C117.846 33.4548 118.315 32.971 118.906 32.6247C119.507 32.2784 120.179 32.1053 120.922 32.1053C121.666 32.1053 122.333 32.2784 122.924 32.6247C123.514 32.971 123.978 33.4548 124.314 34.076C124.65 34.6871 124.818 35.3899 124.818 36.1843L124.803 36.5204ZM120.922 33.0372C120.148 33.0372 119.496 33.2867 118.967 33.7858C118.447 34.2746 118.152 34.9163 118.081 35.7107H123.779C123.708 34.9163 123.407 34.2746 122.878 33.7858C122.358 33.2867 121.706 33.0372 120.922 33.0372ZM128.064 33.7399C128.319 33.2002 128.696 32.7928 129.195 32.5178C129.704 32.2428 130.331 32.1053 131.074 32.1053V33.1594L130.814 33.1441C129.969 33.1441 129.307 33.4039 128.828 33.9233C128.35 34.4427 128.11 35.1709 128.11 36.1079V40.2021H127.026V32.1664H128.064V33.7399Z" fill="white"/>
<defs>
<linearGradient id="paint0_linear_84_231" x1="5.64296" y1="39.1094" x2="42.948" y2="1.5412" gradientUnits="userSpaceOnUse">
<stop stop-color="#00EF12"/>
<stop offset="1" stop-color="#00FFE9"/>
</linearGradient>
<linearGradient id="paint1_linear_84_231" x1="1723.24" y1="4777.5" x2="5121.36" y2="1356.16" gradientUnits="userSpaceOnUse">
<stop stop-color="#00EF12"/>
<stop offset="1" stop-color="#00FFE9"/>
</linearGradient>
</defs>
</svg>
