<svg width="170" height="53" viewBox="0 0 170 53" fill="none" xmlns="http://www.w3.org/2000/svg">
<path fill-rule="evenodd" clip-rule="evenodd" d="M89.212 23.9003C89.1955 23.8933 89.1789 23.8864 89.1624 23.8793C94.4261 29.8774 103.431 29.7998 108.808 24.7272C111.579 22.115 113.035 18.7333 113.227 15.3252C113.236 15.3488 113.246 15.3724 113.256 15.3962C113.463 12.2208 112.566 9.3078 110.944 6.93927C110.445 6.1952 109.866 5.49142 109.207 4.84043C105.127 0.808263 99.4165 -0.0752598 94.5868 1.77879C89.2625 3.75858 85.5849 8.84853 85.6193 14.6849C85.6407 18.3105 87.0122 21.5073 89.212 23.9003Z" fill="url(#paint0_linear_7_15)"/>
<path d="M71.0484 16.4949C73.7406 20.1717 76.3978 23.8027 79.0926 27.4845C78.9289 27.4947 78.8368 27.5065 78.7431 27.5065C77.3791 27.5065 76.0151 27.5184 74.6511 27.4938C74.5455 27.4855 74.4428 27.4559 74.3491 27.4069C74.2555 27.3579 74.1729 27.2905 74.1063 27.2088C71.7761 23.9197 69.4576 20.6211 67.1507 17.3128C66.8848 16.9297 66.5975 16.8434 66.1491 16.9703V27.4718H62.242V1.67469C62.2907 1.65258 62.3424 1.63776 62.3955 1.63071C64.5958 1.65608 66.7987 1.62563 68.9947 1.73136C70.7159 1.81594 72.4047 2.20163 73.8378 3.21913C75.7303 4.56059 76.6834 6.43321 76.8011 8.73888C76.9085 10.839 76.3467 12.7057 74.9256 14.2891C74.0049 15.3117 72.8625 15.9807 71.5343 16.3478C71.3954 16.3867 71.2615 16.4298 71.0484 16.4949ZM66.1422 9.37916C66.1422 10.6191 66.1422 11.8582 66.1422 13.1007C66.1422 13.3426 66.1644 13.5126 66.4781 13.4915C67.4525 13.4255 68.4389 13.4458 69.4013 13.3029C71.8267 12.9417 73.0347 11.4488 72.9674 9.01461C72.9239 7.42365 72.0015 6.21076 70.4738 5.70243C69.195 5.27952 67.8779 5.31251 66.5591 5.30236C66.207 5.30236 66.1329 5.42585 66.1388 5.74726C66.1516 6.95676 66.1422 8.16796 66.1422 9.37916Z" fill="black"/>
<path d="M139.257 27.5099C137.66 27.5099 136.172 27.5192 134.683 27.4955C134.531 27.4955 134.337 27.3264 134.237 27.1817C131.932 23.9248 129.632 20.6639 127.338 17.3991C127.227 17.2401 127.123 17.0413 126.965 16.9576C126.568 16.747 126.268 16.9576 126.268 17.4084C126.268 20.5937 126.268 23.7796 126.268 26.9661V27.4854H122.412V1.65186C122.485 1.64006 122.558 1.63244 122.632 1.62903C124.79 1.65609 126.95 1.62903 129.105 1.73053C130.753 1.80834 132.357 2.18134 133.776 3.08382C135.355 4.08948 136.351 5.51975 136.75 7.33147C137.321 9.93233 136.847 12.3031 135.032 14.3314C134.134 15.3345 133 15.9731 131.707 16.3452C131.585 16.3799 131.464 16.4155 131.343 16.4552C131.32 16.462 131.306 16.4933 131.245 16.5601C133.889 20.1742 136.541 23.7968 139.257 27.5099ZM126.279 9.34195C126.279 10.5954 126.284 11.8489 126.274 13.1016C126.274 13.3807 126.342 13.5169 126.656 13.494C127.686 13.4187 128.734 13.4551 129.743 13.2758C131.619 12.9443 132.919 11.854 133.111 9.76401C133.307 7.64949 132.413 6.28013 130.383 5.63224C129.121 5.23048 127.809 5.27869 126.505 5.31506C126.428 5.31506 126.293 5.54343 126.291 5.66692C126.272 6.88826 126.278 8.11384 126.279 9.33857V9.34195Z" fill="black"/>
<path d="M0 27.5098C4.31537 18.3142 8.58555 9.21159 12.9077 0.000732422C17.085 9.22004 21.2043 18.3311 25.3466 27.481C25.2 27.4946 25.119 27.5081 25.0388 27.5081C23.8172 27.5081 22.5964 27.5081 21.3731 27.5081C21.1574 27.5081 21.0321 27.4734 20.9281 27.2341C20.1216 25.3335 19.2879 23.4448 18.4729 21.5469C18.374 21.3176 18.2452 21.2356 17.9946 21.2364C14.4863 21.2432 10.978 21.2432 7.46962 21.2364C7.19 21.2364 7.07491 21.3472 6.97347 21.5688C6.21303 23.2275 5.43896 24.8776 4.68706 26.5405C4.25654 27.498 4.2753 27.5098 3.22757 27.5098H0ZM12.9197 8.95277L12.7654 8.93331L8.81316 17.514H16.6818C15.4115 14.6205 14.166 11.7854 12.9197 8.95023V8.95277Z" fill="black"/>
<path d="M144.676 27.4845C148.972 18.3287 153.244 9.22608 157.573 0L170 27.4524C169.783 27.4786 169.664 27.5048 169.546 27.5048C168.396 27.5048 167.245 27.4981 166.094 27.5133C165.804 27.5133 165.668 27.405 165.557 27.1504C164.755 25.2787 163.937 23.4128 163.135 21.541C163.036 21.3101 162.904 21.2366 162.657 21.2374C159.148 21.2442 155.638 21.2442 152.129 21.2374C151.884 21.2374 151.754 21.3085 151.65 21.5377C150.807 23.3917 149.945 25.2347 149.104 27.0912C148.962 27.4084 148.798 27.5243 148.445 27.5141C147.352 27.4896 146.257 27.5057 145.163 27.5048C145.027 27.5099 144.89 27.4947 144.676 27.4845ZM153.479 17.5099H161.35C160.071 14.6096 158.821 11.7669 157.57 8.92412L157.421 8.95288C156.116 11.7855 154.81 14.619 153.479 17.5099Z" fill="black"/>
<path d="M32.1427 1.62819C33.3985 1.62819 34.615 1.62226 35.8358 1.64087C35.9261 1.64087 36.0429 1.8058 36.0915 1.9183C36.135 2.01134 36.1009 2.1399 36.1009 2.25239C36.1009 7.44002 36.1009 12.6276 36.1009 17.8153C36.1009 19.0163 36.2117 20.2064 36.7292 21.3127C37.5024 22.9654 38.817 23.9271 40.6277 24.2163C41.9295 24.4236 43.2091 24.3542 44.4068 23.7706C46.0837 22.9544 47.0683 21.5893 47.2781 19.7623C47.4382 18.3103 47.5204 16.851 47.5244 15.3903C47.5551 10.9921 47.5355 6.59393 47.5355 2.19572V1.62819H48.5227C49.3752 1.62819 50.2277 1.63918 51.0802 1.62311C51.3812 1.61719 51.4681 1.71699 51.4681 2.01134C51.4604 7.55053 51.5295 13.0914 51.4408 18.6289C51.3718 22.9426 48.8918 26.3114 44.7368 27.5454C40.1503 28.908 35.4522 27.2342 33.0916 22.7565C32.3917 21.4294 32.1274 19.9712 32.1274 18.4801C32.1172 12.9688 32.1172 7.45721 32.1274 1.94536C32.1223 1.86247 32.1334 1.77874 32.1427 1.62819Z" fill="black"/>
<path d="M44.5986 52.4663C42.4904 52.4833 40.0744 50.8737 40.0872 47.9514C40.0983 45.4411 42.1869 43.5295 44.6592 43.5033C47.1314 43.4771 49.2047 45.5654 49.1919 48.0225C49.1774 50.5041 47.1493 52.4663 44.5986 52.4663ZM47.8433 47.9996C47.8433 46.1388 46.4938 44.7636 44.6668 44.7568C42.8399 44.75 41.4359 46.1465 41.435 47.9582C41.435 49.8266 42.8084 51.2222 44.6464 51.2222C46.4844 51.2222 47.8424 49.8393 47.8433 47.9996Z" fill="black"/>
<path d="M28.7464 47.5556C29.1223 47.9599 29.558 48.2838 29.7984 48.7143C30.6781 50.2918 29.5597 52.0705 28.0192 52.2075C27.0218 52.2972 26.0158 52.3048 24.9851 52.3513V43.6953C25.5964 43.6953 26.2017 43.6877 26.8061 43.6953C27.0467 43.701 27.2861 43.7293 27.5213 43.7799C29.3653 44.1732 29.7753 46.4865 28.8171 47.4465C28.7871 47.4783 28.7631 47.5153 28.7464 47.5556ZM26.2579 49.7547C26.2579 51.2205 26.2664 51.2281 27.6662 51.0302L27.7089 51.0251C28.3005 50.9227 28.7626 50.4457 28.8035 49.8959C28.847 49.3039 28.5153 48.7964 27.9024 48.6365C27.4992 48.5325 27.0661 48.5426 26.6467 48.497C26.3619 48.4665 26.2264 48.5587 26.2528 48.8691C26.2775 49.1626 26.2579 49.4553 26.2579 49.7547ZM26.2537 46.1177C26.2537 46.4408 26.2434 46.7639 26.2605 47.0853C26.2605 47.1792 26.3219 47.3188 26.3943 47.3517C26.8351 47.5547 27.743 47.2088 27.9348 46.7597C28.1394 46.286 28.1607 45.7988 27.8547 45.3582C27.523 44.8811 26.9902 44.8786 26.4813 44.8761C26.4054 44.8761 26.2733 45.0452 26.2647 45.1476C26.2366 45.4724 26.2537 45.7963 26.2537 46.1177Z" fill="black"/>
<path d="M65.3136 52.3116C64.7944 52.3116 64.3673 52.3352 63.9496 52.298C63.7796 52.2634 63.6293 52.1657 63.5293 52.0248C62.8047 51.0192 62.0997 49.9949 61.3785 48.9892C61.3086 48.8911 61.1739 48.8395 61.069 48.7659C61.0385 48.8747 61.0183 48.9859 61.0085 49.0983C61.0042 50.0566 61.0025 51.0141 61.0085 51.9741C61.0085 52.2278 60.9232 52.331 60.6598 52.3124C60.3512 52.2955 60.0409 52.3124 59.7016 52.3124C59.6905 52.1509 59.6743 52.0282 59.6743 51.9064C59.6743 49.314 59.6794 46.7208 59.6658 44.125C59.6658 43.7731 59.7655 43.6446 60.1202 43.6759C61.034 43.7604 61.9692 43.7249 62.8575 43.9161C63.8959 44.1394 64.5123 45.0156 64.537 45.9858C64.5702 47.2697 64.0638 48.0918 62.982 48.5173C62.8968 48.5519 62.8115 48.6019 62.6657 48.6814L65.3136 52.3116ZM61.0051 46.2471V46.6252C61.0051 47.778 61.0358 47.8017 62.1858 47.5471C62.8328 47.405 63.2284 46.961 63.2471 46.3554C63.271 45.6077 63.0067 45.2169 62.2864 45.0275C61.9769 44.9429 61.6444 44.9547 61.3222 44.9209C61.0869 44.8955 60.9897 44.9911 61.0008 45.233C61.0161 45.5713 61.0051 45.9096 61.0051 46.2471Z" fill="black"/>
<path d="M89.8503 52.3116L94.1486 43.1515L98.2944 52.3107C97.8238 52.3107 97.4419 52.3268 97.0642 52.2997C96.9619 52.2921 96.8289 52.1712 96.7795 52.0688C96.5314 51.5512 96.3251 51.0132 96.0617 50.5032C96.0148 50.427 95.9514 50.362 95.876 50.3132C95.8006 50.2643 95.7152 50.2327 95.626 50.2207C94.603 50.1962 93.58 50.2156 92.557 50.2021C92.3013 50.2021 92.1734 50.2935 92.0771 50.5168C91.8656 51.0065 91.615 51.4784 91.4172 51.9724C91.3081 52.2439 91.1512 52.3344 90.8708 52.3158C90.5656 52.2963 90.2544 52.3116 89.8503 52.3116ZM92.7974 48.9529H95.3899L94.1896 46.226L94.054 46.248L92.7974 48.9529Z" fill="black"/>
<path d="M75.53 43.7165H80.2418C80.2601 43.7519 80.2749 43.789 80.2861 43.8273C80.3637 44.9209 80.3637 44.9209 79.2674 44.9209H76.8232V46.9635H80.1233V48.2221H76.8215V51.0606H80.2725V52.282H75.53V43.7165Z" fill="black"/>
<path d="M139.323 44.9725L138.319 45.5645C138.228 45.4563 138.149 45.3759 138.087 45.2863C137.881 45.0079 137.576 44.8173 137.233 44.7528C136.891 44.6884 136.537 44.7547 136.242 44.9386C135.572 45.3615 135.552 46.1955 136.242 46.593C136.69 46.8519 137.186 47.0346 137.671 47.2257C139.092 47.7831 139.717 48.771 139.547 50.2038C139.408 51.3414 138.292 52.3809 137.131 52.4537C135.401 52.5628 134.326 51.7068 134.021 49.9391L135.336 49.6371C135.406 50.2385 135.532 50.7451 136.058 51.0513C136.678 51.4133 137.655 51.2205 138.035 50.6377C138.462 49.9881 138.328 49.0975 137.672 48.6923C137.161 48.3777 136.588 48.1603 136.037 47.91C135.446 47.641 134.92 47.2968 134.616 46.7047C134.036 45.5722 134.609 44.2392 135.888 43.7198C137.241 43.1726 138.561 43.6327 139.323 44.9725Z" fill="black"/>
<path d="M112.042 52.3115C111.032 52.3115 110.015 52.3183 108.998 52.3115C108.131 52.3039 108.21 52.4748 108.209 51.5309C108.209 49.0949 108.217 46.6599 108.199 44.2248C108.199 43.7976 108.319 43.6581 108.753 43.675C109.534 43.7054 109.535 43.6826 109.535 44.4743V51.0555H111.069C112.234 51.053 112.243 51.0623 112.042 52.3115Z" fill="black"/>
<path d="M123.516 52.2921H122.162V51.8692C122.162 49.2895 122.169 46.7098 122.155 44.1309C122.155 43.7867 122.24 43.6657 122.604 43.6716C123.515 43.686 123.516 43.6716 123.516 44.5538V52.2921Z" fill="black"/>
<defs>
<linearGradient id="paint0_linear_7_15" x1="89.4996" y1="5.49828" x2="106.999" y2="24.9982" gradientUnits="userSpaceOnUse">
<stop stop-color="#DD3145"/>
<stop offset="1" stop-color="#EC9033"/>
</linearGradient>
</defs>
</svg>
